<svg width="51" height="50" viewBox="0 0 51 50" fill="none" xmlns="http://www.w3.org/2000/svg">
<rect x="0.21875" width="50" height="50" rx="10" fill="#8365D7"/>
<g clip-path="url(#clip0_249_44)">
<path d="M35.674 24.0259L33.459 18.4699C33.241 17.9229 32.62 17.6559 32.072 17.8719C31.791 17.9829 31.569 18.2099 31.467 18.4929L25.549 34.2849L22.845 11.0949C22.781 10.5369 22.294 10.1239 21.734 10.1509C21.342 10.1679 20.991 10.3979 20.82 10.7489L14.382 24.0269H10.07C9.48101 24.0249 9.00201 24.5039 9.00001 25.0919C8.99701 25.6819 9.47501 26.1599 10.067 26.1619H15.043C15.451 26.1629 15.825 25.9319 16.005 25.5619L21.151 14.9719L23.941 38.9099C24.012 39.4959 24.545 39.9109 25.131 39.8409C25.523 39.7939 25.856 39.5309 25.997 39.1619L32.497 21.8259L33.965 25.4899C34.127 25.8949 34.52 26.1609 34.956 26.1599H39.93C40.518 26.1619 40.997 25.6859 41 25.0969C41.002 24.5069 40.524 24.0279 39.933 24.0259H35.674Z" fill="white"/>
</g>
<defs>
<clipPath id="clip0_249_44">
<rect width="32" height="32" fill="white" transform="translate(9 9)"/>
</clipPath>
</defs>
</svg>
