<svg width="200" height="54" viewBox="0 0 200 54" fill="none" xmlns="http://www.w3.org/2000/svg">
<path d="M1.188 27.328C1.188 24.832 1.728 22.612 2.808 20.668C3.888 18.7 5.388 17.176 7.308 16.096C9.252 14.992 11.448 14.44 13.896 14.44C16.896 14.44 19.464 15.232 21.6 16.816C23.736 18.4 25.164 20.56 25.884 23.296H19.116C18.612 22.24 17.892 21.436 16.956 20.884C16.044 20.332 15 20.056 13.824 20.056C11.928 20.056 10.392 20.716 9.216 22.036C8.04 23.356 7.452 25.12 7.452 27.328C7.452 29.536 8.04 31.3 9.216 32.62C10.392 33.94 11.928 34.6 13.824 34.6C15 34.6 16.044 34.324 16.956 33.772C17.892 33.22 18.612 32.416 19.116 31.36H25.884C25.164 34.096 23.736 36.256 21.6 37.84C19.464 39.4 16.896 40.18 13.896 40.18C11.448 40.18 9.252 39.64 7.308 38.56C5.388 37.456 3.888 35.932 2.808 33.988C1.728 32.044 1.188 29.824 1.188 27.328ZM35.8099 23.26C36.5299 22.156 37.4299 21.292 38.5099 20.668C39.5899 20.02 40.7899 19.696 42.1099 19.696V26.212H40.4179C38.8819 26.212 37.7299 26.548 36.9619 27.22C36.1939 27.868 35.8099 29.02 35.8099 30.676V40H29.6539V19.912H35.8099V23.26ZM65.5723 19.912L52.9723 49.54H46.3483L50.9563 39.316L42.7843 19.912H49.6603L54.3043 32.476L58.9123 19.912H65.5723ZM73.9544 22.756C74.5544 21.82 75.3824 21.064 76.4384 20.488C77.4944 19.912 78.7304 19.624 80.1464 19.624C81.8024 19.624 83.3024 20.044 84.6464 20.884C85.9904 21.724 87.0464 22.924 87.8144 24.484C88.6064 26.044 89.0024 27.856 89.0024 29.92C89.0024 31.984 88.6064 33.808 87.8144 35.392C87.0464 36.952 85.9904 38.164 84.6464 39.028C83.3024 39.868 81.8024 40.288 80.1464 40.288C78.7544 40.288 77.5184 40 76.4384 39.424C75.3824 38.848 74.5544 38.104 73.9544 37.192V49.576H67.7984V19.912H73.9544V22.756ZM82.7384 29.92C82.7384 28.384 82.3064 27.184 81.4424 26.32C80.6024 25.432 79.5584 24.988 78.3104 24.988C77.0864 24.988 76.0424 25.432 75.1784 26.32C74.3384 27.208 73.9184 28.42 73.9184 29.956C73.9184 31.492 74.3384 32.704 75.1784 33.592C76.0424 34.48 77.0864 34.924 78.3104 34.924C79.5344 34.924 80.5784 34.48 81.4424 33.592C82.3064 32.68 82.7384 31.456 82.7384 29.92ZM103.428 34.78V40H100.296C98.064 40 96.324 39.46 95.076 38.38C93.828 37.276 93.204 35.488 93.204 33.016V25.024H90.756V19.912H93.204V15.016H99.36V19.912H103.392V25.024H99.36V33.088C99.36 33.688 99.504 34.12 99.792 34.384C100.08 34.648 100.56 34.78 101.232 34.78H103.428ZM116.001 40.288C114.033 40.288 112.257 39.868 110.673 39.028C109.113 38.188 107.877 36.988 106.965 35.428C106.077 33.868 105.633 32.044 105.633 29.956C105.633 27.892 106.089 26.08 107.001 24.52C107.913 22.936 109.161 21.724 110.745 20.884C112.329 20.044 114.105 19.624 116.073 19.624C118.041 19.624 119.817 20.044 121.401 20.884C122.985 21.724 124.233 22.936 125.145 24.52C126.057 26.08 126.513 27.892 126.513 29.956C126.513 32.02 126.045 33.844 125.109 35.428C124.197 36.988 122.937 38.188 121.329 39.028C119.745 39.868 117.969 40.288 116.001 40.288ZM116.001 34.96C117.177 34.96 118.173 34.528 118.989 33.664C119.829 32.8 120.249 31.564 120.249 29.956C120.249 28.348 119.841 27.112 119.025 26.248C118.233 25.384 117.249 24.952 116.073 24.952C114.873 24.952 113.877 25.384 113.085 26.248C112.293 27.088 111.897 28.324 111.897 29.956C111.897 31.564 112.281 32.8 113.049 33.664C113.841 34.528 114.825 34.96 116.001 34.96ZM135.935 35.248H143.999V40H129.779V14.728H135.935V35.248ZM150.031 17.824C148.951 17.824 148.063 17.512 147.367 16.888C146.695 16.24 146.359 15.448 146.359 14.512C146.359 13.552 146.695 12.76 147.367 12.136C148.063 11.488 148.951 11.164 150.031 11.164C151.087 11.164 151.951 11.488 152.623 12.136C153.319 12.76 153.667 13.552 153.667 14.512C153.667 15.448 153.319 16.24 152.623 16.888C151.951 17.512 151.087 17.824 150.031 17.824ZM153.091 19.912V40H146.935V19.912H153.091ZM166.588 34.24L170.944 19.912H177.496L170.368 40H162.772L155.644 19.912H162.232L166.588 34.24ZM199.023 29.632C199.023 30.208 198.987 30.808 198.915 31.432H184.983C185.079 32.68 185.475 33.64 186.171 34.312C186.891 34.96 187.767 35.284 188.799 35.284C190.335 35.284 191.403 34.636 192.003 33.34H198.555C198.219 34.66 197.607 35.848 196.719 36.904C195.855 37.96 194.763 38.788 193.443 39.388C192.123 39.988 190.647 40.288 189.015 40.288C187.047 40.288 185.295 39.868 183.759 39.028C182.223 38.188 181.023 36.988 180.159 35.428C179.295 33.868 178.863 32.044 178.863 29.956C178.863 27.868 179.283 26.044 180.123 24.484C180.987 22.924 182.187 21.724 183.723 20.884C185.259 20.044 187.023 19.624 189.015 19.624C190.959 19.624 192.687 20.032 194.199 20.848C195.711 21.664 196.887 22.828 197.727 24.34C198.591 25.852 199.023 27.616 199.023 29.632ZM192.723 28.012C192.723 26.956 192.363 26.116 191.643 25.492C190.923 24.868 190.023 24.556 188.943 24.556C187.911 24.556 187.035 24.856 186.315 25.456C185.619 26.056 185.187 26.908 185.019 28.012H192.723Z" fill="#333333"/>
<ellipse cx="150" cy="14.5" rx="4" ry="3.5" fill="#56B5D2"/>
</svg>
