<svg width="376" height="377" viewBox="0 0 376 377" fill="none" xmlns="http://www.w3.org/2000/svg">
<rect width="376" height="377" rx="12" fill="white"/>
<path d="M188 276C166.882 276 146.306 269.314 129.221 256.902L146.855 232.631C158.814 241.32 173.217 246 188 246L188 276Z" fill="#8365D7"/>
<path d="M188 276C201.132 276 214.136 273.413 226.268 268.388C238.401 263.362 249.425 255.997 258.711 246.711C267.997 237.425 275.362 226.401 280.388 214.268C285.413 202.136 288 189.132 288 176C288 162.868 285.413 149.864 280.388 137.732C275.362 125.599 267.997 114.575 258.711 105.289C249.425 96.0035 238.401 88.6375 226.268 83.612C214.136 78.5866 201.132 76 188 76L188 106C197.193 106 206.295 107.811 214.788 111.328C223.281 114.846 230.997 120.002 237.497 126.503C243.998 133.003 249.154 140.719 252.672 149.212C256.189 157.705 258 166.807 258 176C258 185.193 256.189 194.295 252.672 202.788C249.154 211.281 243.998 218.997 237.497 225.497C230.997 231.998 223.281 237.154 214.788 240.672C206.295 244.189 197.193 246 188 246L188 276Z" fill="#DDDDDD"/>
<path d="M188 76C166.882 76 146.306 82.6855 129.221 95.0983C112.137 107.511 99.4201 125.014 92.8943 145.098C86.3686 165.183 86.3686 186.817 92.8943 206.902C99.4201 226.986 112.137 244.489 129.221 256.902L146.855 232.631C134.896 223.942 125.994 211.69 121.426 197.631C116.858 183.572 116.858 168.428 121.426 154.369C125.994 140.31 134.896 128.058 146.855 119.369C158.814 110.68 173.217 106 188 106V76Z" fill="#56B5D2"/>
<circle cx="26" cy="318" r="3" fill="#8365D7"/>
<path d="M41.158 323.168C40.4393 323.168 39.814 323.037 39.282 322.776C38.75 322.515 38.3393 322.151 38.05 321.684C37.7607 321.217 37.616 320.676 37.616 320.06H38.848C38.848 320.443 38.9367 320.797 39.114 321.124C39.2913 321.441 39.548 321.698 39.884 321.894C40.2293 322.081 40.654 322.174 41.158 322.174C41.8207 322.174 42.334 322.015 42.698 321.698C43.062 321.381 43.244 320.984 43.244 320.508C43.244 320.116 43.16 319.803 42.992 319.57C42.824 319.327 42.5953 319.131 42.306 318.982C42.026 318.833 41.6993 318.702 41.326 318.59C40.962 318.478 40.5793 318.352 40.178 318.212C39.422 317.951 38.862 317.629 38.498 317.246C38.134 316.854 37.952 316.345 37.952 315.72C37.9427 315.197 38.064 314.735 38.316 314.334C38.568 313.923 38.9227 313.606 39.38 313.382C39.8467 313.149 40.3973 313.032 41.032 313.032C41.6573 313.032 42.1987 313.149 42.656 313.382C43.1227 313.615 43.482 313.937 43.734 314.348C43.9953 314.759 44.1307 315.225 44.14 315.748H42.908C42.908 315.477 42.838 315.211 42.698 314.95C42.558 314.679 42.3433 314.46 42.054 314.292C41.774 314.124 41.4193 314.04 40.99 314.04C40.458 314.031 40.0193 314.166 39.674 314.446C39.338 314.726 39.17 315.113 39.17 315.608C39.17 316.028 39.2867 316.35 39.52 316.574C39.7627 316.798 40.0987 316.985 40.528 317.134C40.9573 317.274 41.452 317.437 42.012 317.624C42.4787 317.792 42.8987 317.988 43.272 318.212C43.6453 318.436 43.9347 318.725 44.14 319.08C44.3547 319.435 44.462 319.887 44.462 320.438C44.462 320.905 44.3407 321.348 44.098 321.768C43.8553 322.179 43.4867 322.515 42.992 322.776C42.5067 323.037 41.8953 323.168 41.158 323.168ZM46.8158 326.08L48.5378 322.328H48.1318L45.3738 316.056H46.6478L48.9438 321.46L51.3798 316.056H52.5978L48.0478 326.08H46.8158ZM56.0889 323.168C55.2582 323.168 54.5676 322.958 54.0169 322.538C53.4662 322.118 53.1442 321.549 53.0509 320.83H54.2549C54.3296 321.194 54.5209 321.511 54.8289 321.782C55.1462 322.043 55.5709 322.174 56.1029 322.174C56.5976 322.174 56.9616 322.071 57.1949 321.866C57.4282 321.651 57.5449 321.399 57.5449 321.11C57.5449 320.69 57.3909 320.41 57.0829 320.27C56.7842 320.13 56.3596 320.004 55.8089 319.892C55.4356 319.817 55.0622 319.71 54.6889 319.57C54.3156 319.43 54.0029 319.234 53.7509 318.982C53.4989 318.721 53.3729 318.38 53.3729 317.96C53.3729 317.353 53.5969 316.859 54.0449 316.476C54.5022 316.084 55.1182 315.888 55.8929 315.888C56.6302 315.888 57.2322 316.075 57.6989 316.448C58.1749 316.812 58.4502 317.335 58.5249 318.016H57.3629C57.3162 317.661 57.1622 317.386 56.9009 317.19C56.6489 316.985 56.3082 316.882 55.8789 316.882C55.4589 316.882 55.1322 316.971 54.8989 317.148C54.6749 317.325 54.5629 317.559 54.5629 317.848C54.5629 318.128 54.7076 318.347 54.9969 318.506C55.2956 318.665 55.6969 318.8 56.2009 318.912C56.6302 319.005 57.0362 319.122 57.4189 319.262C57.8109 319.393 58.1282 319.593 58.3709 319.864C58.6229 320.125 58.7489 320.508 58.7489 321.012C58.7582 321.637 58.5202 322.155 58.0349 322.566C57.5589 322.967 56.9102 323.168 56.0889 323.168ZM62.8584 323C62.2238 323 61.7244 322.846 61.3604 322.538C60.9964 322.23 60.8144 321.675 60.8144 320.872V317.05H59.6104V316.056H60.8144L60.9684 314.39H61.9904V316.056H64.0344V317.05H61.9904V320.872C61.9904 321.311 62.0791 321.609 62.2564 321.768C62.4338 321.917 62.7464 321.992 63.1944 321.992H63.9224V323H62.8584ZM68.4591 323.168C67.7964 323.168 67.2084 323.019 66.6951 322.72C66.1818 322.412 65.7758 321.987 65.4771 321.446C65.1878 320.905 65.0431 320.265 65.0431 319.528C65.0431 318.8 65.1878 318.165 65.4771 317.624C65.7664 317.073 66.1678 316.649 66.6811 316.35C67.2038 316.042 67.8058 315.888 68.4871 315.888C69.1591 315.888 69.7378 316.042 70.2231 316.35C70.7178 316.649 71.0958 317.045 71.3571 317.54C71.6184 318.035 71.7491 318.567 71.7491 319.136C71.7491 319.239 71.7444 319.341 71.7351 319.444C71.7351 319.547 71.7351 319.663 71.7351 319.794H66.2051C66.2331 320.326 66.3544 320.769 66.5691 321.124C66.7931 321.469 67.0684 321.731 67.3951 321.908C67.7311 322.085 68.0858 322.174 68.4591 322.174C68.9444 322.174 69.3504 322.062 69.6771 321.838C70.0038 321.614 70.2418 321.311 70.3911 320.928H71.5531C71.3664 321.572 71.0071 322.109 70.4751 322.538C69.9524 322.958 69.2804 323.168 68.4591 323.168ZM68.4591 316.882C67.8991 316.882 67.3998 317.055 66.9611 317.4C66.5318 317.736 66.2844 318.231 66.2191 318.884H70.5871C70.5591 318.259 70.3444 317.769 69.9431 317.414C69.5418 317.059 69.0471 316.882 68.4591 316.882ZM73.3078 323V316.056H74.3718L74.4558 317.064C74.6798 316.691 74.9785 316.401 75.3518 316.196C75.7251 315.991 76.1451 315.888 76.6118 315.888C77.1625 315.888 77.6338 316 78.0258 316.224C78.4271 316.448 78.7351 316.789 78.9498 317.246C79.1925 316.826 79.5238 316.495 79.9438 316.252C80.3731 316.009 80.8351 315.888 81.3298 315.888C82.1605 315.888 82.8231 316.14 83.3178 316.644C83.8125 317.139 84.0598 317.904 84.0598 318.94V323H82.8978V319.066C82.8978 318.347 82.7531 317.806 82.4638 317.442C82.1745 317.078 81.7591 316.896 81.2178 316.896C80.6578 316.896 80.1911 317.115 79.8178 317.554C79.4538 317.983 79.2718 318.599 79.2718 319.402V323H78.0958V319.066C78.0958 318.347 77.9511 317.806 77.6618 317.442C77.3725 317.078 76.9571 316.896 76.4158 316.896C75.8651 316.896 75.4031 317.115 75.0298 317.554C74.6658 317.983 74.4838 318.599 74.4838 319.402V323H73.3078Z" fill="#98A4B5"/>
<path d="M39.002 349V340.88L37.42 341.244V340.152L39.59 339.2H40.542V349H39.002ZM50.3164 349.168C49.3924 349.168 48.5851 348.958 47.8944 348.538C47.2037 348.118 46.6671 347.53 46.2844 346.774C45.9017 346.018 45.7104 345.136 45.7104 344.128C45.7104 343.129 45.9064 342.247 46.2984 341.482C46.6904 340.717 47.2457 340.119 47.9644 339.69C48.6924 339.251 49.5511 339.032 50.5404 339.032C51.6604 339.032 52.5937 339.303 53.3404 339.844C54.0871 340.385 54.5724 341.132 54.7964 342.084H53.1164C52.9671 341.561 52.6731 341.151 52.2344 340.852C51.7957 340.553 51.2311 340.404 50.5404 340.404C49.5137 340.404 48.7064 340.735 48.1184 341.398C47.5304 342.061 47.2364 342.975 47.2364 344.142C47.2364 345.309 47.5257 346.219 48.1044 346.872C48.6831 347.525 49.4531 347.852 50.4144 347.852C51.3851 347.852 52.1131 347.577 52.5984 347.026C53.0931 346.475 53.3824 345.743 53.4664 344.828H50.8064V343.68H54.9644V349H53.6064L53.4804 347.558C53.1537 348.071 52.7431 348.468 52.2484 348.748C51.7537 349.028 51.1097 349.168 50.3164 349.168ZM56.7655 349V339.2H60.4615C61.4788 339.2 62.2488 339.438 62.7715 339.914C63.2942 340.39 63.5555 340.987 63.5555 341.706C63.5555 342.331 63.3875 342.831 63.0515 343.204C62.7155 343.568 62.3095 343.815 61.8335 343.946C62.2068 344.021 62.5382 344.17 62.8275 344.394C63.1262 344.618 63.3595 344.898 63.5275 345.234C63.6955 345.57 63.7795 345.934 63.7795 346.326C63.7795 346.83 63.6535 347.287 63.4015 347.698C63.1588 348.099 62.7995 348.417 62.3235 348.65C61.8475 348.883 61.2642 349 60.5735 349H56.7655ZM58.2495 343.4H60.2795C60.8488 343.4 61.2828 343.269 61.5815 343.008C61.8802 342.737 62.0295 342.369 62.0295 341.902C62.0295 341.445 61.8802 341.081 61.5815 340.81C61.2922 340.539 60.8488 340.404 60.2515 340.404H58.2495V343.4ZM58.2495 347.782H60.3775C60.9748 347.782 61.4368 347.642 61.7635 347.362C62.0995 347.082 62.2675 346.69 62.2675 346.186C62.2675 345.682 62.0948 345.285 61.7495 344.996C61.4042 344.697 60.9375 344.548 60.3495 344.548H58.2495V347.782Z" fill="#333333"/>
<circle cx="160" cy="318" r="3" fill="#56B5D2"/>
<path d="M175.578 323.168C174.906 323.168 174.295 323.037 173.744 322.776C173.203 322.505 172.769 322.09 172.442 321.53C172.115 320.97 171.952 320.256 171.952 319.388V313.2H173.128V319.402C173.128 320.354 173.357 321.045 173.814 321.474C174.271 321.903 174.869 322.118 175.606 322.118C176.343 322.118 176.936 321.903 177.384 321.474C177.832 321.045 178.056 320.354 178.056 319.402V313.2H179.232V319.388C179.232 320.256 179.069 320.97 178.742 321.53C178.415 322.09 177.977 322.505 177.426 322.776C176.875 323.037 176.259 323.168 175.578 323.168ZM183.814 323.168C182.983 323.168 182.292 322.958 181.742 322.538C181.191 322.118 180.869 321.549 180.776 320.83H181.98C182.054 321.194 182.246 321.511 182.554 321.782C182.871 322.043 183.296 322.174 183.828 322.174C184.322 322.174 184.686 322.071 184.92 321.866C185.153 321.651 185.27 321.399 185.27 321.11C185.27 320.69 185.116 320.41 184.808 320.27C184.509 320.13 184.084 320.004 183.534 319.892C183.16 319.817 182.787 319.71 182.414 319.57C182.04 319.43 181.728 319.234 181.476 318.982C181.224 318.721 181.098 318.38 181.098 317.96C181.098 317.353 181.322 316.859 181.77 316.476C182.227 316.084 182.843 315.888 183.618 315.888C184.355 315.888 184.957 316.075 185.424 316.448C185.9 316.812 186.175 317.335 186.25 318.016H185.088C185.041 317.661 184.887 317.386 184.626 317.19C184.374 316.985 184.033 316.882 183.604 316.882C183.184 316.882 182.857 316.971 182.624 317.148C182.4 317.325 182.288 317.559 182.288 317.848C182.288 318.128 182.432 318.347 182.722 318.506C183.02 318.665 183.422 318.8 183.926 318.912C184.355 319.005 184.761 319.122 185.144 319.262C185.536 319.393 185.853 319.593 186.096 319.864C186.348 320.125 186.474 320.508 186.474 321.012C186.483 321.637 186.245 322.155 185.76 322.566C185.284 322.967 184.635 323.168 183.814 323.168ZM191.276 323.168C190.613 323.168 190.025 323.019 189.512 322.72C188.998 322.412 188.592 321.987 188.294 321.446C188.004 320.905 187.86 320.265 187.86 319.528C187.86 318.8 188.004 318.165 188.294 317.624C188.583 317.073 188.984 316.649 189.498 316.35C190.02 316.042 190.622 315.888 191.303 315.888C191.976 315.888 192.554 316.042 193.04 316.35C193.534 316.649 193.912 317.045 194.174 317.54C194.435 318.035 194.566 318.567 194.566 319.136C194.566 319.239 194.561 319.341 194.552 319.444C194.552 319.547 194.552 319.663 194.552 319.794H189.022C189.05 320.326 189.171 320.769 189.386 321.124C189.61 321.469 189.885 321.731 190.212 321.908C190.548 322.085 190.902 322.174 191.276 322.174C191.761 322.174 192.167 322.062 192.494 321.838C192.82 321.614 193.058 321.311 193.208 320.928H194.37C194.183 321.572 193.824 322.109 193.292 322.538C192.769 322.958 192.097 323.168 191.276 323.168ZM191.276 316.882C190.716 316.882 190.216 317.055 189.778 317.4C189.348 317.736 189.101 318.231 189.035 318.884H193.404C193.376 318.259 193.161 317.769 192.76 317.414C192.358 317.059 191.864 316.882 191.276 316.882ZM199.274 323.168C198.584 323.168 197.977 323.009 197.454 322.692C196.941 322.375 196.54 321.941 196.25 321.39C195.97 320.839 195.83 320.214 195.83 319.514C195.83 318.814 195.975 318.193 196.264 317.652C196.554 317.101 196.955 316.672 197.468 316.364C197.982 316.047 198.588 315.888 199.288 315.888C199.858 315.888 200.362 316.005 200.8 316.238C201.239 316.471 201.58 316.798 201.822 317.218V312.92H202.998V323H201.934L201.822 321.852C201.598 322.188 201.276 322.491 200.856 322.762C200.436 323.033 199.909 323.168 199.274 323.168ZM199.4 322.146C199.867 322.146 200.278 322.039 200.632 321.824C200.996 321.6 201.276 321.292 201.472 320.9C201.678 320.508 201.78 320.051 201.78 319.528C201.78 319.005 201.678 318.548 201.472 318.156C201.276 317.764 200.996 317.461 200.632 317.246C200.278 317.022 199.867 316.91 199.4 316.91C198.943 316.91 198.532 317.022 198.168 317.246C197.814 317.461 197.534 317.764 197.328 318.156C197.132 318.548 197.034 319.005 197.034 319.528C197.034 320.051 197.132 320.508 197.328 320.9C197.534 321.292 197.814 321.6 198.168 321.824C198.532 322.039 198.943 322.146 199.4 322.146Z" fill="#98A4B5"/>
<path d="M176.46 349V347.04H171.546V345.864L176.222 339.2H177.93V345.752H179.302V347.04H177.93V349H176.46ZM173.156 345.752H176.544V340.838L173.156 345.752ZM188.5 349.168C187.576 349.168 186.769 348.958 186.078 348.538C185.387 348.118 184.851 347.53 184.468 346.774C184.085 346.018 183.894 345.136 183.894 344.128C183.894 343.129 184.09 342.247 184.482 341.482C184.874 340.717 185.429 340.119 186.148 339.69C186.876 339.251 187.735 339.032 188.724 339.032C189.844 339.032 190.777 339.303 191.524 339.844C192.271 340.385 192.756 341.132 192.98 342.084H191.3C191.151 341.561 190.857 341.151 190.418 340.852C189.979 340.553 189.415 340.404 188.724 340.404C187.697 340.404 186.89 340.735 186.302 341.398C185.714 342.061 185.42 342.975 185.42 344.142C185.42 345.309 185.709 346.219 186.288 346.872C186.867 347.525 187.637 347.852 188.598 347.852C189.569 347.852 190.297 347.577 190.782 347.026C191.277 346.475 191.566 345.743 191.65 344.828H188.99V343.68H193.148V349H191.79L191.664 347.558C191.337 348.071 190.927 348.468 190.432 348.748C189.937 349.028 189.293 349.168 188.5 349.168ZM194.949 349V339.2H198.645C199.662 339.2 200.432 339.438 200.955 339.914C201.478 340.39 201.739 340.987 201.739 341.706C201.739 342.331 201.571 342.831 201.235 343.204C200.899 343.568 200.493 343.815 200.017 343.946C200.39 344.021 200.722 344.17 201.011 344.394C201.31 344.618 201.543 344.898 201.711 345.234C201.879 345.57 201.963 345.934 201.963 346.326C201.963 346.83 201.837 347.287 201.585 347.698C201.342 348.099 200.983 348.417 200.507 348.65C200.031 348.883 199.448 349 198.757 349H194.949ZM196.433 343.4H198.463C199.032 343.4 199.466 343.269 199.765 343.008C200.064 342.737 200.213 342.369 200.213 341.902C200.213 341.445 200.064 341.081 199.765 340.81C199.476 340.539 199.032 340.404 198.435 340.404H196.433V343.4ZM196.433 347.782H198.561C199.158 347.782 199.62 347.642 199.947 347.362C200.283 347.082 200.451 346.69 200.451 346.186C200.451 345.682 200.278 345.285 199.933 344.996C199.588 344.697 199.121 344.548 198.533 344.548H196.433V347.782Z" fill="#333333"/>
<circle cx="279" cy="318" r="3" fill="#98A4B5"/>
<path d="M291.036 323V313.2H297V314.166H292.212V317.61H296.286V318.562H292.212V323H291.036ZM298.445 323V316.056H299.509L299.607 317.386C299.821 316.929 300.148 316.565 300.587 316.294C301.025 316.023 301.567 315.888 302.211 315.888V317.12H301.889C301.478 317.12 301.1 317.195 300.755 317.344C300.409 317.484 300.134 317.727 299.929 318.072C299.723 318.417 299.621 318.893 299.621 319.5V323H298.445ZM306.393 323.168C305.73 323.168 305.142 323.019 304.629 322.72C304.115 322.412 303.709 321.987 303.411 321.446C303.121 320.905 302.977 320.265 302.977 319.528C302.977 318.8 303.121 318.165 303.411 317.624C303.7 317.073 304.101 316.649 304.615 316.35C305.137 316.042 305.739 315.888 306.421 315.888C307.093 315.888 307.671 316.042 308.157 316.35C308.651 316.649 309.029 317.045 309.291 317.54C309.552 318.035 309.683 318.567 309.683 319.136C309.683 319.239 309.678 319.341 309.669 319.444C309.669 319.547 309.669 319.663 309.669 319.794H304.139C304.167 320.326 304.288 320.769 304.503 321.124C304.727 321.469 305.002 321.731 305.329 321.908C305.665 322.085 306.019 322.174 306.393 322.174C306.878 322.174 307.284 322.062 307.611 321.838C307.937 321.614 308.175 321.311 308.325 320.928H309.487C309.3 321.572 308.941 322.109 308.409 322.538C307.886 322.958 307.214 323.168 306.393 323.168ZM306.393 316.882C305.833 316.882 305.333 317.055 304.895 317.4C304.465 317.736 304.218 318.231 304.153 318.884H308.521C308.493 318.259 308.278 317.769 307.877 317.414C307.475 317.059 306.981 316.882 306.393 316.882ZM314.363 323.168C313.701 323.168 313.113 323.019 312.599 322.72C312.086 322.412 311.68 321.987 311.381 321.446C311.092 320.905 310.947 320.265 310.947 319.528C310.947 318.8 311.092 318.165 311.381 317.624C311.671 317.073 312.072 316.649 312.585 316.35C313.108 316.042 313.71 315.888 314.391 315.888C315.063 315.888 315.642 316.042 316.127 316.35C316.622 316.649 317 317.045 317.261 317.54C317.523 318.035 317.653 318.567 317.653 319.136C317.653 319.239 317.649 319.341 317.639 319.444C317.639 319.547 317.639 319.663 317.639 319.794H312.109C312.137 320.326 312.259 320.769 312.473 321.124C312.697 321.469 312.973 321.731 313.299 321.908C313.635 322.085 313.99 322.174 314.363 322.174C314.849 322.174 315.255 322.062 315.581 321.838C315.908 321.614 316.146 321.311 316.295 320.928H317.457C317.271 321.572 316.911 322.109 316.379 322.538C315.857 322.958 315.185 323.168 314.363 323.168ZM314.363 316.882C313.803 316.882 313.304 317.055 312.865 317.4C312.436 317.736 312.189 318.231 312.123 318.884H316.491C316.463 318.259 316.249 317.769 315.847 317.414C315.446 317.059 314.951 316.882 314.363 316.882Z" fill="#98A4B5"/>
<path d="M294.41 349.168C293.719 349.168 293.122 349.047 292.618 348.804C292.114 348.552 291.713 348.211 291.414 347.782C291.125 347.343 290.947 346.849 290.882 346.298H292.338C292.431 346.765 292.665 347.152 293.038 347.46C293.411 347.759 293.873 347.908 294.424 347.908C294.835 347.908 295.189 347.81 295.488 347.614C295.787 347.409 296.02 347.138 296.188 346.802C296.356 346.466 296.44 346.088 296.44 345.668C296.44 345.005 296.253 344.478 295.88 344.086C295.507 343.685 295.035 343.484 294.466 343.484C293.981 343.484 293.565 343.601 293.22 343.834C292.875 344.058 292.623 344.343 292.464 344.688H291.05L291.89 339.2H297.182V340.502H293.01L292.506 343.12C292.721 342.877 293.015 342.677 293.388 342.518C293.771 342.35 294.2 342.266 294.676 342.266C295.339 342.266 295.908 342.42 296.384 342.728C296.86 343.027 297.224 343.433 297.476 343.946C297.737 344.459 297.868 345.029 297.868 345.654C297.868 346.307 297.728 346.9 297.448 347.432C297.168 347.964 296.767 348.389 296.244 348.706C295.731 349.014 295.119 349.168 294.41 349.168ZM307.404 349.168C306.48 349.168 305.673 348.958 304.982 348.538C304.292 348.118 303.755 347.53 303.372 346.774C302.99 346.018 302.798 345.136 302.798 344.128C302.798 343.129 302.994 342.247 303.386 341.482C303.778 340.717 304.334 340.119 305.052 339.69C305.78 339.251 306.639 339.032 307.628 339.032C308.748 339.032 309.682 339.303 310.428 339.844C311.175 340.385 311.66 341.132 311.884 342.084H310.204C310.055 341.561 309.761 341.151 309.322 340.852C308.884 340.553 308.319 340.404 307.628 340.404C306.602 340.404 305.794 340.735 305.206 341.398C304.618 342.061 304.324 342.975 304.324 344.142C304.324 345.309 304.614 346.219 305.192 346.872C305.771 347.525 306.541 347.852 307.502 347.852C308.473 347.852 309.201 347.577 309.686 347.026C310.181 346.475 310.47 345.743 310.554 344.828H307.894V343.68H312.052V349H310.694L310.568 347.558C310.242 348.071 309.831 348.468 309.336 348.748C308.842 349.028 308.198 349.168 307.404 349.168ZM313.853 349V339.2H317.549C318.567 339.2 319.337 339.438 319.859 339.914C320.382 340.39 320.643 340.987 320.643 341.706C320.643 342.331 320.475 342.831 320.139 343.204C319.803 343.568 319.397 343.815 318.921 343.946C319.295 344.021 319.626 344.17 319.915 344.394C320.214 344.618 320.447 344.898 320.615 345.234C320.783 345.57 320.867 345.934 320.867 346.326C320.867 346.83 320.741 347.287 320.489 347.698C320.247 348.099 319.887 348.417 319.411 348.65C318.935 348.883 318.352 349 317.661 349H313.853ZM315.337 343.4H317.367C317.937 343.4 318.371 343.269 318.669 343.008C318.968 342.737 319.117 342.369 319.117 341.902C319.117 341.445 318.968 341.081 318.669 340.81C318.38 340.539 317.937 340.404 317.339 340.404H315.337V343.4ZM315.337 347.782H317.465C318.063 347.782 318.525 347.642 318.851 347.362C319.187 347.082 319.355 346.69 319.355 346.186C319.355 345.682 319.183 345.285 318.837 344.996C318.492 344.697 318.025 344.548 317.437 344.548H315.337V347.782Z" fill="#333333"/>
<path d="M38.426 31.364V44H35.348V36.422L32.522 44H30.038L27.194 36.404V44H24.116V31.364H27.752L31.298 40.112L34.808 31.364H38.426ZM50.1074 38.816C50.1074 39.104 50.0894 39.404 50.0534 39.716H43.0874C43.1354 40.34 43.3334 40.82 43.6814 41.156C44.0414 41.48 44.4794 41.642 44.9954 41.642C45.7634 41.642 46.2974 41.318 46.5974 40.67H49.8734C49.7054 41.33 49.3994 41.924 48.9554 42.452C48.5234 42.98 47.9774 43.394 47.3174 43.694C46.6574 43.994 45.9194 44.144 45.1034 44.144C44.1194 44.144 43.2434 43.934 42.4754 43.514C41.7074 43.094 41.1074 42.494 40.6754 41.714C40.2434 40.934 40.0274 40.022 40.0274 38.978C40.0274 37.934 40.2374 37.022 40.6574 36.242C41.0894 35.462 41.6894 34.862 42.4574 34.442C43.2254 34.022 44.1074 33.812 45.1034 33.812C46.0754 33.812 46.9394 34.016 47.6954 34.424C48.4514 34.832 49.0394 35.414 49.4594 36.17C49.8914 36.926 50.1074 37.808 50.1074 38.816ZM46.9574 38.006C46.9574 37.478 46.7774 37.058 46.4174 36.746C46.0574 36.434 45.6074 36.278 45.0674 36.278C44.5514 36.278 44.1134 36.428 43.7534 36.728C43.4054 37.028 43.1894 37.454 43.1054 38.006H46.9574ZM64.5472 33.848C65.7952 33.848 66.7852 34.226 67.5172 34.982C68.2612 35.738 68.6332 36.788 68.6332 38.132V44H65.5732V38.546C65.5732 37.898 65.3992 37.4 65.0512 37.052C64.7152 36.692 64.2472 36.512 63.6472 36.512C63.0472 36.512 62.5732 36.692 62.2252 37.052C61.8892 37.4 61.7212 37.898 61.7212 38.546V44H58.6612V38.546C58.6612 37.898 58.4872 37.4 58.1392 37.052C57.8032 36.692 57.3352 36.512 56.7352 36.512C56.1352 36.512 55.6612 36.692 55.3132 37.052C54.9772 37.4 54.8092 37.898 54.8092 38.546V44H51.7312V33.956H54.8092V35.216C55.1212 34.796 55.5292 34.466 56.0332 34.226C56.5372 33.974 57.1072 33.848 57.7432 33.848C58.4992 33.848 59.1712 34.01 59.7592 34.334C60.3592 34.658 60.8272 35.12 61.1632 35.72C61.5112 35.168 61.9852 34.718 62.5852 34.37C63.1852 34.022 63.8392 33.848 64.5472 33.848ZM75.3579 44.144C74.3739 44.144 73.4859 43.934 72.6939 43.514C71.9139 43.094 71.2959 42.494 70.8399 41.714C70.3959 40.934 70.1739 40.022 70.1739 38.978C70.1739 37.946 70.4019 37.04 70.8579 36.26C71.3139 35.468 71.9379 34.862 72.7299 34.442C73.5219 34.022 74.4099 33.812 75.3939 33.812C76.3779 33.812 77.2659 34.022 78.0579 34.442C78.8499 34.862 79.4739 35.468 79.9299 36.26C80.3859 37.04 80.6139 37.946 80.6139 38.978C80.6139 40.01 80.3799 40.922 79.9119 41.714C79.4559 42.494 78.8259 43.094 78.0219 43.514C77.2299 43.934 76.3419 44.144 75.3579 44.144ZM75.3579 41.48C75.9459 41.48 76.4439 41.264 76.8519 40.832C77.2719 40.4 77.4819 39.782 77.4819 38.978C77.4819 38.174 77.2779 37.556 76.8699 37.124C76.4739 36.692 75.9819 36.476 75.3939 36.476C74.7939 36.476 74.2959 36.692 73.8999 37.124C73.5039 37.544 73.3059 38.162 73.3059 38.978C73.3059 39.782 73.4979 40.4 73.8819 40.832C74.2779 41.264 74.7699 41.48 75.3579 41.48ZM85.3249 35.63C85.6849 35.078 86.1349 34.646 86.6749 34.334C87.2149 34.01 87.8149 33.848 88.4749 33.848V37.106H87.6289C86.8609 37.106 86.2849 37.274 85.9009 37.61C85.5169 37.934 85.3249 38.51 85.3249 39.338V44H82.2469V33.956H85.3249V35.63ZM100.206 33.956L93.9061 48.77H90.5941L92.8981 43.658L88.8121 33.956H92.2501L94.5721 40.238L96.8761 33.956H100.206Z" fill="#333333"/>
<path d="M347 36C346.448 36 346 36.4477 346 37C346 37.5523 346.448 38 347 38C347.552 38 348 37.5523 348 37C348 36.4477 347.552 36 347 36Z" stroke="#98A4B5" stroke-width="2" stroke-linecap="round" stroke-linejoin="round"/>
<path d="M340 36C339.448 36 339 36.4477 339 37C339 37.5523 339.448 38 340 38C340.552 38 341 37.5523 341 37C341 36.4477 340.552 36 340 36Z" stroke="#98A4B5" stroke-width="2" stroke-linecap="round" stroke-linejoin="round"/>
<path d="M333 36C332.448 36 332 36.4477 332 37C332 37.5523 332.448 38 333 38C333.552 38 334 37.5523 334 37C334 36.4477 333.552 36 333 36Z" stroke="#98A4B5" stroke-width="2" stroke-linecap="round" stroke-linejoin="round"/>
</svg>
