<svg width="376" height="386" viewBox="0 0 376 386" fill="none" xmlns="http://www.w3.org/2000/svg">
<rect width="376" height="386" rx="12" fill="white"/>
<path d="M29.688 44.126C28.764 44.126 27.936 43.976 27.204 43.676C26.472 43.376 25.884 42.932 25.44 42.344C25.008 41.756 24.78 41.048 24.756 40.22H28.032C28.08 40.688 28.242 41.048 28.518 41.3C28.794 41.54 29.154 41.66 29.598 41.66C30.054 41.66 30.414 41.558 30.678 41.354C30.942 41.138 31.074 40.844 31.074 40.472C31.074 40.16 30.966 39.902 30.75 39.698C30.546 39.494 30.288 39.326 29.976 39.194C29.676 39.062 29.244 38.912 28.68 38.744C27.864 38.492 27.198 38.24 26.682 37.988C26.166 37.736 25.722 37.364 25.35 36.872C24.978 36.38 24.792 35.738 24.792 34.946C24.792 33.77 25.218 32.852 26.07 32.192C26.922 31.52 28.032 31.184 29.4 31.184C30.792 31.184 31.914 31.52 32.766 32.192C33.618 32.852 34.074 33.776 34.134 34.964H30.804C30.78 34.556 30.63 34.238 30.354 34.01C30.078 33.77 29.724 33.65 29.292 33.65C28.92 33.65 28.62 33.752 28.392 33.956C28.164 34.148 28.05 34.43 28.05 34.802C28.05 35.21 28.242 35.528 28.626 35.756C29.01 35.984 29.61 36.23 30.426 36.494C31.242 36.77 31.902 37.034 32.406 37.286C32.922 37.538 33.366 37.904 33.738 38.384C34.11 38.864 34.296 39.482 34.296 40.238C34.296 40.958 34.11 41.612 33.738 42.2C33.378 42.788 32.85 43.256 32.154 43.604C31.458 43.952 30.636 44.126 29.688 44.126ZM45.6582 38.816C45.6582 39.104 45.6402 39.404 45.6042 39.716H38.6382C38.6862 40.34 38.8842 40.82 39.2322 41.156C39.5922 41.48 40.0302 41.642 40.5462 41.642C41.3142 41.642 41.8482 41.318 42.1482 40.67H45.4242C45.2562 41.33 44.9502 41.924 44.5062 42.452C44.0742 42.98 43.5282 43.394 42.8682 43.694C42.2082 43.994 41.4702 44.144 40.6542 44.144C39.6702 44.144 38.7942 43.934 38.0262 43.514C37.2582 43.094 36.6582 42.494 36.2262 41.714C35.7942 40.934 35.5782 40.022 35.5782 38.978C35.5782 37.934 35.7882 37.022 36.2082 36.242C36.6402 35.462 37.2402 34.862 38.0082 34.442C38.7762 34.022 39.6582 33.812 40.6542 33.812C41.6262 33.812 42.4902 34.016 43.2462 34.424C44.0022 34.832 44.5902 35.414 45.0102 36.17C45.4422 36.926 45.6582 37.808 45.6582 38.816ZM42.5082 38.006C42.5082 37.478 42.3282 37.058 41.9682 36.746C41.6082 36.434 41.1582 36.278 40.6182 36.278C40.1022 36.278 39.6642 36.428 39.3042 36.728C38.9562 37.028 38.7402 37.454 38.6562 38.006H42.5082ZM50.36 35.63C50.72 35.078 51.17 34.646 51.71 34.334C52.25 34.01 52.85 33.848 53.51 33.848V37.106H52.664C51.896 37.106 51.32 37.274 50.936 37.61C50.552 37.934 50.36 38.51 50.36 39.338V44H47.282V33.956H50.36V35.63ZM59.4992 41.12L61.6772 33.956H64.9532L61.3892 44H57.5912L54.0272 33.956H57.3212L59.4992 41.12ZM75.7168 38.816C75.7168 39.104 75.6988 39.404 75.6628 39.716H68.6968C68.7448 40.34 68.9428 40.82 69.2908 41.156C69.6508 41.48 70.0888 41.642 70.6048 41.642C71.3728 41.642 71.9068 41.318 72.2068 40.67H75.4828C75.3148 41.33 75.0088 41.924 74.5648 42.452C74.1328 42.98 73.5868 43.394 72.9268 43.694C72.2668 43.994 71.5288 44.144 70.7128 44.144C69.7288 44.144 68.8528 43.934 68.0848 43.514C67.3168 43.094 66.7168 42.494 66.2848 41.714C65.8528 40.934 65.6368 40.022 65.6368 38.978C65.6368 37.934 65.8468 37.022 66.2668 36.242C66.6988 35.462 67.2988 34.862 68.0668 34.442C68.8348 34.022 69.7168 33.812 70.7128 33.812C71.6848 33.812 72.5488 34.016 73.3048 34.424C74.0608 34.832 74.6488 35.414 75.0688 36.17C75.5008 36.926 75.7168 37.808 75.7168 38.816ZM72.5668 38.006C72.5668 37.478 72.3868 37.058 72.0268 36.746C71.6668 36.434 71.2168 36.278 70.6768 36.278C70.1608 36.278 69.7228 36.428 69.3628 36.728C69.0148 37.028 68.7988 37.454 68.7148 38.006H72.5668ZM80.4186 35.63C80.7786 35.078 81.2286 34.646 81.7686 34.334C82.3086 34.01 82.9086 33.848 83.5686 33.848V37.106H82.7226C81.9546 37.106 81.3786 37.274 80.9946 37.61C80.6106 37.934 80.4186 38.51 80.4186 39.338V44H77.3406V33.956H80.4186V35.63ZM93.4263 44.126C92.5023 44.126 91.6743 43.976 90.9423 43.676C90.2103 43.376 89.6223 42.932 89.1783 42.344C88.7463 41.756 88.5183 41.048 88.4943 40.22H91.7703C91.8183 40.688 91.9803 41.048 92.2563 41.3C92.5323 41.54 92.8923 41.66 93.3363 41.66C93.7923 41.66 94.1523 41.558 94.4163 41.354C94.6803 41.138 94.8123 40.844 94.8123 40.472C94.8123 40.16 94.7043 39.902 94.4883 39.698C94.2843 39.494 94.0263 39.326 93.7143 39.194C93.4143 39.062 92.9823 38.912 92.4183 38.744C91.6023 38.492 90.9363 38.24 90.4203 37.988C89.9043 37.736 89.4603 37.364 89.0883 36.872C88.7163 36.38 88.5303 35.738 88.5303 34.946C88.5303 33.77 88.9563 32.852 89.8083 32.192C90.6603 31.52 91.7703 31.184 93.1383 31.184C94.5303 31.184 95.6523 31.52 96.5043 32.192C97.3563 32.852 97.8123 33.776 97.8723 34.964H94.5423C94.5183 34.556 94.3683 34.238 94.0923 34.01C93.8163 33.77 93.4623 33.65 93.0303 33.65C92.6583 33.65 92.3583 33.752 92.1303 33.956C91.9023 34.148 91.7883 34.43 91.7883 34.802C91.7883 35.21 91.9803 35.528 92.3643 35.756C92.7483 35.984 93.3483 36.23 94.1643 36.494C94.9803 36.77 95.6403 37.034 96.1443 37.286C96.6603 37.538 97.1043 37.904 97.4763 38.384C97.8483 38.864 98.0343 39.482 98.0343 40.238C98.0343 40.958 97.8483 41.612 97.4763 42.2C97.1163 42.788 96.5883 43.256 95.8923 43.604C95.1963 43.952 94.3743 44.126 93.4263 44.126ZM105.527 41.39V44H103.961C102.845 44 101.975 43.73 101.351 43.19C100.727 42.638 100.415 41.744 100.415 40.508V36.512H99.1905V33.956H100.415V31.508H103.493V33.956H105.509V36.512H103.493V40.544C103.493 40.844 103.565 41.06 103.709 41.192C103.853 41.324 104.093 41.39 104.429 41.39H105.527ZM106.629 38.96C106.629 37.928 106.821 37.022 107.205 36.242C107.601 35.462 108.135 34.862 108.807 34.442C109.479 34.022 110.229 33.812 111.057 33.812C111.765 33.812 112.383 33.956 112.911 34.244C113.451 34.532 113.865 34.91 114.153 35.378V33.956H117.231V44H114.153V42.578C113.853 43.046 113.433 43.424 112.893 43.712C112.365 44 111.747 44.144 111.039 44.144C110.223 44.144 109.479 43.934 108.807 43.514C108.135 43.082 107.601 42.476 107.205 41.696C106.821 40.904 106.629 39.992 106.629 38.96ZM114.153 38.978C114.153 38.21 113.937 37.604 113.505 37.16C113.085 36.716 112.569 36.494 111.957 36.494C111.345 36.494 110.823 36.716 110.391 37.16C109.971 37.592 109.761 38.192 109.761 38.96C109.761 39.728 109.971 40.34 110.391 40.796C110.823 41.24 111.345 41.462 111.957 41.462C112.569 41.462 113.085 41.24 113.505 40.796C113.937 40.352 114.153 39.746 114.153 38.978ZM125.056 41.39V44H123.49C122.374 44 121.504 43.73 120.88 43.19C120.256 42.638 119.944 41.744 119.944 40.508V36.512H118.72V33.956H119.944V31.508H123.022V33.956H125.038V36.512H123.022V40.544C123.022 40.844 123.094 41.06 123.238 41.192C123.382 41.324 123.622 41.39 123.958 41.39H125.056ZM136.688 33.956V44H133.61V42.632C133.298 43.076 132.872 43.436 132.332 43.712C131.804 43.976 131.216 44.108 130.568 44.108C129.8 44.108 129.122 43.94 128.534 43.604C127.946 43.256 127.49 42.758 127.166 42.11C126.842 41.462 126.68 40.7 126.68 39.824V33.956H129.74V39.41C129.74 40.082 129.914 40.604 130.262 40.976C130.61 41.348 131.078 41.534 131.666 41.534C132.266 41.534 132.74 41.348 133.088 40.976C133.436 40.604 133.61 40.082 133.61 39.41V33.956H136.688ZM142.985 44.144C142.109 44.144 141.329 43.994 140.645 43.694C139.961 43.394 139.421 42.986 139.025 42.47C138.629 41.942 138.407 41.354 138.359 40.706H141.401C141.437 41.054 141.599 41.336 141.887 41.552C142.175 41.768 142.529 41.876 142.949 41.876C143.333 41.876 143.627 41.804 143.831 41.66C144.047 41.504 144.155 41.306 144.155 41.066C144.155 40.778 144.005 40.568 143.705 40.436C143.405 40.292 142.919 40.136 142.247 39.968C141.527 39.8 140.927 39.626 140.447 39.446C139.967 39.254 139.553 38.96 139.205 38.564C138.857 38.156 138.683 37.61 138.683 36.926C138.683 36.35 138.839 35.828 139.151 35.36C139.475 34.88 139.943 34.502 140.555 34.226C141.179 33.95 141.917 33.812 142.769 33.812C144.029 33.812 145.019 34.124 145.739 34.748C146.471 35.372 146.891 36.2 146.999 37.232H144.155C144.107 36.884 143.951 36.608 143.687 36.404C143.435 36.2 143.099 36.098 142.679 36.098C142.319 36.098 142.043 36.17 141.851 36.314C141.659 36.446 141.563 36.632 141.563 36.872C141.563 37.16 141.713 37.376 142.013 37.52C142.325 37.664 142.805 37.808 143.453 37.952C144.197 38.144 144.803 38.336 145.271 38.528C145.739 38.708 146.147 39.008 146.495 39.428C146.855 39.836 147.041 40.388 147.053 41.084C147.053 41.672 146.885 42.2 146.549 42.668C146.225 43.124 145.751 43.484 145.127 43.748C144.515 44.012 143.801 44.144 142.985 44.144Z" fill="#333333"/>
<rect x="24" y="70" width="58" height="26" rx="5" fill="#56B5D2"/>
<path d="M32.364 88L35.976 78.2H37.6L41.184 88H39.616L38.776 85.606H34.772L33.932 88H32.364ZM35.192 84.43H38.356L36.774 79.964L35.192 84.43ZM45.4292 88.168C44.7478 88.168 44.1365 88.014 43.5952 87.706C43.0632 87.398 42.6432 86.9733 42.3352 86.432C42.0365 85.8813 41.8872 85.2467 41.8872 84.528C41.8872 83.8093 42.0365 83.1793 42.3352 82.638C42.6432 82.0873 43.0632 81.658 43.5952 81.35C44.1365 81.042 44.7478 80.888 45.4292 80.888C46.2878 80.888 47.0065 81.112 47.5852 81.56C48.1732 82.008 48.5512 82.6147 48.7192 83.38H47.1652C47.0718 82.9973 46.8665 82.6987 46.5492 82.484C46.2318 82.2693 45.8585 82.162 45.4292 82.162C45.0652 82.162 44.7292 82.2553 44.4212 82.442C44.1132 82.6193 43.8658 82.8853 43.6792 83.24C43.4925 83.5853 43.3992 84.0147 43.3992 84.528C43.3992 85.0413 43.4925 85.4753 43.6792 85.83C43.8658 86.1753 44.1132 86.4413 44.4212 86.628C44.7292 86.8147 45.0652 86.908 45.4292 86.908C45.8585 86.908 46.2318 86.8007 46.5492 86.586C46.8665 86.3713 47.0718 86.068 47.1652 85.676H48.7192C48.5605 86.4227 48.1872 87.0247 47.5992 87.482C47.0112 87.9393 46.2878 88.168 45.4292 88.168ZM53.1039 88C52.4226 88 51.8812 87.8367 51.4799 87.51C51.0786 87.174 50.8779 86.5813 50.8779 85.732V82.302H49.6879V81.056H50.8779L51.0599 79.292H52.3619V81.056H54.3219V82.302H52.3619V85.732C52.3619 86.1147 52.4412 86.3807 52.5999 86.53C52.7679 86.67 53.0526 86.74 53.4539 86.74H54.2519V88H53.1039ZM56.6921 79.74C56.4121 79.74 56.1787 79.656 55.9921 79.488C55.8147 79.3107 55.7261 79.0913 55.7261 78.83C55.7261 78.5687 55.8147 78.354 55.9921 78.186C56.1787 78.0087 56.4121 77.92 56.6921 77.92C56.9721 77.92 57.2007 78.0087 57.3781 78.186C57.5647 78.354 57.6581 78.5687 57.6581 78.83C57.6581 79.0913 57.5647 79.3107 57.3781 79.488C57.2007 79.656 56.9721 79.74 56.6921 79.74ZM55.9501 88V81.056H57.4341V88H55.9501ZM61.3391 88L58.7351 81.056H60.2891L62.2211 86.586L64.1531 81.056H65.6931L63.1031 88H61.3391ZM69.8051 88.168C69.1238 88.168 68.5171 88.0187 67.9851 87.72C67.4625 87.412 67.0518 86.9873 66.7531 86.446C66.4545 85.9047 66.3051 85.2747 66.3051 84.556C66.3051 83.828 66.4498 83.1887 66.7391 82.638C67.0378 82.0873 67.4485 81.658 67.9711 81.35C68.5031 81.042 69.1191 80.888 69.8191 80.888C70.5005 80.888 71.0931 81.042 71.5971 81.35C72.1011 81.6487 72.4931 82.05 72.7731 82.554C73.0531 83.058 73.1931 83.6133 73.1931 84.22C73.1931 84.3133 73.1885 84.416 73.1791 84.528C73.1791 84.6307 73.1745 84.7473 73.1651 84.878H67.7611C67.8078 85.55 68.0271 86.0633 68.4191 86.418C68.8205 86.7633 69.2825 86.936 69.8051 86.936C70.2251 86.936 70.5751 86.8427 70.8551 86.656C71.1445 86.46 71.3591 86.1987 71.4991 85.872H72.9831C72.7965 86.5253 72.4231 87.0713 71.8631 87.51C71.3125 87.9487 70.6265 88.168 69.8051 88.168ZM69.8051 82.106C69.3105 82.106 68.8718 82.2553 68.4891 82.554C68.1065 82.8433 67.8731 83.282 67.7891 83.87H71.7091C71.6811 83.3287 71.4898 82.8993 71.1351 82.582C70.7805 82.2647 70.3371 82.106 69.8051 82.106Z" fill="white"/>
<path d="M29.334 329.168C28.3727 329.168 27.542 328.958 26.842 328.538C26.1513 328.109 25.6147 327.516 25.232 326.76C24.8493 325.995 24.658 325.108 24.658 324.1C24.658 323.101 24.8493 322.224 25.232 321.468C25.6147 320.703 26.1513 320.105 26.842 319.676C27.542 319.247 28.3727 319.032 29.334 319.032C30.454 319.032 31.364 319.303 32.064 319.844C32.7733 320.376 33.226 321.123 33.422 322.084H32.12C31.9707 321.477 31.6627 320.992 31.196 320.628C30.7387 320.255 30.118 320.068 29.334 320.068C28.634 320.068 28.0227 320.231 27.5 320.558C26.9773 320.875 26.5713 321.337 26.282 321.944C26.002 322.541 25.862 323.26 25.862 324.1C25.862 324.94 26.002 325.663 26.282 326.27C26.5713 326.867 26.9773 327.329 27.5 327.656C28.0227 327.973 28.634 328.132 29.334 328.132C30.118 328.132 30.7387 327.955 31.196 327.6C31.6627 327.236 31.9707 326.755 32.12 326.158H33.422C33.226 327.101 32.7733 327.838 32.064 328.37C31.364 328.902 30.454 329.168 29.334 329.168ZM38.2062 329.168C37.5528 329.168 36.9648 329.019 36.4422 328.72C35.9195 328.421 35.5042 328.001 35.1962 327.46C34.8975 326.909 34.7482 326.265 34.7482 325.528C34.7482 324.791 34.9022 324.151 35.2102 323.61C35.5182 323.059 35.9335 322.635 36.4562 322.336C36.9882 322.037 37.5808 321.888 38.2342 321.888C38.8875 321.888 39.4755 322.037 39.9982 322.336C40.5208 322.635 40.9315 323.059 41.2302 323.61C41.5382 324.151 41.6922 324.791 41.6922 325.528C41.6922 326.265 41.5382 326.909 41.2302 327.46C40.9222 328.001 40.5022 328.421 39.9702 328.72C39.4475 329.019 38.8595 329.168 38.2062 329.168ZM38.2062 328.16C38.6075 328.16 38.9808 328.062 39.3262 327.866C39.6715 327.67 39.9515 327.376 40.1662 326.984C40.3808 326.592 40.4882 326.107 40.4882 325.528C40.4882 324.949 40.3808 324.464 40.1662 324.072C39.9608 323.68 39.6855 323.386 39.3402 323.19C38.9948 322.994 38.6262 322.896 38.2342 322.896C37.8328 322.896 37.4595 322.994 37.1142 323.19C36.7688 323.386 36.4888 323.68 36.2742 324.072C36.0595 324.464 35.9522 324.949 35.9522 325.528C35.9522 326.107 36.0595 326.592 36.2742 326.984C36.4888 327.376 36.7642 327.67 37.1002 327.866C37.4455 328.062 37.8142 328.16 38.2062 328.16ZM45.8613 329.168C45.04 329.168 44.3867 328.921 43.9013 328.426C43.416 327.922 43.1733 327.152 43.1733 326.116V322.056H44.3493V325.99C44.3493 327.437 44.942 328.16 46.1273 328.16C46.734 328.16 47.2333 327.945 47.6253 327.516C48.0267 327.077 48.2273 326.457 48.2273 325.654V322.056H49.4033V329H48.3393L48.2553 327.754C48.0407 328.193 47.7187 328.538 47.2893 328.79C46.8693 329.042 46.3933 329.168 45.8613 329.168ZM51.339 329V322.056H52.403L52.473 323.302C52.697 322.863 53.019 322.518 53.439 322.266C53.859 322.014 54.335 321.888 54.867 321.888C55.6884 321.888 56.3417 322.14 56.827 322.644C57.3217 323.139 57.569 323.904 57.569 324.94V329H56.393V325.066C56.393 323.619 55.7957 322.896 54.601 322.896C54.0037 322.896 53.5044 323.115 53.103 323.554C52.711 323.983 52.515 324.599 52.515 325.402V329H51.339ZM62.0948 329C61.4601 329 60.9608 328.846 60.5968 328.538C60.2328 328.23 60.0508 327.675 60.0508 326.872V323.05H58.8468V322.056H60.0508L60.2048 320.39H61.2268V322.056H63.2708V323.05H61.2268V326.872C61.2268 327.311 61.3154 327.609 61.4928 327.768C61.6701 327.917 61.9828 327.992 62.4308 327.992H63.1588V329H62.0948ZM64.7648 329V322.056H65.8288L65.9268 323.386C66.1415 322.929 66.4682 322.565 66.9068 322.294C67.3455 322.023 67.8868 321.888 68.5308 321.888V323.12H68.2088C67.7982 323.12 67.4202 323.195 67.0748 323.344C66.7295 323.484 66.4542 323.727 66.2488 324.072C66.0435 324.417 65.9408 324.893 65.9408 325.5V329H64.7648ZM70.6068 332.08L72.3288 328.328H71.9228L69.1648 322.056H70.4388L72.7348 327.46L75.1708 322.056H76.3888L71.8388 332.08H70.6068Z" fill="#98A4B5"/>
<path d="M24.994 359V349.2H26.478V359H24.994ZM28.4107 359V352.056H29.7267L29.8387 353.274C30.0533 352.845 30.366 352.509 30.7767 352.266C31.1967 352.014 31.6773 351.888 32.2187 351.888C33.0587 351.888 33.7167 352.149 34.1927 352.672C34.678 353.195 34.9207 353.974 34.9207 355.01V359H33.4507V355.164C33.4507 353.82 32.9 353.148 31.7987 353.148C31.248 353.148 30.7907 353.344 30.4267 353.736C30.072 354.128 29.8947 354.688 29.8947 355.416V359H28.4107ZM39.8325 359.168C39.1605 359.168 38.5678 359.009 38.0545 358.692C37.5411 358.375 37.1398 357.941 36.8505 357.39C36.5611 356.839 36.4165 356.214 36.4165 355.514C36.4165 354.814 36.5611 354.193 36.8505 353.652C37.1398 353.101 37.5411 352.672 38.0545 352.364C38.5771 352.047 39.1745 351.888 39.8465 351.888C40.3971 351.888 40.8778 351.995 41.2885 352.21C41.7085 352.425 42.0351 352.728 42.2685 353.12V348.92H43.7525V359H42.4225L42.2685 357.922C42.0445 358.249 41.7365 358.538 41.3445 358.79C40.9525 359.042 40.4485 359.168 39.8325 359.168ZM40.0985 357.88C40.7331 357.88 41.2511 357.661 41.6525 357.222C42.0631 356.783 42.2685 356.219 42.2685 355.528C42.2685 354.828 42.0631 354.263 41.6525 353.834C41.2511 353.395 40.7331 353.176 40.0985 353.176C39.4638 353.176 38.9411 353.395 38.5305 353.834C38.1198 354.263 37.9145 354.828 37.9145 355.528C37.9145 355.985 38.0078 356.391 38.1945 356.746C38.3811 357.101 38.6378 357.381 38.9645 357.586C39.3005 357.782 39.6785 357.88 40.0985 357.88ZM48.8715 359.168C48.2089 359.168 47.6115 359.019 47.0795 358.72C46.5569 358.412 46.1415 357.987 45.8335 357.446C45.5255 356.895 45.3715 356.256 45.3715 355.528C45.3715 354.8 45.5255 354.165 45.8335 353.624C46.1509 353.073 46.5755 352.649 47.1075 352.35C47.6395 352.042 48.2322 351.888 48.8855 351.888C49.5482 351.888 50.1409 352.042 50.6635 352.35C51.1955 352.649 51.6155 353.073 51.9235 353.624C52.2409 354.165 52.3995 354.8 52.3995 355.528C52.3995 356.256 52.2409 356.895 51.9235 357.446C51.6155 357.987 51.1955 358.412 50.6635 358.72C50.1315 359.019 49.5342 359.168 48.8715 359.168ZM48.8715 357.894C49.2262 357.894 49.5529 357.805 49.8515 357.628C50.1595 357.451 50.4069 357.189 50.5935 356.844C50.7802 356.489 50.8735 356.051 50.8735 355.528C50.8735 355.005 50.7802 354.571 50.5935 354.226C50.4162 353.871 50.1735 353.605 49.8655 353.428C49.5669 353.251 49.2402 353.162 48.8855 353.162C48.5309 353.162 48.1995 353.251 47.8915 353.428C47.5929 353.605 47.3502 353.871 47.1635 354.226C46.9769 354.571 46.8835 355.005 46.8835 355.528C46.8835 356.051 46.9769 356.489 47.1635 356.844C47.3502 357.189 47.5929 357.451 47.8915 357.628C48.1902 357.805 48.5169 357.894 48.8715 357.894ZM54.0044 359V352.056H55.3204L55.4324 353.274C55.6471 352.845 55.9597 352.509 56.3704 352.266C56.7904 352.014 57.2711 351.888 57.8124 351.888C58.6524 351.888 59.3104 352.149 59.7864 352.672C60.2717 353.195 60.5144 353.974 60.5144 355.01V359H59.0444V355.164C59.0444 353.82 58.4937 353.148 57.3924 353.148C56.8417 353.148 56.3844 353.344 56.0204 353.736C55.6657 354.128 55.4884 354.688 55.4884 355.416V359H54.0044ZM65.5102 359.168C64.8289 359.168 64.2222 359.019 63.6902 358.72C63.1676 358.412 62.7569 357.987 62.4582 357.446C62.1596 356.905 62.0102 356.275 62.0102 355.556C62.0102 354.828 62.1549 354.189 62.4442 353.638C62.7429 353.087 63.1536 352.658 63.6762 352.35C64.2082 352.042 64.8242 351.888 65.5242 351.888C66.2056 351.888 66.7982 352.042 67.3022 352.35C67.8062 352.649 68.1982 353.05 68.4782 353.554C68.7582 354.058 68.8982 354.613 68.8982 355.22C68.8982 355.313 68.8936 355.416 68.8842 355.528C68.8842 355.631 68.8796 355.747 68.8702 355.878H63.4662C63.5129 356.55 63.7322 357.063 64.1242 357.418C64.5256 357.763 64.9876 357.936 65.5102 357.936C65.9302 357.936 66.2802 357.843 66.5602 357.656C66.8496 357.46 67.0642 357.199 67.2042 356.872H68.6882C68.5016 357.525 68.1282 358.071 67.5682 358.51C67.0176 358.949 66.3316 359.168 65.5102 359.168ZM65.5102 353.106C65.0156 353.106 64.5769 353.255 64.1942 353.554C63.8116 353.843 63.5782 354.282 63.4942 354.87H67.4142C67.3862 354.329 67.1949 353.899 66.8402 353.582C66.4856 353.265 66.0422 353.106 65.5102 353.106ZM73.21 359.168C72.3327 359.168 71.6093 358.953 71.04 358.524C70.4707 358.095 70.144 357.525 70.06 356.816H71.558C71.6327 357.133 71.81 357.409 72.09 357.642C72.37 357.866 72.7387 357.978 73.196 357.978C73.644 357.978 73.9707 357.885 74.176 357.698C74.3813 357.511 74.484 357.297 74.484 357.054C74.484 356.699 74.3393 356.461 74.05 356.34C73.77 356.209 73.378 356.093 72.874 355.99C72.482 355.906 72.09 355.794 71.698 355.654C71.3153 355.514 70.9933 355.318 70.732 355.066C70.48 354.805 70.354 354.455 70.354 354.016C70.354 353.409 70.5873 352.905 71.054 352.504C71.5207 352.093 72.174 351.888 73.014 351.888C73.7887 351.888 74.414 352.075 74.89 352.448C75.3753 352.821 75.66 353.349 75.744 354.03H74.316C74.2693 353.731 74.1293 353.498 73.896 353.33C73.672 353.162 73.3687 353.078 72.986 353.078C72.6127 353.078 72.3233 353.157 72.118 353.316C71.9127 353.465 71.81 353.661 71.81 353.904C71.81 354.147 71.95 354.338 72.23 354.478C72.5193 354.618 72.8973 354.744 73.364 354.856C73.8307 354.959 74.26 355.08 74.652 355.22C75.0533 355.351 75.3753 355.547 75.618 355.808C75.8607 356.069 75.982 356.452 75.982 356.956C75.9913 357.591 75.744 358.118 75.24 358.538C74.7453 358.958 74.0687 359.168 73.21 359.168ZM78.4421 350.74C78.1621 350.74 77.9287 350.656 77.7421 350.488C77.5647 350.311 77.4761 350.091 77.4761 349.83C77.4761 349.569 77.5647 349.354 77.7421 349.186C77.9287 349.009 78.1621 348.92 78.4421 348.92C78.7221 348.92 78.9507 349.009 79.1281 349.186C79.3147 349.354 79.4081 349.569 79.4081 349.83C79.4081 350.091 79.3147 350.311 79.1281 350.488C78.9507 350.656 78.7221 350.74 78.4421 350.74ZM77.7001 359V352.056H79.1841V359H77.7001ZM83.4951 359.168C82.9071 359.168 82.4217 359.07 82.0391 358.874C81.6564 358.678 81.3717 358.421 81.1851 358.104C80.9984 357.777 80.9051 357.423 80.9051 357.04C80.9051 356.368 81.1664 355.836 81.6891 355.444C82.2117 355.052 82.9584 354.856 83.9291 354.856H85.7491V354.73C85.7491 354.189 85.5997 353.783 85.3011 353.512C85.0117 353.241 84.6337 353.106 84.1671 353.106C83.7564 353.106 83.3971 353.209 83.0891 353.414C82.7904 353.61 82.6084 353.904 82.5431 354.296H81.0591C81.1057 353.792 81.2737 353.363 81.5631 353.008C81.8617 352.644 82.2351 352.369 82.6831 352.182C83.1404 351.986 83.6397 351.888 84.1811 351.888C85.1517 351.888 85.9031 352.145 86.4351 352.658C86.9671 353.162 87.2331 353.853 87.2331 354.73V359H85.9451L85.8191 357.81C85.6231 358.193 85.3384 358.515 84.9651 358.776C84.5917 359.037 84.1017 359.168 83.4951 359.168ZM83.7891 357.964C84.1904 357.964 84.5264 357.871 84.7971 357.684C85.0771 357.488 85.2917 357.231 85.4411 356.914C85.5997 356.597 85.6977 356.247 85.7351 355.864H84.0831C83.4951 355.864 83.0751 355.967 82.8231 356.172C82.5804 356.377 82.4591 356.634 82.4591 356.942C82.4591 357.259 82.5757 357.511 82.8091 357.698C83.0517 357.875 83.3784 357.964 83.7891 357.964Z" fill="#333333"/>
<path d="M145.036 329V319.2H148.046C149.773 319.2 151.042 319.639 151.854 320.516C152.675 321.393 153.086 322.597 153.086 324.128C153.086 325.631 152.675 326.821 151.854 327.698C151.042 328.566 149.773 329 148.046 329H145.036ZM146.212 328.02H148.018C148.97 328.02 149.726 327.866 150.286 327.558C150.855 327.241 151.261 326.793 151.504 326.214C151.747 325.626 151.868 324.931 151.868 324.128C151.868 323.307 151.747 322.602 151.504 322.014C151.261 321.426 150.855 320.973 150.286 320.656C149.726 320.339 148.97 320.18 148.018 320.18H146.212V328.02ZM157.878 329.168C157.225 329.168 156.637 329.019 156.114 328.72C155.591 328.421 155.176 328.001 154.868 327.46C154.569 326.909 154.42 326.265 154.42 325.528C154.42 324.791 154.574 324.151 154.882 323.61C155.19 323.059 155.605 322.635 156.128 322.336C156.66 322.037 157.253 321.888 157.906 321.888C158.559 321.888 159.147 322.037 159.67 322.336C160.193 322.635 160.603 323.059 160.902 323.61C161.21 324.151 161.364 324.791 161.364 325.528C161.364 326.265 161.21 326.909 160.902 327.46C160.594 328.001 160.174 328.421 159.642 328.72C159.119 329.019 158.531 329.168 157.878 329.168ZM157.878 328.16C158.279 328.16 158.653 328.062 158.998 327.866C159.343 327.67 159.623 327.376 159.838 326.984C160.053 326.592 160.16 326.107 160.16 325.528C160.16 324.949 160.053 324.464 159.838 324.072C159.633 323.68 159.357 323.386 159.012 323.19C158.667 322.994 158.298 322.896 157.906 322.896C157.505 322.896 157.131 322.994 156.786 323.19C156.441 323.386 156.161 323.68 155.946 324.072C155.731 324.464 155.624 324.949 155.624 325.528C155.624 326.107 155.731 326.592 155.946 326.984C156.161 327.376 156.436 327.67 156.772 327.866C157.117 328.062 157.486 328.16 157.878 328.16ZM162.999 329V322.056H164.063L164.147 323.064C164.371 322.691 164.67 322.401 165.043 322.196C165.417 321.991 165.837 321.888 166.303 321.888C166.854 321.888 167.325 322 167.717 322.224C168.119 322.448 168.427 322.789 168.641 323.246C168.884 322.826 169.215 322.495 169.635 322.252C170.065 322.009 170.527 321.888 171.021 321.888C171.852 321.888 172.515 322.14 173.009 322.644C173.504 323.139 173.751 323.904 173.751 324.94V329H172.589V325.066C172.589 324.347 172.445 323.806 172.155 323.442C171.866 323.078 171.451 322.896 170.909 322.896C170.349 322.896 169.883 323.115 169.509 323.554C169.145 323.983 168.963 324.599 168.963 325.402V329H167.787V325.066C167.787 324.347 167.643 323.806 167.353 323.442C167.064 323.078 166.649 322.896 166.107 322.896C165.557 322.896 165.095 323.115 164.721 323.554C164.357 323.983 164.175 324.599 164.175 325.402V329H162.999ZM177.833 329.168C177.254 329.168 176.773 329.07 176.391 328.874C176.008 328.678 175.723 328.417 175.537 328.09C175.35 327.763 175.257 327.409 175.257 327.026C175.257 326.317 175.527 325.771 176.069 325.388C176.61 325.005 177.347 324.814 178.281 324.814H180.157V324.73C180.157 324.123 179.998 323.666 179.681 323.358C179.363 323.041 178.939 322.882 178.407 322.882C177.949 322.882 177.553 322.999 177.217 323.232C176.89 323.456 176.685 323.787 176.601 324.226H175.397C175.443 323.722 175.611 323.297 175.901 322.952C176.199 322.607 176.568 322.345 177.007 322.168C177.445 321.981 177.912 321.888 178.407 321.888C179.377 321.888 180.105 322.149 180.591 322.672C181.085 323.185 181.333 323.871 181.333 324.73V329H180.283L180.213 327.754C180.017 328.146 179.727 328.482 179.345 328.762C178.971 329.033 178.467 329.168 177.833 329.168ZM178.015 328.174C178.463 328.174 178.845 328.057 179.163 327.824C179.489 327.591 179.737 327.287 179.905 326.914C180.073 326.541 180.157 326.149 180.157 325.738V325.724H178.379C177.688 325.724 177.198 325.845 176.909 326.088C176.629 326.321 176.489 326.615 176.489 326.97C176.489 327.334 176.619 327.628 176.881 327.852C177.151 328.067 177.529 328.174 178.015 328.174ZM183.811 320.516C183.578 320.516 183.382 320.441 183.223 320.292C183.074 320.133 182.999 319.937 182.999 319.704C182.999 319.48 183.074 319.293 183.223 319.144C183.382 318.995 183.578 318.92 183.811 318.92C184.035 318.92 184.226 318.995 184.385 319.144C184.544 319.293 184.623 319.48 184.623 319.704C184.623 319.937 184.544 320.133 184.385 320.292C184.226 320.441 184.035 320.516 183.811 320.516ZM183.223 329V322.056H184.399V329H183.223ZM186.446 329V322.056H187.51L187.58 323.302C187.804 322.863 188.126 322.518 188.546 322.266C188.966 322.014 189.442 321.888 189.974 321.888C190.796 321.888 191.449 322.14 191.934 322.644C192.429 323.139 192.676 323.904 192.676 324.94V329H191.5V325.066C191.5 323.619 190.903 322.896 189.708 322.896C189.111 322.896 188.612 323.115 188.21 323.554C187.818 323.983 187.622 324.599 187.622 325.402V329H186.446Z" fill="#98A4B5"/>
<path d="M146.366 359L144.336 352.056H145.512L146.982 357.502L148.606 352.056H149.936L151.574 357.502L153.03 352.056H154.22L152.19 359H150.986L149.278 353.274L147.57 359H146.366ZM158.383 359.168C157.72 359.168 157.132 359.019 156.619 358.72C156.106 358.412 155.7 357.987 155.401 357.446C155.112 356.905 154.967 356.265 154.967 355.528C154.967 354.8 155.112 354.165 155.401 353.624C155.69 353.073 156.092 352.649 156.605 352.35C157.128 352.042 157.73 351.888 158.411 351.888C159.083 351.888 159.662 352.042 160.147 352.35C160.642 352.649 161.02 353.045 161.281 353.54C161.542 354.035 161.673 354.567 161.673 355.136C161.673 355.239 161.668 355.341 161.659 355.444C161.659 355.547 161.659 355.663 161.659 355.794H156.129C156.157 356.326 156.278 356.769 156.493 357.124C156.717 357.469 156.992 357.731 157.319 357.908C157.655 358.085 158.01 358.174 158.383 358.174C158.868 358.174 159.274 358.062 159.601 357.838C159.928 357.614 160.166 357.311 160.315 356.928H161.477C161.29 357.572 160.931 358.109 160.399 358.538C159.876 358.958 159.204 359.168 158.383 359.168ZM158.383 352.882C157.823 352.882 157.324 353.055 156.885 353.4C156.456 353.736 156.208 354.231 156.143 354.884H160.511C160.483 354.259 160.268 353.769 159.867 353.414C159.466 353.059 158.971 352.882 158.383 352.882ZM166.942 359.168C166.372 359.168 165.864 359.051 165.416 358.818C164.977 358.585 164.641 358.258 164.408 357.838L164.296 359H163.232V348.92H164.408V353.204C164.632 352.868 164.949 352.565 165.36 352.294C165.78 352.023 166.312 351.888 166.956 351.888C167.646 351.888 168.248 352.047 168.762 352.364C169.275 352.681 169.672 353.115 169.952 353.666C170.241 354.217 170.386 354.842 170.386 355.542C170.386 356.242 170.241 356.867 169.952 357.418C169.672 357.959 169.27 358.389 168.748 358.706C168.234 359.014 167.632 359.168 166.942 359.168ZM166.816 358.146C167.282 358.146 167.693 358.039 168.048 357.824C168.402 357.6 168.682 357.292 168.888 356.9C169.093 356.508 169.196 356.051 169.196 355.528C169.196 355.005 169.093 354.548 168.888 354.156C168.682 353.764 168.402 353.461 168.048 353.246C167.693 353.022 167.282 352.91 166.816 352.91C166.349 352.91 165.938 353.022 165.584 353.246C165.229 353.461 164.949 353.764 164.744 354.156C164.538 354.548 164.436 355.005 164.436 355.528C164.436 356.051 164.538 356.508 164.744 356.9C164.949 357.292 165.229 357.6 165.584 357.824C165.938 358.039 166.349 358.146 166.816 358.146ZM174.683 359.168C173.852 359.168 173.161 358.958 172.611 358.538C172.06 358.118 171.738 357.549 171.645 356.83H172.849C172.923 357.194 173.115 357.511 173.423 357.782C173.74 358.043 174.165 358.174 174.697 358.174C175.191 358.174 175.555 358.071 175.789 357.866C176.022 357.651 176.139 357.399 176.139 357.11C176.139 356.69 175.985 356.41 175.677 356.27C175.378 356.13 174.953 356.004 174.403 355.892C174.029 355.817 173.656 355.71 173.283 355.57C172.909 355.43 172.597 355.234 172.345 354.982C172.093 354.721 171.967 354.38 171.967 353.96C171.967 353.353 172.191 352.859 172.639 352.476C173.096 352.084 173.712 351.888 174.487 351.888C175.224 351.888 175.826 352.075 176.293 352.448C176.769 352.812 177.044 353.335 177.119 354.016H175.957C175.91 353.661 175.756 353.386 175.495 353.19C175.243 352.985 174.902 352.882 174.473 352.882C174.053 352.882 173.726 352.971 173.493 353.148C173.269 353.325 173.157 353.559 173.157 353.848C173.157 354.128 173.301 354.347 173.591 354.506C173.889 354.665 174.291 354.8 174.795 354.912C175.224 355.005 175.63 355.122 176.013 355.262C176.405 355.393 176.722 355.593 176.965 355.864C177.217 356.125 177.343 356.508 177.343 357.012C177.352 357.637 177.114 358.155 176.629 358.566C176.153 358.967 175.504 359.168 174.683 359.168ZM179.737 350.516C179.503 350.516 179.307 350.441 179.149 350.292C178.999 350.133 178.925 349.937 178.925 349.704C178.925 349.48 178.999 349.293 179.149 349.144C179.307 348.995 179.503 348.92 179.737 348.92C179.961 348.92 180.152 348.995 180.311 349.144C180.469 349.293 180.549 349.48 180.549 349.704C180.549 349.937 180.469 350.133 180.311 350.292C180.152 350.441 179.961 350.516 179.737 350.516ZM179.149 359V352.056H180.325V359H179.149ZM185.116 359C184.482 359 183.982 358.846 183.618 358.538C183.254 358.23 183.072 357.675 183.072 356.872V353.05H181.868V352.056H183.072L183.226 350.39H184.248V352.056H186.292V353.05H184.248V356.872C184.248 357.311 184.337 357.609 184.514 357.768C184.692 357.917 185.004 357.992 185.452 357.992H186.18V359H185.116ZM190.717 359.168C190.054 359.168 189.466 359.019 188.953 358.72C188.44 358.412 188.034 357.987 187.735 357.446C187.446 356.905 187.301 356.265 187.301 355.528C187.301 354.8 187.446 354.165 187.735 353.624C188.024 353.073 188.426 352.649 188.939 352.35C189.462 352.042 190.064 351.888 190.745 351.888C191.417 351.888 191.996 352.042 192.481 352.35C192.976 352.649 193.354 353.045 193.615 353.54C193.876 354.035 194.007 354.567 194.007 355.136C194.007 355.239 194.002 355.341 193.993 355.444C193.993 355.547 193.993 355.663 193.993 355.794H188.463C188.491 356.326 188.612 356.769 188.827 357.124C189.051 357.469 189.326 357.731 189.653 357.908C189.989 358.085 190.344 358.174 190.717 358.174C191.202 358.174 191.608 358.062 191.935 357.838C192.262 357.614 192.5 357.311 192.649 356.928H193.811C193.624 357.572 193.265 358.109 192.733 358.538C192.21 358.958 191.538 359.168 190.717 359.168ZM190.717 352.882C190.157 352.882 189.658 353.055 189.219 353.4C188.79 353.736 188.542 354.231 188.477 354.884H192.845C192.817 354.259 192.602 353.769 192.201 353.414C191.8 353.059 191.305 352.882 190.717 352.882ZM195.972 359.07C195.738 359.07 195.542 358.995 195.384 358.846C195.234 358.687 195.16 358.496 195.16 358.272C195.16 358.048 195.234 357.861 195.384 357.712C195.542 357.553 195.738 357.474 195.972 357.474C196.196 357.474 196.382 357.553 196.532 357.712C196.69 357.861 196.77 358.048 196.77 358.272C196.77 358.496 196.69 358.687 196.532 358.846C196.382 358.995 196.196 359.07 195.972 359.07ZM201.492 359.168C200.829 359.168 200.232 359.019 199.7 358.72C199.177 358.412 198.762 357.987 198.454 357.446C198.155 356.895 198.006 356.256 198.006 355.528C198.006 354.8 198.155 354.165 198.454 353.624C198.762 353.073 199.177 352.649 199.7 352.35C200.232 352.042 200.829 351.888 201.492 351.888C202.313 351.888 203.004 352.103 203.564 352.532C204.133 352.961 204.493 353.535 204.642 354.254H203.438C203.345 353.825 203.116 353.493 202.752 353.26C202.388 353.017 201.963 352.896 201.478 352.896C201.086 352.896 200.717 352.994 200.372 353.19C200.027 353.386 199.747 353.68 199.532 354.072C199.317 354.464 199.21 354.949 199.21 355.528C199.21 356.107 199.317 356.592 199.532 356.984C199.747 357.376 200.027 357.675 200.372 357.88C200.717 358.076 201.086 358.174 201.478 358.174C201.963 358.174 202.388 358.057 202.752 357.824C203.116 357.581 203.345 357.241 203.438 356.802H204.642C204.502 357.502 204.147 358.071 203.578 358.51C203.009 358.949 202.313 359.168 201.492 359.168ZM209.448 359.168C208.795 359.168 208.207 359.019 207.684 358.72C207.162 358.421 206.746 358.001 206.438 357.46C206.14 356.909 205.99 356.265 205.99 355.528C205.99 354.791 206.144 354.151 206.452 353.61C206.76 353.059 207.176 352.635 207.698 352.336C208.23 352.037 208.823 351.888 209.476 351.888C210.13 351.888 210.718 352.037 211.24 352.336C211.763 352.635 212.174 353.059 212.472 353.61C212.78 354.151 212.934 354.791 212.934 355.528C212.934 356.265 212.78 356.909 212.472 357.46C212.164 358.001 211.744 358.421 211.212 358.72C210.69 359.019 210.102 359.168 209.448 359.168ZM209.448 358.16C209.85 358.16 210.223 358.062 210.568 357.866C210.914 357.67 211.194 357.376 211.408 356.984C211.623 356.592 211.73 356.107 211.73 355.528C211.73 354.949 211.623 354.464 211.408 354.072C211.203 353.68 210.928 353.386 210.582 353.19C210.237 352.994 209.868 352.896 209.476 352.896C209.075 352.896 208.702 352.994 208.356 353.19C208.011 353.386 207.731 353.68 207.516 354.072C207.302 354.464 207.194 354.949 207.194 355.528C207.194 356.107 207.302 356.592 207.516 356.984C207.731 357.376 208.006 357.67 208.342 357.866C208.688 358.062 209.056 358.16 209.448 358.16ZM214.57 359V352.056H215.634L215.718 353.064C215.942 352.691 216.24 352.401 216.614 352.196C216.987 351.991 217.407 351.888 217.874 351.888C218.424 351.888 218.896 352 219.288 352.224C219.689 352.448 219.997 352.789 220.212 353.246C220.454 352.826 220.786 352.495 221.206 352.252C221.635 352.009 222.097 351.888 222.592 351.888C223.422 351.888 224.085 352.14 224.58 352.644C225.074 353.139 225.322 353.904 225.322 354.94V359H224.16V355.066C224.16 354.347 224.015 353.806 223.726 353.442C223.436 353.078 223.021 352.896 222.48 352.896C221.92 352.896 221.453 353.115 221.08 353.554C220.716 353.983 220.534 354.599 220.534 355.402V359H219.358V355.066C219.358 354.347 219.213 353.806 218.924 353.442C218.634 353.078 218.219 352.896 217.678 352.896C217.127 352.896 216.665 353.115 216.292 353.554C215.928 353.983 215.746 354.599 215.746 355.402V359H214.57Z" fill="#56B5D2"/>
<path d="M280.158 329.168C279.439 329.168 278.814 329.037 278.282 328.776C277.75 328.515 277.339 328.151 277.05 327.684C276.761 327.217 276.616 326.676 276.616 326.06H277.848C277.848 326.443 277.937 326.797 278.114 327.124C278.291 327.441 278.548 327.698 278.884 327.894C279.229 328.081 279.654 328.174 280.158 328.174C280.821 328.174 281.334 328.015 281.698 327.698C282.062 327.381 282.244 326.984 282.244 326.508C282.244 326.116 282.16 325.803 281.992 325.57C281.824 325.327 281.595 325.131 281.306 324.982C281.026 324.833 280.699 324.702 280.326 324.59C279.962 324.478 279.579 324.352 279.178 324.212C278.422 323.951 277.862 323.629 277.498 323.246C277.134 322.854 276.952 322.345 276.952 321.72C276.943 321.197 277.064 320.735 277.316 320.334C277.568 319.923 277.923 319.606 278.38 319.382C278.847 319.149 279.397 319.032 280.032 319.032C280.657 319.032 281.199 319.149 281.656 319.382C282.123 319.615 282.482 319.937 282.734 320.348C282.995 320.759 283.131 321.225 283.14 321.748H281.908C281.908 321.477 281.838 321.211 281.698 320.95C281.558 320.679 281.343 320.46 281.054 320.292C280.774 320.124 280.419 320.04 279.99 320.04C279.458 320.031 279.019 320.166 278.674 320.446C278.338 320.726 278.17 321.113 278.17 321.608C278.17 322.028 278.287 322.35 278.52 322.574C278.763 322.798 279.099 322.985 279.528 323.134C279.957 323.274 280.452 323.437 281.012 323.624C281.479 323.792 281.899 323.988 282.272 324.212C282.645 324.436 282.935 324.725 283.14 325.08C283.355 325.435 283.462 325.887 283.462 326.438C283.462 326.905 283.341 327.348 283.098 327.768C282.855 328.179 282.487 328.515 281.992 328.776C281.507 329.037 280.895 329.168 280.158 329.168ZM287.804 329C287.169 329 286.67 328.846 286.306 328.538C285.942 328.23 285.76 327.675 285.76 326.872V323.05H284.556V322.056H285.76L285.914 320.39H286.936V322.056H288.98V323.05H286.936V326.872C286.936 327.311 287.024 327.609 287.202 327.768C287.379 327.917 287.692 327.992 288.14 327.992H288.868V329H287.804ZM293.446 329.168C292.793 329.168 292.205 329.019 291.682 328.72C291.16 328.421 290.744 328.001 290.436 327.46C290.138 326.909 289.988 326.265 289.988 325.528C289.988 324.791 290.142 324.151 290.45 323.61C290.758 323.059 291.174 322.635 291.696 322.336C292.228 322.037 292.821 321.888 293.474 321.888C294.128 321.888 294.716 322.037 295.238 322.336C295.761 322.635 296.172 323.059 296.47 323.61C296.778 324.151 296.932 324.791 296.932 325.528C296.932 326.265 296.778 326.909 296.47 327.46C296.162 328.001 295.742 328.421 295.21 328.72C294.688 329.019 294.1 329.168 293.446 329.168ZM293.446 328.16C293.848 328.16 294.221 328.062 294.566 327.866C294.912 327.67 295.192 327.376 295.406 326.984C295.621 326.592 295.728 326.107 295.728 325.528C295.728 324.949 295.621 324.464 295.406 324.072C295.201 323.68 294.926 323.386 294.58 323.19C294.235 322.994 293.866 322.896 293.474 322.896C293.073 322.896 292.7 322.994 292.354 323.19C292.009 323.386 291.729 323.68 291.514 324.072C291.3 324.464 291.192 324.949 291.192 325.528C291.192 326.107 291.3 326.592 291.514 326.984C291.729 327.376 292.004 327.67 292.34 327.866C292.686 328.062 293.054 328.16 293.446 328.16ZM298.568 329V322.056H299.632L299.73 323.386C299.944 322.929 300.271 322.565 300.71 322.294C301.148 322.023 301.69 321.888 302.334 321.888V323.12H302.012C301.601 323.12 301.223 323.195 300.878 323.344C300.532 323.484 300.257 323.727 300.052 324.072C299.846 324.417 299.744 324.893 299.744 325.5V329H298.568ZM305.964 329.168C305.385 329.168 304.904 329.07 304.522 328.874C304.139 328.678 303.854 328.417 303.668 328.09C303.481 327.763 303.388 327.409 303.388 327.026C303.388 326.317 303.658 325.771 304.2 325.388C304.741 325.005 305.478 324.814 306.412 324.814H308.288V324.73C308.288 324.123 308.129 323.666 307.812 323.358C307.494 323.041 307.07 322.882 306.538 322.882C306.08 322.882 305.684 322.999 305.348 323.232C305.021 323.456 304.816 323.787 304.732 324.226H303.528C303.574 323.722 303.742 323.297 304.032 322.952C304.33 322.607 304.699 322.345 305.138 322.168C305.576 321.981 306.043 321.888 306.538 321.888C307.508 321.888 308.236 322.149 308.722 322.672C309.216 323.185 309.464 323.871 309.464 324.73V329H308.414L308.344 327.754C308.148 328.146 307.858 328.482 307.476 328.762C307.102 329.033 306.598 329.168 305.964 329.168ZM306.146 328.174C306.594 328.174 306.976 328.057 307.294 327.824C307.62 327.591 307.868 327.287 308.036 326.914C308.204 326.541 308.288 326.149 308.288 325.738V325.724H306.51C305.819 325.724 305.329 325.845 305.04 326.088C304.76 326.321 304.62 326.615 304.62 326.97C304.62 327.334 304.75 327.628 305.012 327.852C305.282 328.067 305.66 328.174 306.146 328.174ZM313.972 326.816C313.58 326.816 313.22 326.765 312.894 326.662L312.194 327.32C312.296 327.395 312.422 327.46 312.572 327.516C312.73 327.563 312.954 327.609 313.244 327.656C313.533 327.693 313.939 327.735 314.462 327.782C315.395 327.847 316.062 328.062 316.464 328.426C316.865 328.79 317.066 329.266 317.066 329.854C317.066 330.255 316.954 330.638 316.73 331.002C316.515 331.366 316.179 331.665 315.722 331.898C315.274 332.131 314.695 332.248 313.986 332.248C313.36 332.248 312.805 332.164 312.32 331.996C311.834 331.837 311.456 331.59 311.186 331.254C310.915 330.927 310.78 330.512 310.78 330.008C310.78 329.747 310.85 329.462 310.99 329.154C311.13 328.855 311.391 328.571 311.774 328.3C311.568 328.216 311.391 328.127 311.242 328.034C311.102 327.931 310.971 327.819 310.85 327.698V327.376L312.04 326.2C311.489 325.733 311.214 325.117 311.214 324.352C311.214 323.895 311.321 323.479 311.536 323.106C311.75 322.733 312.063 322.439 312.474 322.224C312.884 322 313.384 321.888 313.972 321.888C314.373 321.888 314.737 321.944 315.064 322.056H317.626V322.938L316.324 322.994C316.594 323.386 316.73 323.839 316.73 324.352C316.73 324.809 316.618 325.225 316.394 325.598C316.179 325.971 315.866 326.27 315.456 326.494C315.054 326.709 314.56 326.816 313.972 326.816ZM313.972 325.85C314.466 325.85 314.858 325.724 315.148 325.472C315.446 325.211 315.596 324.837 315.596 324.352C315.596 323.876 315.446 323.512 315.148 323.26C314.858 322.999 314.466 322.868 313.972 322.868C313.468 322.868 313.066 322.999 312.768 323.26C312.478 323.512 312.334 323.876 312.334 324.352C312.334 324.837 312.478 325.211 312.768 325.472C313.066 325.724 313.468 325.85 313.972 325.85ZM311.928 329.896C311.928 330.363 312.124 330.708 312.516 330.932C312.908 331.165 313.398 331.282 313.986 331.282C314.564 331.282 315.026 331.156 315.372 330.904C315.726 330.652 315.904 330.316 315.904 329.896C315.904 329.597 315.782 329.336 315.54 329.112C315.297 328.897 314.849 328.771 314.196 328.734C313.682 328.697 313.239 328.65 312.866 328.594C312.483 328.799 312.231 329.019 312.11 329.252C311.988 329.495 311.928 329.709 311.928 329.896ZM321.801 329.168C321.138 329.168 320.55 329.019 320.037 328.72C319.524 328.412 319.118 327.987 318.819 327.446C318.53 326.905 318.385 326.265 318.385 325.528C318.385 324.8 318.53 324.165 318.819 323.624C319.108 323.073 319.51 322.649 320.023 322.35C320.546 322.042 321.148 321.888 321.829 321.888C322.501 321.888 323.08 322.042 323.565 322.35C324.06 322.649 324.438 323.045 324.699 323.54C324.96 324.035 325.091 324.567 325.091 325.136C325.091 325.239 325.086 325.341 325.077 325.444C325.077 325.547 325.077 325.663 325.077 325.794H319.547C319.575 326.326 319.696 326.769 319.911 327.124C320.135 327.469 320.41 327.731 320.737 327.908C321.073 328.085 321.428 328.174 321.801 328.174C322.286 328.174 322.692 328.062 323.019 327.838C323.346 327.614 323.584 327.311 323.733 326.928H324.895C324.708 327.572 324.349 328.109 323.817 328.538C323.294 328.958 322.622 329.168 321.801 329.168ZM321.801 322.882C321.241 322.882 320.742 323.055 320.303 323.4C319.874 323.736 319.626 324.231 319.561 324.884H323.929C323.901 324.259 323.686 323.769 323.285 323.414C322.884 323.059 322.389 322.882 321.801 322.882Z" fill="#98A4B5"/>
<path d="M278.002 359V350.88L276.42 351.244V350.152L278.59 349.2H279.542V359H278.002ZM285.453 359.168C284.566 359.168 283.801 358.958 283.157 358.538C282.522 358.109 282.032 357.516 281.687 356.76C281.351 355.995 281.183 355.108 281.183 354.1C281.183 353.092 281.351 352.21 281.687 351.454C282.032 350.689 282.522 350.096 283.157 349.676C283.801 349.247 284.566 349.032 285.453 349.032C286.34 349.032 287.1 349.247 287.735 349.676C288.37 350.096 288.855 350.689 289.191 351.454C289.536 352.21 289.709 353.092 289.709 354.1C289.709 355.108 289.536 355.995 289.191 356.76C288.855 357.516 288.37 358.109 287.735 358.538C287.1 358.958 286.34 359.168 285.453 359.168ZM285.453 357.838C285.985 357.838 286.456 357.689 286.867 357.39C287.287 357.091 287.614 356.662 287.847 356.102C288.08 355.542 288.197 354.875 288.197 354.1C288.197 353.325 288.08 352.658 287.847 352.098C287.614 351.538 287.287 351.109 286.867 350.81C286.456 350.511 285.985 350.362 285.453 350.362C284.912 350.362 284.436 350.511 284.025 350.81C283.614 351.109 283.292 351.538 283.059 352.098C282.826 352.658 282.709 353.325 282.709 354.1C282.709 354.875 282.826 355.542 283.059 356.102C283.292 356.662 283.614 357.091 284.025 357.39C284.436 357.689 284.912 357.838 285.453 357.838ZM299.146 359.168C298.222 359.168 297.415 358.958 296.724 358.538C296.034 358.118 295.497 357.53 295.114 356.774C294.732 356.018 294.54 355.136 294.54 354.128C294.54 353.129 294.736 352.247 295.128 351.482C295.52 350.717 296.076 350.119 296.794 349.69C297.522 349.251 298.381 349.032 299.37 349.032C300.49 349.032 301.424 349.303 302.17 349.844C302.917 350.385 303.402 351.132 303.626 352.084H301.946C301.797 351.561 301.503 351.151 301.064 350.852C300.626 350.553 300.061 350.404 299.37 350.404C298.344 350.404 297.536 350.735 296.948 351.398C296.36 352.061 296.066 352.975 296.066 354.142C296.066 355.309 296.356 356.219 296.934 356.872C297.513 357.525 298.283 357.852 299.244 357.852C300.215 357.852 300.943 357.577 301.428 357.026C301.923 356.475 302.212 355.743 302.296 354.828H299.636V353.68H303.794V359H302.436L302.31 357.558C301.984 358.071 301.573 358.468 301.078 358.748C300.584 359.028 299.94 359.168 299.146 359.168ZM305.596 359V349.2H309.292C310.309 349.2 311.079 349.438 311.602 349.914C312.124 350.39 312.386 350.987 312.386 351.706C312.386 352.331 312.218 352.831 311.882 353.204C311.546 353.568 311.14 353.815 310.664 353.946C311.037 354.021 311.368 354.17 311.658 354.394C311.956 354.618 312.19 354.898 312.358 355.234C312.526 355.57 312.61 355.934 312.61 356.326C312.61 356.83 312.484 357.287 312.232 357.698C311.989 358.099 311.63 358.417 311.154 358.65C310.678 358.883 310.094 359 309.404 359H305.596ZM307.08 353.4H309.11C309.679 353.4 310.113 353.269 310.412 353.008C310.71 352.737 310.86 352.369 310.86 351.902C310.86 351.445 310.71 351.081 310.412 350.81C310.122 350.539 309.679 350.404 309.082 350.404H307.08V353.4ZM307.08 357.782H309.208C309.805 357.782 310.267 357.642 310.594 357.362C310.93 357.082 311.098 356.69 311.098 356.186C311.098 355.682 310.925 355.285 310.58 354.996C310.234 354.697 309.768 354.548 309.18 354.548H307.08V357.782Z" fill="#333333"/>
<path d="M78.5739 177.232C54.101 180.479 44.326 232.404 24 232.404V297H54.8477H351.966L352 164.866C331.436 174.546 318.398 103.794 297.426 110.442C274.368 117.75 270.464 200.062 242.852 200.062C221.102 200.062 209.784 168.807 188.278 174.378C163.047 180.914 158.562 265.277 133.148 269.23C110.752 272.713 100.995 174.257 78.5739 177.232Z" fill="url(#paint0_linear_249_2048)" fill-opacity="0.25"/>
<path d="M24 231.567C44.326 231.567 54.101 179.997 78.5739 176.772C100.995 173.817 110.752 271.6 133.148 268.141C158.562 264.215 163.047 180.429 188.278 173.938C209.784 168.405 221.103 199.446 242.852 199.446C270.464 199.446 274.368 117.697 297.426 110.439C318.398 103.837 331.436 174.105 352 164.49" stroke="#56B5D2" stroke-width="2"/>
<path d="M345 32C344.448 32 344 32.4477 344 33C344 33.5523 344.448 34 345 34C345.552 34 346 33.5523 346 33C346 32.4477 345.552 32 345 32Z" stroke="#98A4B5" stroke-width="2" stroke-linecap="round" stroke-linejoin="round"/>
<path d="M338 32C337.448 32 337 32.4477 337 33C337 33.5523 337.448 34 338 34C338.552 34 339 33.5523 339 33C339 32.4477 338.552 32 338 32Z" stroke="#98A4B5" stroke-width="2" stroke-linecap="round" stroke-linejoin="round"/>
<path d="M331 32C330.448 32 330 32.4477 330 33C330 33.5523 330.448 34 331 34C331.552 34 332 33.5523 332 33C332 32.4477 331.552 32 331 32Z" stroke="#98A4B5" stroke-width="2" stroke-linecap="round" stroke-linejoin="round"/>
<defs>
<linearGradient id="paint0_linear_249_2048" x1="188" y1="110" x2="188" y2="297" gradientUnits="userSpaceOnUse">
<stop stop-color="#01A2FD"/>
<stop offset="1" stop-color="#01A2FD" stop-opacity="0"/>
</linearGradient>
</defs>
</svg>
