<svg width="719" height="390" viewBox="0 0 719 390" fill="none" xmlns="http://www.w3.org/2000/svg">
<rect width="719" height="390" rx="12" fill="white"/>
<path d="M83.8564 121.169V323.585" stroke="#DDDDDD" stroke-dasharray="5 5"/>
<path d="M188 121.169V323.585" stroke="#DDDDDD" stroke-dasharray="5 5"/>
<path d="M136 121.169V323.585" stroke="#DDDDDD" stroke-dasharray="5 5"/>
<path d="M240 121.169V323.585" stroke="#DDDDDD" stroke-dasharray="5 5"/>
<path d="M292 121.169V323.585" stroke="#DDDDDD" stroke-dasharray="5 5"/>
<path d="M344 121.169V323.585" stroke="#DDDDDD" stroke-dasharray="5 5"/>
<path d="M396 121.169V323.585" stroke="#DDDDDD" stroke-dasharray="5 5"/>
<path d="M396 206L396 324" stroke="#333333" stroke-dasharray="5 5"/>
<path d="M448 121.169V323.585" stroke="#DDDDDD" stroke-dasharray="5 5"/>
<path d="M500 121.169V323.585" stroke="#DDDDDD" stroke-dasharray="5 5"/>
<path d="M552 121.169V323.585" stroke="#DDDDDD" stroke-dasharray="5 5"/>
<path d="M612 121.169V323.585" stroke="#DDDDDD" stroke-dasharray="5 5"/>
<path d="M664 121.169V323.585" stroke="#DDDDDD" stroke-dasharray="5 5"/>
<path d="M84 291C119.913 291 137.183 243.234 180.423 240.133C220.037 237.292 237.277 273.434 276.846 270.108C321.749 266.334 329.674 219.124 374.253 212.883C412.25 207.563 432.872 255.841 471.103 252.218C512.322 248.313 526.359 182.619 567.099 175.641C604.154 169.293 627.667 212.427 664 203.183" stroke="#8365D7" stroke-width="2" stroke-linecap="round"/>
<path d="M84 261.78C119.942 261.78 137.227 212.241 180.503 209.143C220.149 206.304 237.403 300.237 277.005 296.914C321.945 293.143 329.876 212.656 374.492 206.42C412.521 201.105 432.535 230.924 470.995 230.924C519.82 230.924 526.724 152.394 567.497 145.421C604.583 139.08 627.637 206.58 664 197.345" stroke="#56B5D2" stroke-width="2" stroke-linecap="round"/>
<circle cx="396" cy="206" r="4" fill="white" stroke="#56B5D2" stroke-width="2"/>
<path d="M75.22 362.168C74.3333 362.168 73.638 361.921 73.134 361.426C72.63 360.931 72.378 360.245 72.378 359.368H73.568C73.568 359.863 73.6893 360.278 73.932 360.614C74.1747 360.95 74.5993 361.118 75.206 361.118C75.794 361.118 76.2 360.955 76.424 360.628C76.6573 360.301 76.774 359.895 76.774 359.41V352.2H77.95V359.41C77.95 360.278 77.7073 360.955 77.222 361.44C76.746 361.925 76.0787 362.168 75.22 362.168ZM82.2623 362.168C81.6837 362.168 81.203 362.07 80.8203 361.874C80.4377 361.678 80.153 361.417 79.9663 361.09C79.7797 360.763 79.6863 360.409 79.6863 360.026C79.6863 359.317 79.957 358.771 80.4983 358.388C81.0397 358.005 81.777 357.814 82.7103 357.814H84.5863V357.73C84.5863 357.123 84.4277 356.666 84.1103 356.358C83.793 356.041 83.3683 355.882 82.8363 355.882C82.379 355.882 81.9823 355.999 81.6463 356.232C81.3197 356.456 81.1143 356.787 81.0303 357.226H79.8263C79.873 356.722 80.041 356.297 80.3303 355.952C80.629 355.607 80.9977 355.345 81.4363 355.168C81.875 354.981 82.3417 354.888 82.8363 354.888C83.807 354.888 84.535 355.149 85.0203 355.672C85.515 356.185 85.7623 356.871 85.7623 357.73V362H84.7123L84.6423 360.754C84.4463 361.146 84.157 361.482 83.7743 361.762C83.401 362.033 82.897 362.168 82.2623 362.168ZM82.4443 361.174C82.8923 361.174 83.275 361.057 83.5923 360.824C83.919 360.591 84.1663 360.287 84.3343 359.914C84.5023 359.541 84.5863 359.149 84.5863 358.738V358.724H82.8083C82.1177 358.724 81.6277 358.845 81.3383 359.088C81.0583 359.321 80.9183 359.615 80.9183 359.97C80.9183 360.334 81.049 360.628 81.3103 360.852C81.581 361.067 81.959 361.174 82.4443 361.174ZM87.5265 362V355.056H88.5905L88.6605 356.302C88.8845 355.863 89.2065 355.518 89.6265 355.266C90.0465 355.014 90.5225 354.888 91.0545 354.888C91.8759 354.888 92.5292 355.14 93.0145 355.644C93.5092 356.139 93.7565 356.904 93.7565 357.94V362H92.5805V358.066C92.5805 356.619 91.9832 355.896 90.7885 355.896C90.1912 355.896 89.6919 356.115 89.2905 356.554C88.8985 356.983 88.7025 357.599 88.7025 358.402V362H87.5265Z" fill="#98A4B5"/>
<path d="M125.036 362V352.2H131V353.166H126.212V356.61H130.286V357.562H126.212V362H125.036ZM135.266 362.168C134.603 362.168 134.015 362.019 133.502 361.72C132.988 361.412 132.582 360.987 132.284 360.446C131.994 359.905 131.85 359.265 131.85 358.528C131.85 357.8 131.994 357.165 132.284 356.624C132.573 356.073 132.974 355.649 133.488 355.35C134.01 355.042 134.612 354.888 135.294 354.888C135.966 354.888 136.544 355.042 137.03 355.35C137.524 355.649 137.902 356.045 138.164 356.54C138.425 357.035 138.556 357.567 138.556 358.136C138.556 358.239 138.551 358.341 138.542 358.444C138.542 358.547 138.542 358.663 138.542 358.794H133.012C133.04 359.326 133.161 359.769 133.376 360.124C133.6 360.469 133.875 360.731 134.202 360.908C134.538 361.085 134.892 361.174 135.266 361.174C135.751 361.174 136.157 361.062 136.484 360.838C136.81 360.614 137.048 360.311 137.198 359.928H138.36C138.173 360.572 137.814 361.109 137.282 361.538C136.759 361.958 136.087 362.168 135.266 362.168ZM135.266 355.882C134.706 355.882 134.206 356.055 133.768 356.4C133.338 356.736 133.091 357.231 133.026 357.884H137.394C137.366 357.259 137.151 356.769 136.75 356.414C136.348 356.059 135.854 355.882 135.266 355.882ZM143.824 362.168C143.255 362.168 142.746 362.051 142.298 361.818C141.86 361.585 141.524 361.258 141.29 360.838L141.178 362H140.114V351.92H141.29V356.204C141.514 355.868 141.832 355.565 142.242 355.294C142.662 355.023 143.194 354.888 143.838 354.888C144.529 354.888 145.131 355.047 145.644 355.364C146.158 355.681 146.554 356.115 146.834 356.666C147.124 357.217 147.268 357.842 147.268 358.542C147.268 359.242 147.124 359.867 146.834 360.418C146.554 360.959 146.153 361.389 145.63 361.706C145.117 362.014 144.515 362.168 143.824 362.168ZM143.698 361.146C144.165 361.146 144.576 361.039 144.93 360.824C145.285 360.6 145.565 360.292 145.77 359.9C145.976 359.508 146.078 359.051 146.078 358.528C146.078 358.005 145.976 357.548 145.77 357.156C145.565 356.764 145.285 356.461 144.93 356.246C144.576 356.022 144.165 355.91 143.698 355.91C143.232 355.91 142.821 356.022 142.466 356.246C142.112 356.461 141.832 356.764 141.626 357.156C141.421 357.548 141.318 358.005 141.318 358.528C141.318 359.051 141.421 359.508 141.626 359.9C141.832 360.292 142.112 360.6 142.466 360.824C142.821 361.039 143.232 361.146 143.698 361.146Z" fill="#98A4B5"/>
<path d="M176.036 362V352.2H177.408L180.936 359.032L184.436 352.2H185.822V362H184.646V354.3L181.37 360.6H180.488L177.212 354.314V362H176.036ZM190.13 362.168C189.551 362.168 189.07 362.07 188.688 361.874C188.305 361.678 188.02 361.417 187.834 361.09C187.647 360.763 187.554 360.409 187.554 360.026C187.554 359.317 187.824 358.771 188.366 358.388C188.907 358.005 189.644 357.814 190.578 357.814H192.454V357.73C192.454 357.123 192.295 356.666 191.978 356.358C191.66 356.041 191.236 355.882 190.704 355.882C190.246 355.882 189.85 355.999 189.514 356.232C189.187 356.456 188.982 356.787 188.898 357.226H187.694C187.74 356.722 187.908 356.297 188.198 355.952C188.496 355.607 188.865 355.345 189.304 355.168C189.742 354.981 190.209 354.888 190.704 354.888C191.674 354.888 192.402 355.149 192.888 355.672C193.382 356.185 193.63 356.871 193.63 357.73V362H192.58L192.51 360.754C192.314 361.146 192.024 361.482 191.642 361.762C191.268 362.033 190.764 362.168 190.13 362.168ZM190.312 361.174C190.76 361.174 191.142 361.057 191.46 360.824C191.786 360.591 192.034 360.287 192.202 359.914C192.37 359.541 192.454 359.149 192.454 358.738V358.724H190.676C189.985 358.724 189.495 358.845 189.206 359.088C188.926 359.321 188.786 359.615 188.786 359.97C188.786 360.334 188.916 360.628 189.178 360.852C189.448 361.067 189.826 361.174 190.312 361.174ZM195.394 362V355.056H196.458L196.556 356.386C196.77 355.929 197.097 355.565 197.536 355.294C197.974 355.023 198.516 354.888 199.16 354.888V356.12H198.838C198.427 356.12 198.049 356.195 197.704 356.344C197.358 356.484 197.083 356.727 196.878 357.072C196.672 357.417 196.57 357.893 196.57 358.5V362H195.394Z" fill="#98A4B5"/>
<path d="M228.42 362L232.032 352.2H233.278L236.876 362H235.63L234.734 359.48H230.562L229.652 362H228.42ZM230.912 358.528H234.384L232.648 353.684L230.912 358.528ZM238.263 365.08V355.056H239.327L239.439 356.204C239.663 355.868 239.98 355.565 240.391 355.294C240.811 355.023 241.343 354.888 241.987 354.888C242.678 354.888 243.28 355.047 243.793 355.364C244.306 355.681 244.703 356.115 244.983 356.666C245.272 357.217 245.417 357.842 245.417 358.542C245.417 359.242 245.272 359.867 244.983 360.418C244.703 360.959 244.302 361.389 243.779 361.706C243.266 362.014 242.664 362.168 241.973 362.168C241.404 362.168 240.895 362.051 240.447 361.818C240.008 361.585 239.672 361.258 239.439 360.838V365.08H238.263ZM241.847 361.146C242.314 361.146 242.724 361.039 243.079 360.824C243.434 360.6 243.714 360.292 243.919 359.9C244.124 359.508 244.227 359.051 244.227 358.528C244.227 358.005 244.124 357.548 243.919 357.156C243.714 356.764 243.434 356.461 243.079 356.246C242.724 356.022 242.314 355.91 241.847 355.91C241.38 355.91 240.97 356.022 240.615 356.246C240.26 356.461 239.98 356.764 239.775 357.156C239.57 357.548 239.467 358.005 239.467 358.528C239.467 359.051 239.57 359.508 239.775 359.9C239.98 360.292 240.26 360.6 240.615 360.824C240.97 361.039 241.38 361.146 241.847 361.146ZM247.054 362V355.056H248.118L248.216 356.386C248.431 355.929 248.757 355.565 249.196 355.294C249.635 355.023 250.176 354.888 250.82 354.888V356.12H250.498C250.087 356.12 249.709 356.195 249.364 356.344C249.019 356.484 248.743 356.727 248.538 357.072C248.333 357.417 248.23 357.893 248.23 358.5V362H247.054Z" fill="#98A4B5"/>
<path d="M279.036 362V352.2H280.408L283.936 359.032L287.436 352.2H288.822V362H287.646V354.3L284.37 360.6H283.488L280.212 354.314V362H279.036ZM293.13 362.168C292.551 362.168 292.07 362.07 291.688 361.874C291.305 361.678 291.02 361.417 290.834 361.09C290.647 360.763 290.554 360.409 290.554 360.026C290.554 359.317 290.824 358.771 291.366 358.388C291.907 358.005 292.644 357.814 293.578 357.814H295.454V357.73C295.454 357.123 295.295 356.666 294.978 356.358C294.66 356.041 294.236 355.882 293.704 355.882C293.246 355.882 292.85 355.999 292.514 356.232C292.187 356.456 291.982 356.787 291.898 357.226H290.694C290.74 356.722 290.908 356.297 291.198 355.952C291.496 355.607 291.865 355.345 292.304 355.168C292.742 354.981 293.209 354.888 293.704 354.888C294.674 354.888 295.402 355.149 295.888 355.672C296.382 356.185 296.63 356.871 296.63 357.73V362H295.58L295.51 360.754C295.314 361.146 295.024 361.482 294.642 361.762C294.268 362.033 293.764 362.168 293.13 362.168ZM293.312 361.174C293.76 361.174 294.142 361.057 294.46 360.824C294.786 360.591 295.034 360.287 295.202 359.914C295.37 359.541 295.454 359.149 295.454 358.738V358.724H293.676C292.985 358.724 292.495 358.845 292.206 359.088C291.926 359.321 291.786 359.615 291.786 359.97C291.786 360.334 291.916 360.628 292.178 360.852C292.448 361.067 292.826 361.174 293.312 361.174ZM298.945 365.08L300.667 361.328H300.261L297.503 355.056H298.777L301.073 360.46L303.509 355.056H304.727L300.177 365.08H298.945Z" fill="#98A4B5"/>
<path d="M335.22 362.168C334.333 362.168 333.638 361.921 333.134 361.426C332.63 360.931 332.378 360.245 332.378 359.368H333.568C333.568 359.863 333.689 360.278 333.932 360.614C334.175 360.95 334.599 361.118 335.206 361.118C335.794 361.118 336.2 360.955 336.424 360.628C336.657 360.301 336.774 359.895 336.774 359.41V352.2H337.95V359.41C337.95 360.278 337.707 360.955 337.222 361.44C336.746 361.925 336.079 362.168 335.22 362.168ZM342.486 362.168C341.665 362.168 341.012 361.921 340.526 361.426C340.041 360.922 339.798 360.152 339.798 359.116V355.056H340.974V358.99C340.974 360.437 341.567 361.16 342.752 361.16C343.359 361.16 343.858 360.945 344.25 360.516C344.652 360.077 344.852 359.457 344.852 358.654V355.056H346.028V362H344.964L344.88 360.754C344.666 361.193 344.344 361.538 343.914 361.79C343.494 362.042 343.018 362.168 342.486 362.168ZM347.964 362V355.056H349.028L349.098 356.302C349.322 355.863 349.644 355.518 350.064 355.266C350.484 355.014 350.96 354.888 351.492 354.888C352.313 354.888 352.967 355.14 353.452 355.644C353.947 356.139 354.194 356.904 354.194 357.94V362H353.018V358.066C353.018 356.619 352.421 355.896 351.226 355.896C350.629 355.896 350.129 356.115 349.728 356.554C349.336 356.983 349.14 357.599 349.14 358.402V362H347.964Z" fill="#98A4B5"/>
<path d="M389.22 362.168C388.333 362.168 387.638 361.921 387.134 361.426C386.63 360.931 386.378 360.245 386.378 359.368H387.568C387.568 359.863 387.689 360.278 387.932 360.614C388.175 360.95 388.599 361.118 389.206 361.118C389.794 361.118 390.2 360.955 390.424 360.628C390.657 360.301 390.774 359.895 390.774 359.41V352.2H391.95V359.41C391.95 360.278 391.707 360.955 391.222 361.44C390.746 361.925 390.079 362.168 389.22 362.168ZM396.486 362.168C395.665 362.168 395.012 361.921 394.526 361.426C394.041 360.922 393.798 360.152 393.798 359.116V355.056H394.974V358.99C394.974 360.437 395.567 361.16 396.752 361.16C397.359 361.16 397.858 360.945 398.25 360.516C398.652 360.077 398.852 359.457 398.852 358.654V355.056H400.028V362H398.964L398.88 360.754C398.666 361.193 398.344 361.538 397.914 361.79C397.494 362.042 397.018 362.168 396.486 362.168ZM401.964 362V351.92H403.14V362H401.964Z" fill="#98A4B5"/>
<path d="M435.42 362L439.032 352.2H440.278L443.876 362H442.63L441.734 359.48H437.562L436.652 362H435.42ZM437.912 358.528H441.384L439.648 353.684L437.912 358.528ZM447.646 362.168C446.825 362.168 446.172 361.921 445.686 361.426C445.201 360.922 444.958 360.152 444.958 359.116V355.056H446.134V358.99C446.134 360.437 446.727 361.16 447.912 361.16C448.519 361.16 449.018 360.945 449.41 360.516C449.812 360.077 450.012 359.457 450.012 358.654V355.056H451.188V362H450.124L450.04 360.754C449.826 361.193 449.504 361.538 449.074 361.79C448.654 362.042 448.178 362.168 447.646 362.168ZM455.868 359.816C455.476 359.816 455.117 359.765 454.79 359.662L454.09 360.32C454.193 360.395 454.319 360.46 454.468 360.516C454.627 360.563 454.851 360.609 455.14 360.656C455.43 360.693 455.836 360.735 456.358 360.782C457.292 360.847 457.959 361.062 458.36 361.426C458.762 361.79 458.962 362.266 458.962 362.854C458.962 363.255 458.85 363.638 458.626 364.002C458.412 364.366 458.076 364.665 457.618 364.898C457.17 365.131 456.592 365.248 455.882 365.248C455.257 365.248 454.702 365.164 454.216 364.996C453.731 364.837 453.353 364.59 453.082 364.254C452.812 363.927 452.676 363.512 452.676 363.008C452.676 362.747 452.746 362.462 452.886 362.154C453.026 361.855 453.288 361.571 453.67 361.3C453.465 361.216 453.288 361.127 453.138 361.034C452.998 360.931 452.868 360.819 452.746 360.698V360.376L453.936 359.2C453.386 358.733 453.11 358.117 453.11 357.352C453.11 356.895 453.218 356.479 453.432 356.106C453.647 355.733 453.96 355.439 454.37 355.224C454.781 355 455.28 354.888 455.868 354.888C456.27 354.888 456.634 354.944 456.96 355.056H459.522V355.938L458.22 355.994C458.491 356.386 458.626 356.839 458.626 357.352C458.626 357.809 458.514 358.225 458.29 358.598C458.076 358.971 457.763 359.27 457.352 359.494C456.951 359.709 456.456 359.816 455.868 359.816ZM455.868 358.85C456.363 358.85 456.755 358.724 457.044 358.472C457.343 358.211 457.492 357.837 457.492 357.352C457.492 356.876 457.343 356.512 457.044 356.26C456.755 355.999 456.363 355.868 455.868 355.868C455.364 355.868 454.963 355.999 454.664 356.26C454.375 356.512 454.23 356.876 454.23 357.352C454.23 357.837 454.375 358.211 454.664 358.472C454.963 358.724 455.364 358.85 455.868 358.85ZM453.824 362.896C453.824 363.363 454.02 363.708 454.412 363.932C454.804 364.165 455.294 364.282 455.882 364.282C456.461 364.282 456.923 364.156 457.268 363.904C457.623 363.652 457.8 363.316 457.8 362.896C457.8 362.597 457.679 362.336 457.436 362.112C457.194 361.897 456.746 361.771 456.092 361.734C455.579 361.697 455.136 361.65 454.762 361.594C454.38 361.799 454.128 362.019 454.006 362.252C453.885 362.495 453.824 362.709 453.824 362.896Z" fill="#98A4B5"/>
<path d="M491.158 362.168C490.439 362.168 489.814 362.037 489.282 361.776C488.75 361.515 488.339 361.151 488.05 360.684C487.761 360.217 487.616 359.676 487.616 359.06H488.848C488.848 359.443 488.937 359.797 489.114 360.124C489.291 360.441 489.548 360.698 489.884 360.894C490.229 361.081 490.654 361.174 491.158 361.174C491.821 361.174 492.334 361.015 492.698 360.698C493.062 360.381 493.244 359.984 493.244 359.508C493.244 359.116 493.16 358.803 492.992 358.57C492.824 358.327 492.595 358.131 492.306 357.982C492.026 357.833 491.699 357.702 491.326 357.59C490.962 357.478 490.579 357.352 490.178 357.212C489.422 356.951 488.862 356.629 488.498 356.246C488.134 355.854 487.952 355.345 487.952 354.72C487.943 354.197 488.064 353.735 488.316 353.334C488.568 352.923 488.923 352.606 489.38 352.382C489.847 352.149 490.397 352.032 491.032 352.032C491.657 352.032 492.199 352.149 492.656 352.382C493.123 352.615 493.482 352.937 493.734 353.348C493.995 353.759 494.131 354.225 494.14 354.748H492.908C492.908 354.477 492.838 354.211 492.698 353.95C492.558 353.679 492.343 353.46 492.054 353.292C491.774 353.124 491.419 353.04 490.99 353.04C490.458 353.031 490.019 353.166 489.674 353.446C489.338 353.726 489.17 354.113 489.17 354.608C489.17 355.028 489.287 355.35 489.52 355.574C489.763 355.798 490.099 355.985 490.528 356.134C490.957 356.274 491.452 356.437 492.012 356.624C492.479 356.792 492.899 356.988 493.272 357.212C493.645 357.436 493.935 357.725 494.14 358.08C494.355 358.435 494.462 358.887 494.462 359.438C494.462 359.905 494.341 360.348 494.098 360.768C493.855 361.179 493.487 361.515 492.992 361.776C492.507 362.037 491.895 362.168 491.158 362.168ZM499.182 362.168C498.519 362.168 497.931 362.019 497.418 361.72C496.904 361.412 496.498 360.987 496.2 360.446C495.91 359.905 495.766 359.265 495.766 358.528C495.766 357.8 495.91 357.165 496.2 356.624C496.489 356.073 496.89 355.649 497.404 355.35C497.926 355.042 498.528 354.888 499.21 354.888C499.882 354.888 500.46 355.042 500.946 355.35C501.44 355.649 501.818 356.045 502.08 356.54C502.341 357.035 502.472 357.567 502.472 358.136C502.472 358.239 502.467 358.341 502.458 358.444C502.458 358.547 502.458 358.663 502.458 358.794H496.928C496.956 359.326 497.077 359.769 497.292 360.124C497.516 360.469 497.791 360.731 498.118 360.908C498.454 361.085 498.808 361.174 499.182 361.174C499.667 361.174 500.073 361.062 500.4 360.838C500.726 360.614 500.964 360.311 501.114 359.928H502.276C502.089 360.572 501.73 361.109 501.198 361.538C500.675 361.958 500.003 362.168 499.182 362.168ZM499.182 355.882C498.622 355.882 498.122 356.055 497.684 356.4C497.254 356.736 497.007 357.231 496.942 357.884H501.31C501.282 357.259 501.067 356.769 500.666 356.414C500.264 356.059 499.77 355.882 499.182 355.882ZM504.03 365.08V355.056H505.094L505.206 356.204C505.43 355.868 505.748 355.565 506.158 355.294C506.578 355.023 507.11 354.888 507.754 354.888C508.445 354.888 509.047 355.047 509.56 355.364C510.074 355.681 510.47 356.115 510.75 356.666C511.04 357.217 511.184 357.842 511.184 358.542C511.184 359.242 511.04 359.867 510.75 360.418C510.47 360.959 510.069 361.389 509.546 361.706C509.033 362.014 508.431 362.168 507.74 362.168C507.171 362.168 506.662 362.051 506.214 361.818C505.776 361.585 505.44 361.258 505.206 360.838V365.08H504.03ZM507.614 361.146C508.081 361.146 508.492 361.039 508.846 360.824C509.201 360.6 509.481 360.292 509.686 359.9C509.892 359.508 509.994 359.051 509.994 358.528C509.994 358.005 509.892 357.548 509.686 357.156C509.481 356.764 509.201 356.461 508.846 356.246C508.492 356.022 508.081 355.91 507.614 355.91C507.148 355.91 506.737 356.022 506.382 356.246C506.028 356.461 505.748 356.764 505.542 357.156C505.337 357.548 505.234 358.005 505.234 358.528C505.234 359.051 505.337 359.508 505.542 359.9C505.748 360.292 506.028 360.6 506.382 360.824C506.737 361.039 507.148 361.146 507.614 361.146Z" fill="#98A4B5"/>
<path d="M544.488 362.168C543.527 362.168 542.682 361.958 541.954 361.538C541.235 361.109 540.671 360.511 540.26 359.746C539.859 358.981 539.658 358.099 539.658 357.1C539.658 356.101 539.859 355.224 540.26 354.468C540.671 353.703 541.235 353.105 541.954 352.676C542.682 352.247 543.527 352.032 544.488 352.032C545.459 352.032 546.303 352.247 547.022 352.676C547.75 353.105 548.315 353.703 548.716 354.468C549.117 355.224 549.318 356.101 549.318 357.1C549.318 358.099 549.117 358.981 548.716 359.746C548.315 360.511 547.75 361.109 547.022 361.538C546.303 361.958 545.459 362.168 544.488 362.168ZM544.488 361.132C545.207 361.132 545.837 360.973 546.378 360.656C546.929 360.329 547.353 359.867 547.652 359.27C547.96 358.663 548.114 357.94 548.114 357.1C548.114 356.26 547.96 355.541 547.652 354.944C547.353 354.347 546.929 353.889 546.378 353.572C545.837 353.245 545.207 353.082 544.488 353.082C543.769 353.082 543.135 353.245 542.584 353.572C542.043 353.889 541.618 354.347 541.31 354.944C541.011 355.541 540.862 356.26 540.862 357.1C540.862 357.94 541.011 358.663 541.31 359.27C541.618 359.867 542.043 360.329 542.584 360.656C543.135 360.973 543.769 361.132 544.488 361.132ZM554.137 362.168C553.474 362.168 552.877 362.019 552.345 361.72C551.822 361.412 551.407 360.987 551.099 360.446C550.8 359.895 550.651 359.256 550.651 358.528C550.651 357.8 550.8 357.165 551.099 356.624C551.407 356.073 551.822 355.649 552.345 355.35C552.877 355.042 553.474 354.888 554.137 354.888C554.958 354.888 555.649 355.103 556.209 355.532C556.778 355.961 557.137 356.535 557.287 357.254H556.083C555.989 356.825 555.761 356.493 555.397 356.26C555.033 356.017 554.608 355.896 554.123 355.896C553.731 355.896 553.362 355.994 553.017 356.19C552.671 356.386 552.391 356.68 552.177 357.072C551.962 357.464 551.855 357.949 551.855 358.528C551.855 359.107 551.962 359.592 552.177 359.984C552.391 360.376 552.671 360.675 553.017 360.88C553.362 361.076 553.731 361.174 554.123 361.174C554.608 361.174 555.033 361.057 555.397 360.824C555.761 360.581 555.989 360.241 556.083 359.802H557.287C557.147 360.502 556.792 361.071 556.223 361.51C555.653 361.949 554.958 362.168 554.137 362.168ZM561.481 362C560.847 362 560.347 361.846 559.983 361.538C559.619 361.23 559.437 360.675 559.437 359.872V356.05H558.233V355.056H559.437L559.591 353.39H560.613V355.056H562.657V356.05H560.613V359.872C560.613 360.311 560.702 360.609 560.879 360.768C561.057 360.917 561.369 360.992 561.817 360.992H562.545V362H561.481Z" fill="#98A4B5"/>
<path d="M600.036 362V352.2H601.212L606.434 360.054V352.2H607.61V362H606.434L601.212 354.146V362H600.036ZM612.782 362.168C612.129 362.168 611.541 362.019 611.018 361.72C610.496 361.421 610.08 361.001 609.772 360.46C609.474 359.909 609.324 359.265 609.324 358.528C609.324 357.791 609.478 357.151 609.786 356.61C610.094 356.059 610.51 355.635 611.032 355.336C611.564 355.037 612.157 354.888 612.81 354.888C613.464 354.888 614.052 355.037 614.574 355.336C615.097 355.635 615.508 356.059 615.806 356.61C616.114 357.151 616.268 357.791 616.268 358.528C616.268 359.265 616.114 359.909 615.806 360.46C615.498 361.001 615.078 361.421 614.546 361.72C614.024 362.019 613.436 362.168 612.782 362.168ZM612.782 361.16C613.184 361.16 613.557 361.062 613.902 360.866C614.248 360.67 614.528 360.376 614.742 359.984C614.957 359.592 615.064 359.107 615.064 358.528C615.064 357.949 614.957 357.464 614.742 357.072C614.537 356.68 614.262 356.386 613.916 356.19C613.571 355.994 613.202 355.896 612.81 355.896C612.409 355.896 612.036 355.994 611.69 356.19C611.345 356.386 611.065 356.68 610.85 357.072C610.636 357.464 610.528 357.949 610.528 358.528C610.528 359.107 610.636 359.592 610.85 359.984C611.065 360.376 611.34 360.67 611.676 360.866C612.022 361.062 612.39 361.16 612.782 361.16ZM619.55 362L616.918 355.056H618.15L620.236 360.866L622.336 355.056H623.54L620.908 362H619.55Z" fill="#98A4B5"/>
<path d="M652.036 362V352.2H655.046C656.773 352.2 658.042 352.639 658.854 353.516C659.675 354.393 660.086 355.597 660.086 357.128C660.086 358.631 659.675 359.821 658.854 360.698C658.042 361.566 656.773 362 655.046 362H652.036ZM653.212 361.02H655.018C655.97 361.02 656.726 360.866 657.286 360.558C657.855 360.241 658.261 359.793 658.504 359.214C658.747 358.626 658.868 357.931 658.868 357.128C658.868 356.307 658.747 355.602 658.504 355.014C658.261 354.426 657.855 353.973 657.286 353.656C656.726 353.339 655.97 353.18 655.018 353.18H653.212V361.02ZM664.836 362.168C664.173 362.168 663.585 362.019 663.072 361.72C662.559 361.412 662.153 360.987 661.854 360.446C661.565 359.905 661.42 359.265 661.42 358.528C661.42 357.8 661.565 357.165 661.854 356.624C662.143 356.073 662.545 355.649 663.058 355.35C663.581 355.042 664.183 354.888 664.864 354.888C665.536 354.888 666.115 355.042 666.6 355.35C667.095 355.649 667.473 356.045 667.734 356.54C667.995 357.035 668.126 357.567 668.126 358.136C668.126 358.239 668.121 358.341 668.112 358.444C668.112 358.547 668.112 358.663 668.112 358.794H662.582C662.61 359.326 662.731 359.769 662.946 360.124C663.17 360.469 663.445 360.731 663.772 360.908C664.108 361.085 664.463 361.174 664.836 361.174C665.321 361.174 665.727 361.062 666.054 360.838C666.381 360.614 666.619 360.311 666.768 359.928H667.93C667.743 360.572 667.384 361.109 666.852 361.538C666.329 361.958 665.657 362.168 664.836 362.168ZM664.836 355.882C664.276 355.882 663.777 356.055 663.338 356.4C662.909 356.736 662.661 357.231 662.596 357.884H666.964C666.936 357.259 666.721 356.769 666.32 356.414C665.919 356.059 665.424 355.882 664.836 355.882ZM672.877 362.168C672.214 362.168 671.617 362.019 671.085 361.72C670.562 361.412 670.147 360.987 669.839 360.446C669.54 359.895 669.391 359.256 669.391 358.528C669.391 357.8 669.54 357.165 669.839 356.624C670.147 356.073 670.562 355.649 671.085 355.35C671.617 355.042 672.214 354.888 672.877 354.888C673.698 354.888 674.389 355.103 674.949 355.532C675.518 355.961 675.877 356.535 676.027 357.254H674.823C674.729 356.825 674.501 356.493 674.137 356.26C673.773 356.017 673.348 355.896 672.863 355.896C672.471 355.896 672.102 355.994 671.757 356.19C671.411 356.386 671.131 356.68 670.917 357.072C670.702 357.464 670.595 357.949 670.595 358.528C670.595 359.107 670.702 359.592 670.917 359.984C671.131 360.376 671.411 360.675 671.757 360.88C672.102 361.076 672.471 361.174 672.863 361.174C673.348 361.174 673.773 361.057 674.137 360.824C674.501 360.581 674.729 360.241 674.823 359.802H676.027C675.887 360.502 675.532 361.071 674.963 361.51C674.393 361.949 673.698 362.168 672.877 362.168Z" fill="#98A4B5"/>
<rect x="364" y="146" width="63" height="50" rx="10" fill="#252837"/>
<path d="M396 205L401.196 196H390.804L396 205Z" fill="#252837"/>
<path d="M386.76 165.144C386 165.144 385.404 164.932 384.972 164.508C384.54 164.084 384.324 163.496 384.324 162.744H385.344C385.344 163.168 385.448 163.524 385.656 163.812C385.864 164.1 386.228 164.244 386.748 164.244C387.252 164.244 387.6 164.104 387.792 163.824C387.992 163.544 388.092 163.196 388.092 162.78V156.6H389.1V162.78C389.1 163.524 388.892 164.104 388.476 164.52C388.068 164.936 387.496 165.144 386.76 165.144ZM392.988 165.144C392.284 165.144 391.724 164.932 391.308 164.508C390.892 164.076 390.684 163.416 390.684 162.528V159.048H391.692V162.42C391.692 163.66 392.2 164.28 393.216 164.28C393.736 164.28 394.164 164.096 394.5 163.728C394.844 163.352 395.016 162.82 395.016 162.132V159.048H396.024V165H395.112L395.04 163.932C394.856 164.308 394.58 164.604 394.212 164.82C393.852 165.036 393.444 165.144 392.988 165.144ZM397.683 165V156.36H398.691V165H397.683ZM400.992 167.64L402.468 164.424H402.12L399.756 159.048H400.848L402.816 163.68L404.904 159.048H405.948L402.048 167.64H400.992Z" fill="#F4F7F9"/>
<path d="M388.016 185V177.244L386.406 177.622V176.25L388.772 175.2H389.878V185H388.016ZM392.842 185V177.244L391.232 177.622V176.25L393.598 175.2H394.704V185H392.842ZM400.062 185.168C399.39 185.168 398.784 185.051 398.242 184.818C397.701 184.575 397.267 184.235 396.94 183.796C396.623 183.357 396.464 182.849 396.464 182.27C396.464 181.673 396.618 181.15 396.926 180.702C397.244 180.254 397.659 179.932 398.172 179.736C397.724 179.54 397.37 179.26 397.108 178.896C396.847 178.523 396.716 178.107 396.716 177.65C396.716 177.183 396.842 176.754 397.094 176.362C397.346 175.961 397.72 175.639 398.214 175.396C398.718 175.153 399.334 175.032 400.062 175.032C400.79 175.032 401.402 175.153 401.896 175.396C402.391 175.639 402.764 175.961 403.016 176.362C403.268 176.754 403.394 177.183 403.394 177.65C403.394 178.098 403.259 178.513 402.988 178.896C402.727 179.269 402.377 179.549 401.938 179.736C402.461 179.932 402.876 180.254 403.184 180.702C403.492 181.15 403.646 181.673 403.646 182.27C403.646 182.849 403.488 183.357 403.17 183.796C402.853 184.235 402.419 184.575 401.868 184.818C401.327 185.051 400.725 185.168 400.062 185.168ZM400.062 179.204C400.548 179.204 400.93 179.078 401.21 178.826C401.49 178.574 401.63 178.252 401.63 177.86C401.63 177.431 401.49 177.095 401.21 176.852C400.94 176.609 400.557 176.488 400.062 176.488C399.558 176.488 399.171 176.609 398.9 176.852C398.63 177.095 398.494 177.431 398.494 177.86C398.494 178.261 398.63 178.588 398.9 178.84C399.18 179.083 399.568 179.204 400.062 179.204ZM400.062 183.67C400.66 183.67 401.112 183.525 401.42 183.236C401.728 182.937 401.882 182.564 401.882 182.116C401.882 181.621 401.719 181.234 401.392 180.954C401.075 180.674 400.632 180.534 400.062 180.534C399.493 180.534 399.04 180.674 398.704 180.954C398.378 181.234 398.214 181.621 398.214 182.116C398.214 182.564 398.368 182.937 398.676 183.236C398.994 183.525 399.456 183.67 400.062 183.67Z" fill="#F4F7F9"/>
<path d="M29.688 44.126C28.764 44.126 27.936 43.976 27.204 43.676C26.472 43.376 25.884 42.932 25.44 42.344C25.008 41.756 24.78 41.048 24.756 40.22H28.032C28.08 40.688 28.242 41.048 28.518 41.3C28.794 41.54 29.154 41.66 29.598 41.66C30.054 41.66 30.414 41.558 30.678 41.354C30.942 41.138 31.074 40.844 31.074 40.472C31.074 40.16 30.966 39.902 30.75 39.698C30.546 39.494 30.288 39.326 29.976 39.194C29.676 39.062 29.244 38.912 28.68 38.744C27.864 38.492 27.198 38.24 26.682 37.988C26.166 37.736 25.722 37.364 25.35 36.872C24.978 36.38 24.792 35.738 24.792 34.946C24.792 33.77 25.218 32.852 26.07 32.192C26.922 31.52 28.032 31.184 29.4 31.184C30.792 31.184 31.914 31.52 32.766 32.192C33.618 32.852 34.074 33.776 34.134 34.964H30.804C30.78 34.556 30.63 34.238 30.354 34.01C30.078 33.77 29.724 33.65 29.292 33.65C28.92 33.65 28.62 33.752 28.392 33.956C28.164 34.148 28.05 34.43 28.05 34.802C28.05 35.21 28.242 35.528 28.626 35.756C29.01 35.984 29.61 36.23 30.426 36.494C31.242 36.77 31.902 37.034 32.406 37.286C32.922 37.538 33.366 37.904 33.738 38.384C34.11 38.864 34.296 39.482 34.296 40.238C34.296 40.958 34.11 41.612 33.738 42.2C33.378 42.788 32.85 43.256 32.154 43.604C31.458 43.952 30.636 44.126 29.688 44.126ZM41.7882 41.39V44H40.2222C39.1062 44 38.2362 43.73 37.6122 43.19C36.9882 42.638 36.6762 41.744 36.6762 40.508V36.512H35.4522V33.956H36.6762V31.508H39.7542V33.956H41.7702V36.512H39.7542V40.544C39.7542 40.844 39.8262 41.06 39.9702 41.192C40.1142 41.324 40.3542 41.39 40.6902 41.39H41.7882ZM42.8907 38.96C42.8907 37.928 43.0827 37.022 43.4667 36.242C43.8627 35.462 44.3967 34.862 45.0687 34.442C45.7407 34.022 46.4907 33.812 47.3187 33.812C48.0267 33.812 48.6447 33.956 49.1727 34.244C49.7127 34.532 50.1267 34.91 50.4147 35.378V33.956H53.4927V44H50.4147V42.578C50.1147 43.046 49.6947 43.424 49.1547 43.712C48.6267 44 48.0087 44.144 47.3007 44.144C46.4847 44.144 45.7407 43.934 45.0687 43.514C44.3967 43.082 43.8627 42.476 43.4667 41.696C43.0827 40.904 42.8907 39.992 42.8907 38.96ZM50.4147 38.978C50.4147 38.21 50.1987 37.604 49.7667 37.16C49.3467 36.716 48.8307 36.494 48.2187 36.494C47.6067 36.494 47.0847 36.716 46.6527 37.16C46.2327 37.592 46.0227 38.192 46.0227 38.96C46.0227 39.728 46.2327 40.34 46.6527 40.796C47.0847 41.24 47.6067 41.462 48.2187 41.462C48.8307 41.462 49.3467 41.24 49.7667 40.796C50.1987 40.352 50.4147 39.746 50.4147 38.978ZM61.3175 41.39V44H59.7515C58.6355 44 57.7655 43.73 57.1415 43.19C56.5175 42.638 56.2055 41.744 56.2055 40.508V36.512H54.9815V33.956H56.2055V31.508H59.2835V33.956H61.2995V36.512H59.2835V40.544C59.2835 40.844 59.3555 41.06 59.4995 41.192C59.6435 41.324 59.8835 41.39 60.2195 41.39H61.3175ZM64.58 32.912C64.04 32.912 63.596 32.756 63.248 32.444C62.912 32.12 62.744 31.724 62.744 31.256C62.744 30.776 62.912 30.38 63.248 30.068C63.596 29.744 64.04 29.582 64.58 29.582C65.108 29.582 65.54 29.744 65.876 30.068C66.224 30.38 66.398 30.776 66.398 31.256C66.398 31.724 66.224 32.12 65.876 32.444C65.54 32.756 65.108 32.912 64.58 32.912ZM66.11 33.956V44H63.032V33.956H66.11ZM72.4266 44.144C71.5506 44.144 70.7706 43.994 70.0866 43.694C69.4026 43.394 68.8626 42.986 68.4666 42.47C68.0706 41.942 67.8486 41.354 67.8006 40.706H70.8426C70.8786 41.054 71.0406 41.336 71.3286 41.552C71.6166 41.768 71.9706 41.876 72.3906 41.876C72.7746 41.876 73.0686 41.804 73.2726 41.66C73.4886 41.504 73.5966 41.306 73.5966 41.066C73.5966 40.778 73.4466 40.568 73.1466 40.436C72.8466 40.292 72.3606 40.136 71.6886 39.968C70.9686 39.8 70.3686 39.626 69.8886 39.446C69.4086 39.254 68.9946 38.96 68.6466 38.564C68.2986 38.156 68.1246 37.61 68.1246 36.926C68.1246 36.35 68.2806 35.828 68.5926 35.36C68.9166 34.88 69.3846 34.502 69.9966 34.226C70.6206 33.95 71.3586 33.812 72.2106 33.812C73.4706 33.812 74.4606 34.124 75.1806 34.748C75.9126 35.372 76.3326 36.2 76.4406 37.232H73.5966C73.5486 36.884 73.3926 36.608 73.1286 36.404C72.8766 36.2 72.5406 36.098 72.1206 36.098C71.7606 36.098 71.4846 36.17 71.2926 36.314C71.1006 36.446 71.0046 36.632 71.0046 36.872C71.0046 37.16 71.1546 37.376 71.4546 37.52C71.7666 37.664 72.2466 37.808 72.8946 37.952C73.6386 38.144 74.2446 38.336 74.7126 38.528C75.1806 38.708 75.5886 39.008 75.9366 39.428C76.2966 39.836 76.4826 40.388 76.4946 41.084C76.4946 41.672 76.3266 42.2 75.9906 42.668C75.6666 43.124 75.1926 43.484 74.5686 43.748C73.9566 44.012 73.2426 44.144 72.4266 44.144ZM83.9757 41.39V44H82.4097C81.2937 44 80.4237 43.73 79.7997 43.19C79.1757 42.638 78.8637 41.744 78.8637 40.508V36.512H77.6397V33.956H78.8637V31.508H81.9417V33.956H83.9577V36.512H81.9417V40.544C81.9417 40.844 82.0137 41.06 82.1577 41.192C82.3017 41.324 82.5417 41.39 82.8777 41.39H83.9757ZM87.2382 32.912C86.6982 32.912 86.2542 32.756 85.9062 32.444C85.5702 32.12 85.4022 31.724 85.4022 31.256C85.4022 30.776 85.5702 30.38 85.9062 30.068C86.2542 29.744 86.6982 29.582 87.2382 29.582C87.7662 29.582 88.1982 29.744 88.5342 30.068C88.8822 30.38 89.0562 30.776 89.0562 31.256C89.0562 31.724 88.8822 32.12 88.5342 32.444C88.1982 32.756 87.7662 32.912 87.2382 32.912ZM88.7682 33.956V44H85.6902V33.956H88.7682ZM90.3868 38.978C90.3868 37.934 90.5968 37.022 91.0168 36.242C91.4488 35.462 92.0428 34.862 92.7988 34.442C93.5668 34.022 94.4428 33.812 95.4268 33.812C96.6868 33.812 97.7368 34.142 98.5768 34.802C99.4288 35.462 99.9868 36.392 100.251 37.592H96.9748C96.6988 36.824 96.1648 36.44 95.3728 36.44C94.8088 36.44 94.3588 36.662 94.0228 37.106C93.6868 37.538 93.5188 38.162 93.5188 38.978C93.5188 39.794 93.6868 40.424 94.0228 40.868C94.3588 41.3 94.8088 41.516 95.3728 41.516C96.1648 41.516 96.6988 41.132 96.9748 40.364H100.251C99.9868 41.54 99.4288 42.464 98.5768 43.136C97.7248 43.808 96.6748 44.144 95.4268 44.144C94.4428 44.144 93.5668 43.934 92.7988 43.514C92.0428 43.094 91.4488 42.494 91.0168 41.714C90.5968 40.934 90.3868 40.022 90.3868 38.978Z" fill="#333333"/>
<path d="M569.994 41V31.2H571.744L575.062 37.724L578.366 31.2H580.116V41H578.632V33.762L575.636 39.6H574.488L571.478 33.776V41H569.994ZM585.299 41.168C584.637 41.168 584.039 41.0187 583.507 40.72C582.985 40.412 582.569 39.9873 582.261 39.446C581.953 38.8953 581.799 38.256 581.799 37.528C581.799 36.8 581.953 36.1653 582.261 35.624C582.579 35.0733 583.003 34.6487 583.535 34.35C584.067 34.042 584.66 33.888 585.313 33.888C585.976 33.888 586.569 34.042 587.091 34.35C587.623 34.6487 588.043 35.0733 588.351 35.624C588.669 36.1653 588.827 36.8 588.827 37.528C588.827 38.256 588.669 38.8953 588.351 39.446C588.043 39.9873 587.623 40.412 587.091 40.72C586.559 41.0187 585.962 41.168 585.299 41.168ZM585.299 39.894C585.654 39.894 585.981 39.8053 586.279 39.628C586.587 39.4507 586.835 39.1893 587.021 38.844C587.208 38.4893 587.301 38.0507 587.301 37.528C587.301 37.0053 587.208 36.5713 587.021 36.226C586.844 35.8713 586.601 35.6053 586.293 35.428C585.995 35.2507 585.668 35.162 585.313 35.162C584.959 35.162 584.627 35.2507 584.319 35.428C584.021 35.6053 583.778 35.8713 583.591 36.226C583.405 36.5713 583.311 37.0053 583.311 37.528C583.311 38.0507 583.405 38.4893 583.591 38.844C583.778 39.1893 584.021 39.4507 584.319 39.628C584.618 39.8053 584.945 39.894 585.299 39.894ZM590.432 41V34.056H591.748L591.86 35.274C592.075 34.8447 592.387 34.5087 592.798 34.266C593.218 34.014 593.699 33.888 594.24 33.888C595.08 33.888 595.738 34.1493 596.214 34.672C596.699 35.1947 596.942 35.974 596.942 37.01V41H595.472V37.164C595.472 35.82 594.921 35.148 593.82 35.148C593.269 35.148 592.812 35.344 592.448 35.736C592.093 36.128 591.916 36.688 591.916 37.416V41H590.432ZM601.602 41C600.921 41 600.379 40.8367 599.978 40.51C599.577 40.174 599.376 39.5813 599.376 38.732V35.302H598.186V34.056H599.376L599.558 32.292H600.86V34.056H602.82V35.302H600.86V38.732C600.86 39.1147 600.939 39.3807 601.098 39.53C601.266 39.67 601.551 39.74 601.952 39.74H602.75V41H601.602ZM604.35 41V30.92H605.834V35.176C606.067 34.7747 606.389 34.462 606.8 34.238C607.22 34.0047 607.682 33.888 608.186 33.888C609.017 33.888 609.67 34.1493 610.146 34.672C610.622 35.1947 610.86 35.974 610.86 37.01V41H609.39V37.164C609.39 35.82 608.853 35.148 607.78 35.148C607.22 35.148 606.753 35.344 606.38 35.736C606.016 36.128 605.834 36.688 605.834 37.416V41H604.35Z" fill="#333333"/>
<path d="M632.293 33.293L628 37.586L623.707 33.293L622.293 34.707L628 40.414L633.707 34.707L632.293 33.293Z" fill="#98A4B5"/>
<rect x="552.5" y="22.5" width="95" height="27" rx="13.5" stroke="#DDDDDD"/>
<path d="M690 35C689.448 35 689 35.4477 689 36C689 36.5523 689.448 37 690 37C690.552 37 691 36.5523 691 36C691 35.4477 690.552 35 690 35Z" stroke="#98A4B5" stroke-width="2" stroke-linecap="round" stroke-linejoin="round"/>
<path d="M683 35C682.448 35 682 35.4477 682 36C682 36.5523 682.448 37 683 37C683.552 37 684 36.5523 684 36C684 35.4477 683.552 35 683 35Z" stroke="#98A4B5" stroke-width="2" stroke-linecap="round" stroke-linejoin="round"/>
<path d="M676 35C675.448 35 675 35.4477 675 36C675 36.5523 675.448 37 676 37C676.552 37 677 36.5523 677 36C677 35.4477 676.552 35 676 35Z" stroke="#98A4B5" stroke-width="2" stroke-linecap="round" stroke-linejoin="round"/>
<path d="M40.368 274.752C39.696 274.752 39.1127 274.631 38.618 274.388C38.1233 274.146 37.7267 273.814 37.428 273.394C37.1387 272.965 36.9613 272.48 36.896 271.938H38.044C38.156 272.48 38.4173 272.918 38.828 273.254C39.2387 273.581 39.7567 273.744 40.382 273.744C40.8487 273.744 41.25 273.637 41.586 273.422C41.922 273.198 42.1787 272.9 42.356 272.526C42.5427 272.153 42.636 271.738 42.636 271.28C42.636 270.552 42.4307 269.964 42.02 269.516C41.6093 269.068 41.0773 268.844 40.424 268.844C39.8827 268.844 39.4207 268.966 39.038 269.208C38.6553 269.451 38.3753 269.768 38.198 270.16H37.078L37.918 264.784H43.056V265.806H38.828L38.254 268.788C38.478 268.518 38.786 268.294 39.178 268.116C39.5793 267.939 40.0367 267.85 40.55 267.85C41.194 267.85 41.754 268 42.23 268.298C42.7153 268.597 43.0933 269.003 43.364 269.516C43.6347 270.03 43.77 270.613 43.77 271.266C43.77 271.892 43.6347 272.47 43.364 273.002C43.1027 273.534 42.7153 273.959 42.202 274.276C41.698 274.594 41.0867 274.752 40.368 274.752ZM49.4303 274.752C48.5623 274.752 47.8109 274.542 47.1763 274.122C46.5509 273.693 46.0703 273.1 45.7343 272.344C45.3983 271.579 45.2303 270.692 45.2303 269.684C45.2303 268.676 45.3983 267.794 45.7343 267.038C46.0703 266.273 46.5509 265.68 47.1763 265.26C47.8109 264.831 48.5623 264.616 49.4303 264.616C50.2983 264.616 51.0449 264.831 51.6703 265.26C52.2956 265.68 52.7763 266.273 53.1123 267.038C53.4483 267.794 53.6163 268.676 53.6163 269.684C53.6163 270.692 53.4483 271.579 53.1123 272.344C52.7763 273.1 52.2956 273.693 51.6703 274.122C51.0449 274.542 50.2983 274.752 49.4303 274.752ZM49.4303 273.716C49.9996 273.716 50.5083 273.558 50.9563 273.24C51.4136 272.914 51.7683 272.452 52.0203 271.854C52.2816 271.248 52.4123 270.524 52.4123 269.684C52.4123 268.844 52.2816 268.126 52.0203 267.528C51.7683 266.931 51.4136 266.474 50.9563 266.156C50.5083 265.83 49.9996 265.666 49.4303 265.666C48.8516 265.666 48.3383 265.83 47.8903 266.156C47.4423 266.474 47.0876 266.931 46.8263 267.528C46.5649 268.126 46.4343 268.844 46.4343 269.684C46.4343 270.524 46.5649 271.248 46.8263 271.854C47.0876 272.452 47.4423 272.914 47.8903 273.24C48.3383 273.558 48.8516 273.716 49.4303 273.716Z" fill="#98A4B5"/>
<path d="M49.858 320.168C48.99 320.168 48.2387 319.958 47.604 319.538C46.9787 319.109 46.498 318.516 46.162 317.76C45.826 316.995 45.658 316.108 45.658 315.1C45.658 314.092 45.826 313.21 46.162 312.454C46.498 311.689 46.9787 311.096 47.604 310.676C48.2387 310.247 48.99 310.032 49.858 310.032C50.726 310.032 51.4727 310.247 52.098 310.676C52.7233 311.096 53.204 311.689 53.54 312.454C53.876 313.21 54.044 314.092 54.044 315.1C54.044 316.108 53.876 316.995 53.54 317.76C53.204 318.516 52.7233 319.109 52.098 319.538C51.4727 319.958 50.726 320.168 49.858 320.168ZM49.858 319.132C50.4273 319.132 50.936 318.973 51.384 318.656C51.8413 318.329 52.196 317.867 52.448 317.27C52.7093 316.663 52.84 315.94 52.84 315.1C52.84 314.26 52.7093 313.541 52.448 312.944C52.196 312.347 51.8413 311.889 51.384 311.572C50.936 311.245 50.4273 311.082 49.858 311.082C49.2793 311.082 48.766 311.245 48.318 311.572C47.87 311.889 47.5153 312.347 47.254 312.944C46.9927 313.541 46.862 314.26 46.862 315.1C46.862 315.94 46.9927 316.663 47.254 317.27C47.5153 317.867 47.87 318.329 48.318 318.656C48.766 318.973 49.2793 319.132 49.858 319.132Z" fill="#98A4B5"/>
<path d="M33.002 224.662V216.178L31.42 216.528V215.716L33.394 214.862H34.192V224.662H33.002ZM40.0826 224.83C39.2146 224.83 38.4633 224.62 37.8286 224.2C37.2033 223.77 36.7226 223.178 36.3866 222.422C36.0506 221.656 35.8826 220.77 35.8826 219.762C35.8826 218.754 36.0506 217.872 36.3866 217.116C36.7226 216.35 37.2033 215.758 37.8286 215.338C38.4633 214.908 39.2146 214.694 40.0826 214.694C40.9506 214.694 41.6973 214.908 42.3226 215.338C42.9479 215.758 43.4286 216.35 43.7646 217.116C44.1006 217.872 44.2686 218.754 44.2686 219.762C44.2686 220.77 44.1006 221.656 43.7646 222.422C43.4286 223.178 42.9479 223.77 42.3226 224.2C41.6973 224.62 40.9506 224.83 40.0826 224.83ZM40.0826 223.794C40.6519 223.794 41.1606 223.635 41.6086 223.318C42.0659 222.991 42.4206 222.529 42.6726 221.932C42.9339 221.325 43.0646 220.602 43.0646 219.762C43.0646 218.922 42.9339 218.203 42.6726 217.606C42.4206 217.008 42.0659 216.551 41.6086 216.234C41.1606 215.907 40.6519 215.744 40.0826 215.744C39.5039 215.744 38.9906 215.907 38.5426 216.234C38.0946 216.551 37.7399 217.008 37.4786 217.606C37.2173 218.203 37.0866 218.922 37.0866 219.762C37.0866 220.602 37.2173 221.325 37.4786 221.932C37.7399 222.529 38.0946 222.991 38.5426 223.318C38.9906 223.635 39.5039 223.794 40.0826 223.794ZM49.7896 224.83C48.9216 224.83 48.1703 224.62 47.5356 224.2C46.9103 223.77 46.4296 223.178 46.0936 222.422C45.7576 221.656 45.5896 220.77 45.5896 219.762C45.5896 218.754 45.7576 217.872 46.0936 217.116C46.4296 216.35 46.9103 215.758 47.5356 215.338C48.1703 214.908 48.9216 214.694 49.7896 214.694C50.6576 214.694 51.4043 214.908 52.0296 215.338C52.655 215.758 53.1356 216.35 53.4716 217.116C53.8076 217.872 53.9756 218.754 53.9756 219.762C53.9756 220.77 53.8076 221.656 53.4716 222.422C53.1356 223.178 52.655 223.77 52.0296 224.2C51.4043 224.62 50.6576 224.83 49.7896 224.83ZM49.7896 223.794C50.359 223.794 50.8676 223.635 51.3156 223.318C51.773 222.991 52.1276 222.529 52.3796 221.932C52.641 221.325 52.7716 220.602 52.7716 219.762C52.7716 218.922 52.641 218.203 52.3796 217.606C52.1276 217.008 51.773 216.551 51.3156 216.234C50.8676 215.907 50.359 215.744 49.7896 215.744C49.211 215.744 48.6976 215.907 48.2496 216.234C47.8016 216.551 47.447 217.008 47.1856 217.606C46.9243 218.203 46.7936 218.922 46.7936 219.762C46.7936 220.602 46.9243 221.325 47.1856 221.932C47.447 222.529 47.8016 222.991 48.2496 223.318C48.6976 223.635 49.211 223.794 49.7896 223.794Z" fill="#98A4B5"/>
<path d="M34.002 174.739V166.255L32.42 166.605V165.793L34.394 164.939H35.192V174.739H34.002ZM40.5926 174.907C39.9206 174.907 39.3373 174.785 38.8426 174.543C38.3479 174.3 37.9513 173.969 37.6526 173.549C37.3633 173.119 37.1859 172.634 37.1206 172.093H38.2686C38.3806 172.634 38.6419 173.073 39.0526 173.409C39.4633 173.735 39.9813 173.899 40.6066 173.899C41.0733 173.899 41.4746 173.791 41.8106 173.577C42.1466 173.353 42.4033 173.054 42.5806 172.681C42.7673 172.307 42.8606 171.892 42.8606 171.435C42.8606 170.707 42.6553 170.119 42.2446 169.671C41.8339 169.223 41.3019 168.999 40.6486 168.999C40.1073 168.999 39.6453 169.12 39.2626 169.363C38.8799 169.605 38.5999 169.923 38.4226 170.315H37.3026L38.1426 164.939H43.2806V165.961H39.0526L38.4786 168.943C38.7026 168.672 39.0106 168.448 39.4026 168.271C39.8039 168.093 40.2613 168.005 40.7746 168.005C41.4186 168.005 41.9786 168.154 42.4546 168.453C42.9399 168.751 43.3179 169.157 43.5886 169.671C43.8593 170.184 43.9946 170.767 43.9946 171.421C43.9946 172.046 43.8593 172.625 43.5886 173.157C43.3273 173.689 42.9399 174.113 42.4266 174.431C41.9226 174.748 41.3113 174.907 40.5926 174.907ZM49.6549 174.907C48.7869 174.907 48.0355 174.697 47.4009 174.277C46.7755 173.847 46.2949 173.255 45.9589 172.499C45.6229 171.733 45.4549 170.847 45.4549 169.839C45.4549 168.831 45.6229 167.949 45.9589 167.193C46.2949 166.427 46.7755 165.835 47.4009 165.415C48.0355 164.985 48.7869 164.771 49.6549 164.771C50.5229 164.771 51.2695 164.985 51.8949 165.415C52.5202 165.835 53.0009 166.427 53.3369 167.193C53.6729 167.949 53.8409 168.831 53.8409 169.839C53.8409 170.847 53.6729 171.733 53.3369 172.499C53.0009 173.255 52.5202 173.847 51.8949 174.277C51.2695 174.697 50.5229 174.907 49.6549 174.907ZM49.6549 173.871C50.2242 173.871 50.7329 173.712 51.1809 173.395C51.6382 173.068 51.9929 172.606 52.2449 172.009C52.5062 171.402 52.6369 170.679 52.6369 169.839C52.6369 168.999 52.5062 168.28 52.2449 167.683C51.9929 167.085 51.6382 166.628 51.1809 166.311C50.7329 165.984 50.2242 165.821 49.6549 165.821C49.0762 165.821 48.5629 165.984 48.1149 166.311C47.6669 166.628 47.3122 167.085 47.0509 167.683C46.7895 168.28 46.6589 168.999 46.6589 169.839C46.6589 170.679 46.7895 171.402 47.0509 172.009C47.3122 172.606 47.6669 173.068 48.1149 173.395C48.5629 173.712 49.0762 173.871 49.6549 173.871Z" fill="#98A4B5"/>
<path d="M27.882 123V122.174C28.5447 121.651 29.17 121.124 29.758 120.592C30.3553 120.051 30.8827 119.519 31.34 118.996C31.8067 118.473 32.1707 117.96 32.432 117.456C32.7027 116.952 32.838 116.467 32.838 116C32.838 115.655 32.7773 115.333 32.656 115.034C32.544 114.735 32.3573 114.497 32.096 114.32C31.8347 114.133 31.48 114.04 31.032 114.04C30.6027 114.04 30.2433 114.138 29.954 114.334C29.6647 114.521 29.4453 114.773 29.296 115.09C29.156 115.407 29.086 115.748 29.086 116.112H27.952C27.952 115.468 28.0873 114.917 28.358 114.46C28.6287 113.993 28.9973 113.639 29.464 113.396C29.9307 113.153 30.458 113.032 31.046 113.032C31.914 113.032 32.6233 113.279 33.174 113.774C33.734 114.259 34.014 114.987 34.014 115.958C34.014 116.537 33.8693 117.111 33.58 117.68C33.2907 118.24 32.922 118.786 32.474 119.318C32.026 119.841 31.5453 120.331 31.032 120.788C30.528 121.245 30.0567 121.656 29.618 122.02H34.35V123H27.882ZM39.733 123.168C38.865 123.168 38.1137 122.958 37.479 122.538C36.8537 122.109 36.373 121.516 36.037 120.76C35.701 119.995 35.533 119.108 35.533 118.1C35.533 117.092 35.701 116.21 36.037 115.454C36.373 114.689 36.8537 114.096 37.479 113.676C38.1137 113.247 38.865 113.032 39.733 113.032C40.601 113.032 41.3477 113.247 41.973 113.676C42.5983 114.096 43.079 114.689 43.415 115.454C43.751 116.21 43.919 117.092 43.919 118.1C43.919 119.108 43.751 119.995 43.415 120.76C43.079 121.516 42.5983 122.109 41.973 122.538C41.3477 122.958 40.601 123.168 39.733 123.168ZM39.733 122.132C40.3023 122.132 40.811 121.973 41.259 121.656C41.7163 121.329 42.071 120.867 42.323 120.27C42.5843 119.663 42.715 118.94 42.715 118.1C42.715 117.26 42.5843 116.541 42.323 115.944C42.071 115.347 41.7163 114.889 41.259 114.572C40.811 114.245 40.3023 114.082 39.733 114.082C39.1543 114.082 38.641 114.245 38.193 114.572C37.745 114.889 37.3903 115.347 37.129 115.944C36.8677 116.541 36.737 117.26 36.737 118.1C36.737 118.94 36.8677 119.663 37.129 120.27C37.3903 120.867 37.745 121.329 38.193 121.656C38.641 121.973 39.1543 122.132 39.733 122.132ZM49.44 123.168C48.572 123.168 47.8207 122.958 47.186 122.538C46.5607 122.109 46.08 121.516 45.744 120.76C45.408 119.995 45.24 119.108 45.24 118.1C45.24 117.092 45.408 116.21 45.744 115.454C46.08 114.689 46.5607 114.096 47.186 113.676C47.8207 113.247 48.572 113.032 49.44 113.032C50.308 113.032 51.0547 113.247 51.68 113.676C52.3054 114.096 52.786 114.689 53.122 115.454C53.458 116.21 53.626 117.092 53.626 118.1C53.626 119.108 53.458 119.995 53.122 120.76C52.786 121.516 52.3054 122.109 51.68 122.538C51.0547 122.958 50.308 123.168 49.44 123.168ZM49.44 122.132C50.0094 122.132 50.518 121.973 50.966 121.656C51.4234 121.329 51.778 120.867 52.03 120.27C52.2914 119.663 52.422 118.94 52.422 118.1C52.422 117.26 52.2914 116.541 52.03 115.944C51.778 115.347 51.4234 114.889 50.966 114.572C50.518 114.245 50.0094 114.082 49.44 114.082C48.8614 114.082 48.348 114.245 47.9 114.572C47.452 114.889 47.0974 115.347 46.836 115.944C46.5747 116.541 46.444 117.26 46.444 118.1C46.444 118.94 46.5747 119.663 46.836 120.27C47.0974 120.867 47.452 121.329 47.9 121.656C48.348 121.973 48.8614 122.132 49.44 122.132Z" fill="#98A4B5"/>
<circle cx="602" cy="80" r="3" fill="#8365D7"/>
<path d="M615.036 85V75.2H616.212V84.062H620.776V85H615.036ZM624.631 85.168C624.053 85.168 623.572 85.07 623.189 84.874C622.807 84.678 622.522 84.4167 622.335 84.09C622.149 83.7633 622.055 83.4087 622.055 83.026C622.055 82.3167 622.326 81.7707 622.867 81.388C623.409 81.0053 624.146 80.814 625.079 80.814H626.955V80.73C626.955 80.1233 626.797 79.666 626.479 79.358C626.162 79.0407 625.737 78.882 625.205 78.882C624.748 78.882 624.351 78.9987 624.015 79.232C623.689 79.456 623.483 79.7873 623.399 80.226H622.195C622.242 79.722 622.41 79.2973 622.699 78.952C622.998 78.6067 623.367 78.3453 623.805 78.168C624.244 77.9813 624.711 77.888 625.205 77.888C626.176 77.888 626.904 78.1493 627.389 78.672C627.884 79.1853 628.131 79.8713 628.131 80.73V85H627.081L627.011 83.754C626.815 84.146 626.526 84.482 626.143 84.762C625.77 85.0327 625.266 85.168 624.631 85.168ZM624.813 84.174C625.261 84.174 625.644 84.0573 625.961 83.824C626.288 83.5907 626.535 83.2873 626.703 82.914C626.871 82.5407 626.955 82.1487 626.955 81.738V81.724H625.177C624.487 81.724 623.997 81.8453 623.707 82.088C623.427 82.3213 623.287 82.6153 623.287 82.97C623.287 83.334 623.418 83.628 623.679 83.852C623.95 84.0667 624.328 84.174 624.813 84.174ZM632.556 85.168C631.725 85.168 631.034 84.958 630.484 84.538C629.933 84.118 629.611 83.5487 629.518 82.83H630.722C630.796 83.194 630.988 83.5113 631.296 83.782C631.613 84.0433 632.038 84.174 632.57 84.174C633.064 84.174 633.428 84.0713 633.662 83.866C633.895 83.6513 634.012 83.3993 634.012 83.11C634.012 82.69 633.858 82.41 633.55 82.27C633.251 82.13 632.826 82.004 632.276 81.892C631.902 81.8173 631.529 81.71 631.156 81.57C630.782 81.43 630.47 81.234 630.218 80.982C629.966 80.7207 629.84 80.38 629.84 79.96C629.84 79.3533 630.064 78.8587 630.512 78.476C630.969 78.084 631.585 77.888 632.36 77.888C633.097 77.888 633.699 78.0747 634.166 78.448C634.642 78.812 634.917 79.3347 634.992 80.016H633.83C633.783 79.6613 633.629 79.386 633.368 79.19C633.116 78.9847 632.775 78.882 632.346 78.882C631.926 78.882 631.599 78.9707 631.366 79.148C631.142 79.3253 631.03 79.5587 631.03 79.848C631.03 80.128 631.174 80.3473 631.464 80.506C631.762 80.6647 632.164 80.8 632.668 80.912C633.097 81.0053 633.503 81.122 633.886 81.262C634.278 81.3927 634.595 81.5933 634.838 81.864C635.09 82.1253 635.216 82.508 635.216 83.012C635.225 83.6373 634.987 84.1553 634.502 84.566C634.026 84.9673 633.377 85.168 632.556 85.168ZM639.325 85C638.691 85 638.191 84.846 637.827 84.538C637.463 84.23 637.281 83.6747 637.281 82.872V79.05H636.077V78.056H637.281L637.435 76.39H638.457V78.056H640.501V79.05H638.457V82.872C638.457 83.3107 638.546 83.6093 638.723 83.768C638.901 83.9173 639.213 83.992 639.661 83.992H640.389V85H639.325ZM645.77 85V75.2H647.142L650.67 82.032L654.17 75.2H655.556V85H654.38V77.3L651.104 83.6H650.222L646.946 77.314V85H645.77ZM660.718 85.168C660.065 85.168 659.477 85.0187 658.954 84.72C658.431 84.4213 658.016 84.0013 657.708 83.46C657.409 82.9093 657.26 82.2653 657.26 81.528C657.26 80.7907 657.414 80.1513 657.722 79.61C658.03 79.0593 658.445 78.6347 658.968 78.336C659.5 78.0373 660.093 77.888 660.746 77.888C661.399 77.888 661.987 78.0373 662.51 78.336C663.033 78.6347 663.443 79.0593 663.742 79.61C664.05 80.1513 664.204 80.7907 664.204 81.528C664.204 82.2653 664.05 82.9093 663.742 83.46C663.434 84.0013 663.014 84.4213 662.482 84.72C661.959 85.0187 661.371 85.168 660.718 85.168ZM660.718 84.16C661.119 84.16 661.493 84.062 661.838 83.866C662.183 83.67 662.463 83.376 662.678 82.984C662.893 82.592 663 82.1067 663 81.528C663 80.9493 662.893 80.464 662.678 80.072C662.473 79.68 662.197 79.386 661.852 79.19C661.507 78.994 661.138 78.896 660.746 78.896C660.345 78.896 659.971 78.994 659.626 79.19C659.281 79.386 659.001 79.68 658.786 80.072C658.571 80.464 658.464 80.9493 658.464 81.528C658.464 82.1067 658.571 82.592 658.786 82.984C659.001 83.376 659.276 83.67 659.612 83.866C659.957 84.062 660.326 84.16 660.718 84.16ZM665.839 85V78.056H666.903L666.973 79.302C667.197 78.8633 667.519 78.518 667.939 78.266C668.359 78.014 668.835 77.888 669.367 77.888C670.188 77.888 670.842 78.14 671.327 78.644C671.822 79.1387 672.069 79.904 672.069 80.94V85H670.893V81.066C670.893 79.6193 670.296 78.896 669.101 78.896C668.504 78.896 668.004 79.1153 667.603 79.554C667.211 79.9833 667.015 80.5993 667.015 81.402V85H665.839ZM676.595 85C675.96 85 675.461 84.846 675.097 84.538C674.733 84.23 674.551 83.6747 674.551 82.872V79.05H673.347V78.056H674.551L674.705 76.39H675.727V78.056H677.771V79.05H675.727V82.872C675.727 83.3107 675.815 83.6093 675.993 83.768C676.17 83.9173 676.483 83.992 676.931 83.992H677.659V85H676.595ZM679.265 85V74.92H680.441V79.246C680.674 78.8167 681.005 78.4853 681.435 78.252C681.864 78.0093 682.331 77.888 682.835 77.888C683.637 77.888 684.281 78.14 684.767 78.644C685.252 79.1387 685.495 79.904 685.495 80.94V85H684.333V81.066C684.333 79.6193 683.749 78.896 682.583 78.896C681.976 78.896 681.467 79.1153 681.057 79.554C680.646 79.9833 680.441 80.5993 680.441 81.402V85H679.265Z" fill="#98A4B5"/>
<circle cx="493" cy="80" r="3" fill="#56B5D2"/>
<path d="M508.332 85V76.166H505.406V75.2H512.434V76.166H509.508V85H508.332ZM513.8 85V74.92H514.976V79.246C515.209 78.8167 515.541 78.4853 515.97 78.252C516.399 78.0093 516.866 77.888 517.37 77.888C518.173 77.888 518.817 78.14 519.302 78.644C519.787 79.1387 520.03 79.904 520.03 80.94V85H518.868V81.066C518.868 79.6193 518.285 78.896 517.118 78.896C516.511 78.896 516.003 79.1153 515.592 79.554C515.181 79.9833 514.976 80.5993 514.976 81.402V85H513.8ZM522.526 76.516C522.292 76.516 522.096 76.4413 521.938 76.292C521.788 76.1333 521.714 75.9373 521.714 75.704C521.714 75.48 521.788 75.2933 521.938 75.144C522.096 74.9947 522.292 74.92 522.526 74.92C522.75 74.92 522.941 74.9947 523.1 75.144C523.258 75.2933 523.338 75.48 523.338 75.704C523.338 75.9373 523.258 76.1333 523.1 76.292C522.941 76.4413 522.75 76.516 522.526 76.516ZM521.938 85V78.056H523.114V85H521.938ZM527.821 85.168C526.991 85.168 526.3 84.958 525.749 84.538C525.199 84.118 524.877 83.5487 524.783 82.83H525.987C526.062 83.194 526.253 83.5113 526.561 83.782C526.879 84.0433 527.303 84.174 527.835 84.174C528.33 84.174 528.694 84.0713 528.927 83.866C529.161 83.6513 529.277 83.3993 529.277 83.11C529.277 82.69 529.123 82.41 528.815 82.27C528.517 82.13 528.092 82.004 527.541 81.892C527.168 81.8173 526.795 81.71 526.421 81.57C526.048 81.43 525.735 81.234 525.483 80.982C525.231 80.7207 525.105 80.38 525.105 79.96C525.105 79.3533 525.329 78.8587 525.777 78.476C526.235 78.084 526.851 77.888 527.625 77.888C528.363 77.888 528.965 78.0747 529.431 78.448C529.907 78.812 530.183 79.3347 530.257 80.016H529.095C529.049 79.6613 528.895 79.386 528.633 79.19C528.381 78.9847 528.041 78.882 527.611 78.882C527.191 78.882 526.865 78.9707 526.631 79.148C526.407 79.3253 526.295 79.5587 526.295 79.848C526.295 80.128 526.44 80.3473 526.729 80.506C527.028 80.6647 527.429 80.8 527.933 80.912C528.363 81.0053 528.769 81.122 529.151 81.262C529.543 81.3927 529.861 81.5933 530.103 81.864C530.355 82.1253 530.481 82.508 530.481 83.012C530.491 83.6373 530.253 84.1553 529.767 84.566C529.291 84.9673 528.643 85.168 527.821 85.168ZM535.936 85V75.2H537.308L540.836 82.032L544.336 75.2H545.722V85H544.546V77.3L541.27 83.6H540.388L537.112 77.314V85H535.936ZM550.884 85.168C550.231 85.168 549.643 85.0187 549.12 84.72C548.597 84.4213 548.182 84.0013 547.874 83.46C547.575 82.9093 547.426 82.2653 547.426 81.528C547.426 80.7907 547.58 80.1513 547.888 79.61C548.196 79.0593 548.611 78.6347 549.134 78.336C549.666 78.0373 550.259 77.888 550.912 77.888C551.565 77.888 552.153 78.0373 552.676 78.336C553.199 78.6347 553.609 79.0593 553.908 79.61C554.216 80.1513 554.37 80.7907 554.37 81.528C554.37 82.2653 554.216 82.9093 553.908 83.46C553.6 84.0013 553.18 84.4213 552.648 84.72C552.125 85.0187 551.537 85.168 550.884 85.168ZM550.884 84.16C551.285 84.16 551.659 84.062 552.004 83.866C552.349 83.67 552.629 83.376 552.844 82.984C553.059 82.592 553.166 82.1067 553.166 81.528C553.166 80.9493 553.059 80.464 552.844 80.072C552.639 79.68 552.363 79.386 552.018 79.19C551.673 78.994 551.304 78.896 550.912 78.896C550.511 78.896 550.137 78.994 549.792 79.19C549.447 79.386 549.167 79.68 548.952 80.072C548.737 80.464 548.63 80.9493 548.63 81.528C548.63 82.1067 548.737 82.592 548.952 82.984C549.167 83.376 549.442 83.67 549.778 83.866C550.123 84.062 550.492 84.16 550.884 84.16ZM556.005 85V78.056H557.069L557.139 79.302C557.363 78.8633 557.685 78.518 558.105 78.266C558.525 78.014 559.001 77.888 559.533 77.888C560.354 77.888 561.008 78.14 561.493 78.644C561.988 79.1387 562.235 79.904 562.235 80.94V85H561.059V81.066C561.059 79.6193 560.462 78.896 559.267 78.896C558.67 78.896 558.17 79.1153 557.769 79.554C557.377 79.9833 557.181 80.5993 557.181 81.402V85H556.005ZM566.761 85C566.126 85 565.627 84.846 565.263 84.538C564.899 84.23 564.717 83.6747 564.717 82.872V79.05H563.513V78.056H564.717L564.871 76.39H565.893V78.056H567.937V79.05H565.893V82.872C565.893 83.3107 565.981 83.6093 566.159 83.768C566.336 83.9173 566.649 83.992 567.097 83.992H567.825V85H566.761ZM569.431 85V74.92H570.607V79.246C570.84 78.8167 571.172 78.4853 571.601 78.252C572.03 78.0093 572.497 77.888 573.001 77.888C573.804 77.888 574.448 78.14 574.933 78.644C575.418 79.1387 575.661 79.904 575.661 80.94V85H574.499V81.066C574.499 79.6193 573.916 78.896 572.749 78.896C572.142 78.896 571.634 79.1153 571.223 79.554C570.812 79.9833 570.607 80.5993 570.607 81.402V85H569.431Z" fill="#98A4B5"/>
</svg>
