<svg width="51" height="50" viewBox="0 0 51 50" fill="none" xmlns="http://www.w3.org/2000/svg">
<rect x="0.649414" width="50" height="50" rx="10" fill="#FC9680"/>
<path d="M30.09 24.669C31.849 23.396 33 21.332 33 19C33 15.141 29.86 12 26 12C22.14 12 19 15.141 19 19C19 21.332 20.151 23.396 21.91 24.669C16.742 26.388 13 31.262 13 37C13 37.553 13.448 38 14 38H38C38.552 38 39 37.553 39 37C39 31.262 35.258 26.388 30.09 24.669ZM21 19C21 16.243 23.243 14 26 14C28.757 14 31 16.243 31 19C31 21.757 28.757 24 26 24C23.243 24 21 21.757 21 19ZM15.045 36C15.552 30.401 20.271 26 26 26C31.729 26 36.448 30.401 36.955 36H15.045Z" fill="white"/>
</svg>
