<svg width="50" height="50" viewBox="0 0 50 50" fill="none" xmlns="http://www.w3.org/2000/svg">
<rect width="50" height="50" rx="10" fill="#56B5D2"/>
<path d="M25 35.3428C19.0106 35.3428 13.276 30.9363 9.49063 26.3616C8.83646 25.571 8.83646 24.4233 9.49063 23.6328C10.4424 22.4826 12.4368 20.2635 15.1011 18.3241C21.8117 13.4396 28.1752 13.4302 34.8988 18.3241C38.0288 20.6024 40.5093 23.59 40.5093 23.6328C41.1634 24.4233 41.1634 25.571 40.5093 26.3616C36.7245 30.9357 30.9906 35.3428 25 35.3428ZM25 16.6222C18.365 16.6222 12.6135 22.9497 11.0088 24.889C10.957 24.9517 10.957 25.0427 11.0088 25.1054C12.6136 27.0447 18.365 33.3722 25 33.3722C31.6349 33.3722 37.3864 27.0447 38.9911 25.1054C39.0846 24.9923 38.9849 24.889 38.9911 24.889C37.3863 22.9497 31.6349 16.6222 25 16.6222Z" fill="white"/>
<path d="M25.0001 31.8941C21.197 31.8941 18.103 28.8002 18.103 24.9971C18.103 21.1941 21.197 18.1001 25.0001 18.1001C28.8031 18.1001 31.8971 21.1941 31.8971 24.9971C31.8971 28.8002 28.8031 31.8941 25.0001 31.8941ZM25.0001 20.0707C22.2836 20.0707 20.0736 22.2807 20.0736 24.9971C20.0736 27.7136 22.2836 29.9236 25.0001 29.9236C27.7165 29.9236 29.9265 27.7136 29.9265 24.9971C29.9265 22.2807 27.7165 20.0707 25.0001 20.0707Z" fill="white"/>
</svg>
