<svg width="719" height="377" viewBox="0 0 719 377" fill="none" xmlns="http://www.w3.org/2000/svg">
<rect width="719" height="377" rx="12" fill="white"/>
<path d="M79 319H695" stroke="#DDDDDD" stroke-dasharray="5 5"/>
<path d="M79 268H695" stroke="#DDDDDD" stroke-dasharray="5 5"/>
<path d="M79 217H695" stroke="#DDDDDD" stroke-dasharray="5 5"/>
<path d="M79 167H695" stroke="#DDDDDD" stroke-dasharray="5 5"/>
<path d="M79 116H695" stroke="#DDDDDD" stroke-dasharray="5 5"/>
<path d="M92.22 349.168C91.3333 349.168 90.638 348.921 90.134 348.426C89.63 347.931 89.378 347.245 89.378 346.368H90.568C90.568 346.863 90.6893 347.278 90.932 347.614C91.1747 347.95 91.5993 348.118 92.206 348.118C92.794 348.118 93.2 347.955 93.424 347.628C93.6573 347.301 93.774 346.895 93.774 346.41V339.2H94.95V346.41C94.95 347.278 94.7073 347.955 94.222 348.44C93.746 348.925 93.0787 349.168 92.22 349.168ZM99.2623 349.168C98.6837 349.168 98.203 349.07 97.8203 348.874C97.4377 348.678 97.153 348.417 96.9663 348.09C96.7797 347.763 96.6863 347.409 96.6863 347.026C96.6863 346.317 96.957 345.771 97.4983 345.388C98.0397 345.005 98.777 344.814 99.7103 344.814H101.586V344.73C101.586 344.123 101.428 343.666 101.11 343.358C100.793 343.041 100.368 342.882 99.8363 342.882C99.379 342.882 98.9823 342.999 98.6463 343.232C98.3197 343.456 98.1143 343.787 98.0303 344.226H96.8263C96.873 343.722 97.041 343.297 97.3303 342.952C97.629 342.607 97.9977 342.345 98.4363 342.168C98.875 341.981 99.3417 341.888 99.8363 341.888C100.807 341.888 101.535 342.149 102.02 342.672C102.515 343.185 102.762 343.871 102.762 344.73V349H101.712L101.642 347.754C101.446 348.146 101.157 348.482 100.774 348.762C100.401 349.033 99.897 349.168 99.2623 349.168ZM99.4443 348.174C99.8923 348.174 100.275 348.057 100.592 347.824C100.919 347.591 101.166 347.287 101.334 346.914C101.502 346.541 101.586 346.149 101.586 345.738V345.724H99.8083C99.1177 345.724 98.6277 345.845 98.3383 346.088C98.0583 346.321 97.9183 346.615 97.9183 346.97C97.9183 347.334 98.049 347.628 98.3103 347.852C98.581 348.067 98.959 348.174 99.4443 348.174ZM104.527 349V342.056H105.591L105.661 343.302C105.885 342.863 106.207 342.518 106.627 342.266C107.047 342.014 107.523 341.888 108.055 341.888C108.876 341.888 109.529 342.14 110.015 342.644C110.509 343.139 110.757 343.904 110.757 344.94V349H109.581V345.066C109.581 343.619 108.983 342.896 107.789 342.896C107.191 342.896 106.692 343.115 106.291 343.554C105.899 343.983 105.703 344.599 105.703 345.402V349H104.527Z" fill="#98A4B5"/>
<path d="M142.036 349V339.2H148V340.166H143.212V343.61H147.286V344.562H143.212V349H142.036ZM152.266 349.168C151.603 349.168 151.015 349.019 150.502 348.72C149.988 348.412 149.582 347.987 149.284 347.446C148.994 346.905 148.85 346.265 148.85 345.528C148.85 344.8 148.994 344.165 149.284 343.624C149.573 343.073 149.974 342.649 150.488 342.35C151.01 342.042 151.612 341.888 152.294 341.888C152.966 341.888 153.544 342.042 154.03 342.35C154.524 342.649 154.902 343.045 155.164 343.54C155.425 344.035 155.556 344.567 155.556 345.136C155.556 345.239 155.551 345.341 155.542 345.444C155.542 345.547 155.542 345.663 155.542 345.794H150.012C150.04 346.326 150.161 346.769 150.376 347.124C150.6 347.469 150.875 347.731 151.202 347.908C151.538 348.085 151.892 348.174 152.266 348.174C152.751 348.174 153.157 348.062 153.484 347.838C153.81 347.614 154.048 347.311 154.198 346.928H155.36C155.173 347.572 154.814 348.109 154.282 348.538C153.759 348.958 153.087 349.168 152.266 349.168ZM152.266 342.882C151.706 342.882 151.206 343.055 150.768 343.4C150.338 343.736 150.091 344.231 150.026 344.884H154.394C154.366 344.259 154.151 343.769 153.75 343.414C153.348 343.059 152.854 342.882 152.266 342.882ZM160.824 349.168C160.255 349.168 159.746 349.051 159.298 348.818C158.86 348.585 158.524 348.258 158.29 347.838L158.178 349H157.114V338.92H158.29V343.204C158.514 342.868 158.832 342.565 159.242 342.294C159.662 342.023 160.194 341.888 160.838 341.888C161.529 341.888 162.131 342.047 162.644 342.364C163.158 342.681 163.554 343.115 163.834 343.666C164.124 344.217 164.268 344.842 164.268 345.542C164.268 346.242 164.124 346.867 163.834 347.418C163.554 347.959 163.153 348.389 162.63 348.706C162.117 349.014 161.515 349.168 160.824 349.168ZM160.698 348.146C161.165 348.146 161.576 348.039 161.93 347.824C162.285 347.6 162.565 347.292 162.77 346.9C162.976 346.508 163.078 346.051 163.078 345.528C163.078 345.005 162.976 344.548 162.77 344.156C162.565 343.764 162.285 343.461 161.93 343.246C161.576 343.022 161.165 342.91 160.698 342.91C160.232 342.91 159.821 343.022 159.466 343.246C159.112 343.461 158.832 343.764 158.626 344.156C158.421 344.548 158.318 345.005 158.318 345.528C158.318 346.051 158.421 346.508 158.626 346.9C158.832 347.292 159.112 347.6 159.466 347.824C159.821 348.039 160.232 348.146 160.698 348.146Z" fill="#98A4B5"/>
<path d="M193.036 349V339.2H194.408L197.936 346.032L201.436 339.2H202.822V349H201.646V341.3L198.37 347.6H197.488L194.212 341.314V349H193.036ZM207.13 349.168C206.551 349.168 206.07 349.07 205.688 348.874C205.305 348.678 205.02 348.417 204.834 348.09C204.647 347.763 204.554 347.409 204.554 347.026C204.554 346.317 204.824 345.771 205.366 345.388C205.907 345.005 206.644 344.814 207.578 344.814H209.454V344.73C209.454 344.123 209.295 343.666 208.978 343.358C208.66 343.041 208.236 342.882 207.704 342.882C207.246 342.882 206.85 342.999 206.514 343.232C206.187 343.456 205.982 343.787 205.898 344.226H204.694C204.74 343.722 204.908 343.297 205.198 342.952C205.496 342.607 205.865 342.345 206.304 342.168C206.742 341.981 207.209 341.888 207.704 341.888C208.674 341.888 209.402 342.149 209.888 342.672C210.382 343.185 210.63 343.871 210.63 344.73V349H209.58L209.51 347.754C209.314 348.146 209.024 348.482 208.642 348.762C208.268 349.033 207.764 349.168 207.13 349.168ZM207.312 348.174C207.76 348.174 208.142 348.057 208.46 347.824C208.786 347.591 209.034 347.287 209.202 346.914C209.37 346.541 209.454 346.149 209.454 345.738V345.724H207.676C206.985 345.724 206.495 345.845 206.206 346.088C205.926 346.321 205.786 346.615 205.786 346.97C205.786 347.334 205.916 347.628 206.178 347.852C206.448 348.067 206.826 348.174 207.312 348.174ZM212.394 349V342.056H213.458L213.556 343.386C213.77 342.929 214.097 342.565 214.536 342.294C214.974 342.023 215.516 341.888 216.16 341.888V343.12H215.838C215.427 343.12 215.049 343.195 214.704 343.344C214.358 343.484 214.083 343.727 213.878 344.072C213.672 344.417 213.57 344.893 213.57 345.5V349H212.394Z" fill="#98A4B5"/>
<path d="M245.42 349L249.032 339.2H250.278L253.876 349H252.63L251.734 346.48H247.562L246.652 349H245.42ZM247.912 345.528H251.384L249.648 340.684L247.912 345.528ZM255.263 352.08V342.056H256.327L256.439 343.204C256.663 342.868 256.98 342.565 257.391 342.294C257.811 342.023 258.343 341.888 258.987 341.888C259.678 341.888 260.28 342.047 260.793 342.364C261.306 342.681 261.703 343.115 261.983 343.666C262.272 344.217 262.417 344.842 262.417 345.542C262.417 346.242 262.272 346.867 261.983 347.418C261.703 347.959 261.302 348.389 260.779 348.706C260.266 349.014 259.664 349.168 258.973 349.168C258.404 349.168 257.895 349.051 257.447 348.818C257.008 348.585 256.672 348.258 256.439 347.838V352.08H255.263ZM258.847 348.146C259.314 348.146 259.724 348.039 260.079 347.824C260.434 347.6 260.714 347.292 260.919 346.9C261.124 346.508 261.227 346.051 261.227 345.528C261.227 345.005 261.124 344.548 260.919 344.156C260.714 343.764 260.434 343.461 260.079 343.246C259.724 343.022 259.314 342.91 258.847 342.91C258.38 342.91 257.97 343.022 257.615 343.246C257.26 343.461 256.98 343.764 256.775 344.156C256.57 344.548 256.467 345.005 256.467 345.528C256.467 346.051 256.57 346.508 256.775 346.9C256.98 347.292 257.26 347.6 257.615 347.824C257.97 348.039 258.38 348.146 258.847 348.146ZM264.054 349V342.056H265.118L265.216 343.386C265.431 342.929 265.757 342.565 266.196 342.294C266.635 342.023 267.176 341.888 267.82 341.888V343.12H267.498C267.087 343.12 266.709 343.195 266.364 343.344C266.019 343.484 265.743 343.727 265.538 344.072C265.333 344.417 265.23 344.893 265.23 345.5V349H264.054Z" fill="#98A4B5"/>
<path d="M296.036 349V339.2H297.408L300.936 346.032L304.436 339.2H305.822V349H304.646V341.3L301.37 347.6H300.488L297.212 341.314V349H296.036ZM310.13 349.168C309.551 349.168 309.07 349.07 308.688 348.874C308.305 348.678 308.02 348.417 307.834 348.09C307.647 347.763 307.554 347.409 307.554 347.026C307.554 346.317 307.824 345.771 308.366 345.388C308.907 345.005 309.644 344.814 310.578 344.814H312.454V344.73C312.454 344.123 312.295 343.666 311.978 343.358C311.66 343.041 311.236 342.882 310.704 342.882C310.246 342.882 309.85 342.999 309.514 343.232C309.187 343.456 308.982 343.787 308.898 344.226H307.694C307.74 343.722 307.908 343.297 308.198 342.952C308.496 342.607 308.865 342.345 309.304 342.168C309.742 341.981 310.209 341.888 310.704 341.888C311.674 341.888 312.402 342.149 312.888 342.672C313.382 343.185 313.63 343.871 313.63 344.73V349H312.58L312.51 347.754C312.314 348.146 312.024 348.482 311.642 348.762C311.268 349.033 310.764 349.168 310.13 349.168ZM310.312 348.174C310.76 348.174 311.142 348.057 311.46 347.824C311.786 347.591 312.034 347.287 312.202 346.914C312.37 346.541 312.454 346.149 312.454 345.738V345.724H310.676C309.985 345.724 309.495 345.845 309.206 346.088C308.926 346.321 308.786 346.615 308.786 346.97C308.786 347.334 308.916 347.628 309.178 347.852C309.448 348.067 309.826 348.174 310.312 348.174ZM315.945 352.08L317.667 348.328H317.261L314.503 342.056H315.777L318.073 347.46L320.509 342.056H321.727L317.177 352.08H315.945Z" fill="#98A4B5"/>
<path d="M352.22 349.168C351.333 349.168 350.638 348.921 350.134 348.426C349.63 347.931 349.378 347.245 349.378 346.368H350.568C350.568 346.863 350.689 347.278 350.932 347.614C351.175 347.95 351.599 348.118 352.206 348.118C352.794 348.118 353.2 347.955 353.424 347.628C353.657 347.301 353.774 346.895 353.774 346.41V339.2H354.95V346.41C354.95 347.278 354.707 347.955 354.222 348.44C353.746 348.925 353.079 349.168 352.22 349.168ZM359.486 349.168C358.665 349.168 358.012 348.921 357.526 348.426C357.041 347.922 356.798 347.152 356.798 346.116V342.056H357.974V345.99C357.974 347.437 358.567 348.16 359.752 348.16C360.359 348.16 360.858 347.945 361.25 347.516C361.652 347.077 361.852 346.457 361.852 345.654V342.056H363.028V349H361.964L361.88 347.754C361.666 348.193 361.344 348.538 360.914 348.79C360.494 349.042 360.018 349.168 359.486 349.168ZM364.964 349V342.056H366.028L366.098 343.302C366.322 342.863 366.644 342.518 367.064 342.266C367.484 342.014 367.96 341.888 368.492 341.888C369.313 341.888 369.967 342.14 370.452 342.644C370.947 343.139 371.194 343.904 371.194 344.94V349H370.018V345.066C370.018 343.619 369.421 342.896 368.226 342.896C367.629 342.896 367.129 343.115 366.728 343.554C366.336 343.983 366.14 344.599 366.14 345.402V349H364.964Z" fill="#98A4B5"/>
<path d="M406.22 349.168C405.333 349.168 404.638 348.921 404.134 348.426C403.63 347.931 403.378 347.245 403.378 346.368H404.568C404.568 346.863 404.689 347.278 404.932 347.614C405.175 347.95 405.599 348.118 406.206 348.118C406.794 348.118 407.2 347.955 407.424 347.628C407.657 347.301 407.774 346.895 407.774 346.41V339.2H408.95V346.41C408.95 347.278 408.707 347.955 408.222 348.44C407.746 348.925 407.079 349.168 406.22 349.168ZM413.486 349.168C412.665 349.168 412.012 348.921 411.526 348.426C411.041 347.922 410.798 347.152 410.798 346.116V342.056H411.974V345.99C411.974 347.437 412.567 348.16 413.752 348.16C414.359 348.16 414.858 347.945 415.25 347.516C415.652 347.077 415.852 346.457 415.852 345.654V342.056H417.028V349H415.964L415.88 347.754C415.666 348.193 415.344 348.538 414.914 348.79C414.494 349.042 414.018 349.168 413.486 349.168ZM418.964 349V338.92H420.14V349H418.964Z" fill="#98A4B5"/>
<path d="M452.42 349L456.032 339.2H457.278L460.876 349H459.63L458.734 346.48H454.562L453.652 349H452.42ZM454.912 345.528H458.384L456.648 340.684L454.912 345.528ZM464.646 349.168C463.825 349.168 463.172 348.921 462.686 348.426C462.201 347.922 461.958 347.152 461.958 346.116V342.056H463.134V345.99C463.134 347.437 463.727 348.16 464.912 348.16C465.519 348.16 466.018 347.945 466.41 347.516C466.812 347.077 467.012 346.457 467.012 345.654V342.056H468.188V349H467.124L467.04 347.754C466.826 348.193 466.504 348.538 466.074 348.79C465.654 349.042 465.178 349.168 464.646 349.168ZM472.868 346.816C472.476 346.816 472.117 346.765 471.79 346.662L471.09 347.32C471.193 347.395 471.319 347.46 471.468 347.516C471.627 347.563 471.851 347.609 472.14 347.656C472.43 347.693 472.836 347.735 473.358 347.782C474.292 347.847 474.959 348.062 475.36 348.426C475.762 348.79 475.962 349.266 475.962 349.854C475.962 350.255 475.85 350.638 475.626 351.002C475.412 351.366 475.076 351.665 474.618 351.898C474.17 352.131 473.592 352.248 472.882 352.248C472.257 352.248 471.702 352.164 471.216 351.996C470.731 351.837 470.353 351.59 470.082 351.254C469.812 350.927 469.676 350.512 469.676 350.008C469.676 349.747 469.746 349.462 469.886 349.154C470.026 348.855 470.288 348.571 470.67 348.3C470.465 348.216 470.288 348.127 470.138 348.034C469.998 347.931 469.868 347.819 469.746 347.698V347.376L470.936 346.2C470.386 345.733 470.11 345.117 470.11 344.352C470.11 343.895 470.218 343.479 470.432 343.106C470.647 342.733 470.96 342.439 471.37 342.224C471.781 342 472.28 341.888 472.868 341.888C473.27 341.888 473.634 341.944 473.96 342.056H476.522V342.938L475.22 342.994C475.491 343.386 475.626 343.839 475.626 344.352C475.626 344.809 475.514 345.225 475.29 345.598C475.076 345.971 474.763 346.27 474.352 346.494C473.951 346.709 473.456 346.816 472.868 346.816ZM472.868 345.85C473.363 345.85 473.755 345.724 474.044 345.472C474.343 345.211 474.492 344.837 474.492 344.352C474.492 343.876 474.343 343.512 474.044 343.26C473.755 342.999 473.363 342.868 472.868 342.868C472.364 342.868 471.963 342.999 471.664 343.26C471.375 343.512 471.23 343.876 471.23 344.352C471.23 344.837 471.375 345.211 471.664 345.472C471.963 345.724 472.364 345.85 472.868 345.85ZM470.824 349.896C470.824 350.363 471.02 350.708 471.412 350.932C471.804 351.165 472.294 351.282 472.882 351.282C473.461 351.282 473.923 351.156 474.268 350.904C474.623 350.652 474.8 350.316 474.8 349.896C474.8 349.597 474.679 349.336 474.436 349.112C474.194 348.897 473.746 348.771 473.092 348.734C472.579 348.697 472.136 348.65 471.762 348.594C471.38 348.799 471.128 349.019 471.006 349.252C470.885 349.495 470.824 349.709 470.824 349.896Z" fill="#98A4B5"/>
<path d="M508.158 349.168C507.439 349.168 506.814 349.037 506.282 348.776C505.75 348.515 505.339 348.151 505.05 347.684C504.761 347.217 504.616 346.676 504.616 346.06H505.848C505.848 346.443 505.937 346.797 506.114 347.124C506.291 347.441 506.548 347.698 506.884 347.894C507.229 348.081 507.654 348.174 508.158 348.174C508.821 348.174 509.334 348.015 509.698 347.698C510.062 347.381 510.244 346.984 510.244 346.508C510.244 346.116 510.16 345.803 509.992 345.57C509.824 345.327 509.595 345.131 509.306 344.982C509.026 344.833 508.699 344.702 508.326 344.59C507.962 344.478 507.579 344.352 507.178 344.212C506.422 343.951 505.862 343.629 505.498 343.246C505.134 342.854 504.952 342.345 504.952 341.72C504.943 341.197 505.064 340.735 505.316 340.334C505.568 339.923 505.923 339.606 506.38 339.382C506.847 339.149 507.397 339.032 508.032 339.032C508.657 339.032 509.199 339.149 509.656 339.382C510.123 339.615 510.482 339.937 510.734 340.348C510.995 340.759 511.131 341.225 511.14 341.748H509.908C509.908 341.477 509.838 341.211 509.698 340.95C509.558 340.679 509.343 340.46 509.054 340.292C508.774 340.124 508.419 340.04 507.99 340.04C507.458 340.031 507.019 340.166 506.674 340.446C506.338 340.726 506.17 341.113 506.17 341.608C506.17 342.028 506.287 342.35 506.52 342.574C506.763 342.798 507.099 342.985 507.528 343.134C507.957 343.274 508.452 343.437 509.012 343.624C509.479 343.792 509.899 343.988 510.272 344.212C510.645 344.436 510.935 344.725 511.14 345.08C511.355 345.435 511.462 345.887 511.462 346.438C511.462 346.905 511.341 347.348 511.098 347.768C510.855 348.179 510.487 348.515 509.992 348.776C509.507 349.037 508.895 349.168 508.158 349.168ZM516.182 349.168C515.519 349.168 514.931 349.019 514.418 348.72C513.904 348.412 513.498 347.987 513.2 347.446C512.91 346.905 512.766 346.265 512.766 345.528C512.766 344.8 512.91 344.165 513.2 343.624C513.489 343.073 513.89 342.649 514.404 342.35C514.926 342.042 515.528 341.888 516.21 341.888C516.882 341.888 517.46 342.042 517.946 342.35C518.44 342.649 518.818 343.045 519.08 343.54C519.341 344.035 519.472 344.567 519.472 345.136C519.472 345.239 519.467 345.341 519.458 345.444C519.458 345.547 519.458 345.663 519.458 345.794H513.928C513.956 346.326 514.077 346.769 514.292 347.124C514.516 347.469 514.791 347.731 515.118 347.908C515.454 348.085 515.808 348.174 516.182 348.174C516.667 348.174 517.073 348.062 517.4 347.838C517.726 347.614 517.964 347.311 518.114 346.928H519.276C519.089 347.572 518.73 348.109 518.198 348.538C517.675 348.958 517.003 349.168 516.182 349.168ZM516.182 342.882C515.622 342.882 515.122 343.055 514.684 343.4C514.254 343.736 514.007 344.231 513.942 344.884H518.31C518.282 344.259 518.067 343.769 517.666 343.414C517.264 343.059 516.77 342.882 516.182 342.882ZM521.03 352.08V342.056H522.094L522.206 343.204C522.43 342.868 522.748 342.565 523.158 342.294C523.578 342.023 524.11 341.888 524.754 341.888C525.445 341.888 526.047 342.047 526.56 342.364C527.074 342.681 527.47 343.115 527.75 343.666C528.04 344.217 528.184 344.842 528.184 345.542C528.184 346.242 528.04 346.867 527.75 347.418C527.47 347.959 527.069 348.389 526.546 348.706C526.033 349.014 525.431 349.168 524.74 349.168C524.171 349.168 523.662 349.051 523.214 348.818C522.776 348.585 522.44 348.258 522.206 347.838V352.08H521.03ZM524.614 348.146C525.081 348.146 525.492 348.039 525.846 347.824C526.201 347.6 526.481 347.292 526.686 346.9C526.892 346.508 526.994 346.051 526.994 345.528C526.994 345.005 526.892 344.548 526.686 344.156C526.481 343.764 526.201 343.461 525.846 343.246C525.492 343.022 525.081 342.91 524.614 342.91C524.148 342.91 523.737 343.022 523.382 343.246C523.028 343.461 522.748 343.764 522.542 344.156C522.337 344.548 522.234 345.005 522.234 345.528C522.234 346.051 522.337 346.508 522.542 346.9C522.748 347.292 523.028 347.6 523.382 347.824C523.737 348.039 524.148 348.146 524.614 348.146Z" fill="#98A4B5"/>
<path d="M561.488 349.168C560.527 349.168 559.682 348.958 558.954 348.538C558.235 348.109 557.671 347.511 557.26 346.746C556.859 345.981 556.658 345.099 556.658 344.1C556.658 343.101 556.859 342.224 557.26 341.468C557.671 340.703 558.235 340.105 558.954 339.676C559.682 339.247 560.527 339.032 561.488 339.032C562.459 339.032 563.303 339.247 564.022 339.676C564.75 340.105 565.315 340.703 565.716 341.468C566.117 342.224 566.318 343.101 566.318 344.1C566.318 345.099 566.117 345.981 565.716 346.746C565.315 347.511 564.75 348.109 564.022 348.538C563.303 348.958 562.459 349.168 561.488 349.168ZM561.488 348.132C562.207 348.132 562.837 347.973 563.378 347.656C563.929 347.329 564.353 346.867 564.652 346.27C564.96 345.663 565.114 344.94 565.114 344.1C565.114 343.26 564.96 342.541 564.652 341.944C564.353 341.347 563.929 340.889 563.378 340.572C562.837 340.245 562.207 340.082 561.488 340.082C560.769 340.082 560.135 340.245 559.584 340.572C559.043 340.889 558.618 341.347 558.31 341.944C558.011 342.541 557.862 343.26 557.862 344.1C557.862 344.94 558.011 345.663 558.31 346.27C558.618 346.867 559.043 347.329 559.584 347.656C560.135 347.973 560.769 348.132 561.488 348.132ZM571.137 349.168C570.474 349.168 569.877 349.019 569.345 348.72C568.822 348.412 568.407 347.987 568.099 347.446C567.8 346.895 567.651 346.256 567.651 345.528C567.651 344.8 567.8 344.165 568.099 343.624C568.407 343.073 568.822 342.649 569.345 342.35C569.877 342.042 570.474 341.888 571.137 341.888C571.958 341.888 572.649 342.103 573.209 342.532C573.778 342.961 574.137 343.535 574.287 344.254H573.083C572.989 343.825 572.761 343.493 572.397 343.26C572.033 343.017 571.608 342.896 571.123 342.896C570.731 342.896 570.362 342.994 570.017 343.19C569.671 343.386 569.391 343.68 569.177 344.072C568.962 344.464 568.855 344.949 568.855 345.528C568.855 346.107 568.962 346.592 569.177 346.984C569.391 347.376 569.671 347.675 570.017 347.88C570.362 348.076 570.731 348.174 571.123 348.174C571.608 348.174 572.033 348.057 572.397 347.824C572.761 347.581 572.989 347.241 573.083 346.802H574.287C574.147 347.502 573.792 348.071 573.223 348.51C572.653 348.949 571.958 349.168 571.137 349.168ZM578.481 349C577.847 349 577.347 348.846 576.983 348.538C576.619 348.23 576.437 347.675 576.437 346.872V343.05H575.233V342.056H576.437L576.591 340.39H577.613V342.056H579.657V343.05H577.613V346.872C577.613 347.311 577.702 347.609 577.879 347.768C578.057 347.917 578.369 347.992 578.817 347.992H579.545V349H578.481Z" fill="#98A4B5"/>
<path d="M617.036 349V339.2H618.212L623.434 347.054V339.2H624.61V349H623.434L618.212 341.146V349H617.036ZM629.782 349.168C629.129 349.168 628.541 349.019 628.018 348.72C627.496 348.421 627.08 348.001 626.772 347.46C626.474 346.909 626.324 346.265 626.324 345.528C626.324 344.791 626.478 344.151 626.786 343.61C627.094 343.059 627.51 342.635 628.032 342.336C628.564 342.037 629.157 341.888 629.81 341.888C630.464 341.888 631.052 342.037 631.574 342.336C632.097 342.635 632.508 343.059 632.806 343.61C633.114 344.151 633.268 344.791 633.268 345.528C633.268 346.265 633.114 346.909 632.806 347.46C632.498 348.001 632.078 348.421 631.546 348.72C631.024 349.019 630.436 349.168 629.782 349.168ZM629.782 348.16C630.184 348.16 630.557 348.062 630.902 347.866C631.248 347.67 631.528 347.376 631.742 346.984C631.957 346.592 632.064 346.107 632.064 345.528C632.064 344.949 631.957 344.464 631.742 344.072C631.537 343.68 631.262 343.386 630.916 343.19C630.571 342.994 630.202 342.896 629.81 342.896C629.409 342.896 629.036 342.994 628.69 343.19C628.345 343.386 628.065 343.68 627.85 344.072C627.636 344.464 627.528 344.949 627.528 345.528C627.528 346.107 627.636 346.592 627.85 346.984C628.065 347.376 628.34 347.67 628.676 347.866C629.022 348.062 629.39 348.16 629.782 348.16ZM636.55 349L633.918 342.056H635.15L637.236 347.866L639.336 342.056H640.54L637.908 349H636.55Z" fill="#98A4B5"/>
<path d="M669.036 349V339.2H672.046C673.773 339.2 675.042 339.639 675.854 340.516C676.675 341.393 677.086 342.597 677.086 344.128C677.086 345.631 676.675 346.821 675.854 347.698C675.042 348.566 673.773 349 672.046 349H669.036ZM670.212 348.02H672.018C672.97 348.02 673.726 347.866 674.286 347.558C674.855 347.241 675.261 346.793 675.504 346.214C675.747 345.626 675.868 344.931 675.868 344.128C675.868 343.307 675.747 342.602 675.504 342.014C675.261 341.426 674.855 340.973 674.286 340.656C673.726 340.339 672.97 340.18 672.018 340.18H670.212V348.02ZM681.836 349.168C681.173 349.168 680.585 349.019 680.072 348.72C679.559 348.412 679.153 347.987 678.854 347.446C678.565 346.905 678.42 346.265 678.42 345.528C678.42 344.8 678.565 344.165 678.854 343.624C679.143 343.073 679.545 342.649 680.058 342.35C680.581 342.042 681.183 341.888 681.864 341.888C682.536 341.888 683.115 342.042 683.6 342.35C684.095 342.649 684.473 343.045 684.734 343.54C684.995 344.035 685.126 344.567 685.126 345.136C685.126 345.239 685.121 345.341 685.112 345.444C685.112 345.547 685.112 345.663 685.112 345.794H679.582C679.61 346.326 679.731 346.769 679.946 347.124C680.17 347.469 680.445 347.731 680.772 347.908C681.108 348.085 681.463 348.174 681.836 348.174C682.321 348.174 682.727 348.062 683.054 347.838C683.381 347.614 683.619 347.311 683.768 346.928H684.93C684.743 347.572 684.384 348.109 683.852 348.538C683.329 348.958 682.657 349.168 681.836 349.168ZM681.836 342.882C681.276 342.882 680.777 343.055 680.338 343.4C679.909 343.736 679.661 344.231 679.596 344.884H683.964C683.936 344.259 683.721 343.769 683.32 343.414C682.919 343.059 682.424 342.882 681.836 342.882ZM689.877 349.168C689.214 349.168 688.617 349.019 688.085 348.72C687.562 348.412 687.147 347.987 686.839 347.446C686.54 346.895 686.391 346.256 686.391 345.528C686.391 344.8 686.54 344.165 686.839 343.624C687.147 343.073 687.562 342.649 688.085 342.35C688.617 342.042 689.214 341.888 689.877 341.888C690.698 341.888 691.389 342.103 691.949 342.532C692.518 342.961 692.877 343.535 693.027 344.254H691.823C691.729 343.825 691.501 343.493 691.137 343.26C690.773 343.017 690.348 342.896 689.863 342.896C689.471 342.896 689.102 342.994 688.757 343.19C688.411 343.386 688.131 343.68 687.917 344.072C687.702 344.464 687.595 344.949 687.595 345.528C687.595 346.107 687.702 346.592 687.917 346.984C688.131 347.376 688.411 347.675 688.757 347.88C689.102 348.076 689.471 348.174 689.863 348.174C690.348 348.174 690.773 348.057 691.137 347.824C691.501 347.581 691.729 347.241 691.823 346.802H693.027C692.887 347.502 692.532 348.071 691.963 348.51C691.393 348.949 690.698 349.168 689.877 349.168Z" fill="#98A4B5"/>
<path d="M40.368 273.752C39.696 273.752 39.1127 273.631 38.618 273.388C38.1233 273.146 37.7267 272.814 37.428 272.394C37.1387 271.965 36.9613 271.48 36.896 270.938H38.044C38.156 271.48 38.4173 271.918 38.828 272.254C39.2387 272.581 39.7567 272.744 40.382 272.744C40.8487 272.744 41.25 272.637 41.586 272.422C41.922 272.198 42.1787 271.9 42.356 271.526C42.5427 271.153 42.636 270.738 42.636 270.28C42.636 269.552 42.4307 268.964 42.02 268.516C41.6093 268.068 41.0773 267.844 40.424 267.844C39.8827 267.844 39.4207 267.966 39.038 268.208C38.6553 268.451 38.3753 268.768 38.198 269.16H37.078L37.918 263.784H43.056V264.806H38.828L38.254 267.788C38.478 267.518 38.786 267.294 39.178 267.116C39.5793 266.939 40.0367 266.85 40.55 266.85C41.194 266.85 41.754 267 42.23 267.298C42.7153 267.597 43.0933 268.003 43.364 268.516C43.6347 269.03 43.77 269.613 43.77 270.266C43.77 270.892 43.6347 271.47 43.364 272.002C43.1027 272.534 42.7153 272.959 42.202 273.276C41.698 273.594 41.0867 273.752 40.368 273.752ZM49.4303 273.752C48.5623 273.752 47.8109 273.542 47.1763 273.122C46.5509 272.693 46.0703 272.1 45.7343 271.344C45.3983 270.579 45.2303 269.692 45.2303 268.684C45.2303 267.676 45.3983 266.794 45.7343 266.038C46.0703 265.273 46.5509 264.68 47.1763 264.26C47.8109 263.831 48.5623 263.616 49.4303 263.616C50.2983 263.616 51.0449 263.831 51.6703 264.26C52.2956 264.68 52.7763 265.273 53.1123 266.038C53.4483 266.794 53.6163 267.676 53.6163 268.684C53.6163 269.692 53.4483 270.579 53.1123 271.344C52.7763 272.1 52.2956 272.693 51.6703 273.122C51.0449 273.542 50.2983 273.752 49.4303 273.752ZM49.4303 272.716C49.9996 272.716 50.5083 272.558 50.9563 272.24C51.4136 271.914 51.7683 271.452 52.0203 270.854C52.2816 270.248 52.4123 269.524 52.4123 268.684C52.4123 267.844 52.2816 267.126 52.0203 266.528C51.7683 265.931 51.4136 265.474 50.9563 265.156C50.5083 264.83 49.9996 264.666 49.4303 264.666C48.8516 264.666 48.3383 264.83 47.8903 265.156C47.4423 265.474 47.0876 265.931 46.8263 266.528C46.5649 267.126 46.4343 267.844 46.4343 268.684C46.4343 269.524 46.5649 270.248 46.8263 270.854C47.0876 271.452 47.4423 271.914 47.8903 272.24C48.3383 272.558 48.8516 272.716 49.4303 272.716Z" fill="#98A4B5"/>
<path d="M49.858 319.168C48.99 319.168 48.2387 318.958 47.604 318.538C46.9787 318.109 46.498 317.516 46.162 316.76C45.826 315.995 45.658 315.108 45.658 314.1C45.658 313.092 45.826 312.21 46.162 311.454C46.498 310.689 46.9787 310.096 47.604 309.676C48.2387 309.247 48.99 309.032 49.858 309.032C50.726 309.032 51.4727 309.247 52.098 309.676C52.7233 310.096 53.204 310.689 53.54 311.454C53.876 312.21 54.044 313.092 54.044 314.1C54.044 315.108 53.876 315.995 53.54 316.76C53.204 317.516 52.7233 318.109 52.098 318.538C51.4727 318.958 50.726 319.168 49.858 319.168ZM49.858 318.132C50.4273 318.132 50.936 317.973 51.384 317.656C51.8413 317.329 52.196 316.867 52.448 316.27C52.7093 315.663 52.84 314.94 52.84 314.1C52.84 313.26 52.7093 312.541 52.448 311.944C52.196 311.347 51.8413 310.889 51.384 310.572C50.936 310.245 50.4273 310.082 49.858 310.082C49.2793 310.082 48.766 310.245 48.318 310.572C47.87 310.889 47.5153 311.347 47.254 311.944C46.9927 312.541 46.862 313.26 46.862 314.1C46.862 314.94 46.9927 315.663 47.254 316.27C47.5153 316.867 47.87 317.329 48.318 317.656C48.766 317.973 49.2793 318.132 49.858 318.132Z" fill="#98A4B5"/>
<path d="M33.002 223.662V215.178L31.42 215.528V214.716L33.394 213.862H34.192V223.662H33.002ZM40.0826 223.83C39.2146 223.83 38.4633 223.62 37.8286 223.2C37.2033 222.77 36.7226 222.178 36.3866 221.422C36.0506 220.656 35.8826 219.77 35.8826 218.762C35.8826 217.754 36.0506 216.872 36.3866 216.116C36.7226 215.35 37.2033 214.758 37.8286 214.338C38.4633 213.908 39.2146 213.694 40.0826 213.694C40.9506 213.694 41.6973 213.908 42.3226 214.338C42.9479 214.758 43.4286 215.35 43.7646 216.116C44.1006 216.872 44.2686 217.754 44.2686 218.762C44.2686 219.77 44.1006 220.656 43.7646 221.422C43.4286 222.178 42.9479 222.77 42.3226 223.2C41.6973 223.62 40.9506 223.83 40.0826 223.83ZM40.0826 222.794C40.6519 222.794 41.1606 222.635 41.6086 222.318C42.0659 221.991 42.4206 221.529 42.6726 220.932C42.9339 220.325 43.0646 219.602 43.0646 218.762C43.0646 217.922 42.9339 217.203 42.6726 216.606C42.4206 216.008 42.0659 215.551 41.6086 215.234C41.1606 214.907 40.6519 214.744 40.0826 214.744C39.5039 214.744 38.9906 214.907 38.5426 215.234C38.0946 215.551 37.7399 216.008 37.4786 216.606C37.2173 217.203 37.0866 217.922 37.0866 218.762C37.0866 219.602 37.2173 220.325 37.4786 220.932C37.7399 221.529 38.0946 221.991 38.5426 222.318C38.9906 222.635 39.5039 222.794 40.0826 222.794ZM49.7896 223.83C48.9216 223.83 48.1703 223.62 47.5356 223.2C46.9103 222.77 46.4296 222.178 46.0936 221.422C45.7576 220.656 45.5896 219.77 45.5896 218.762C45.5896 217.754 45.7576 216.872 46.0936 216.116C46.4296 215.35 46.9103 214.758 47.5356 214.338C48.1703 213.908 48.9216 213.694 49.7896 213.694C50.6576 213.694 51.4043 213.908 52.0296 214.338C52.655 214.758 53.1356 215.35 53.4716 216.116C53.8076 216.872 53.9756 217.754 53.9756 218.762C53.9756 219.77 53.8076 220.656 53.4716 221.422C53.1356 222.178 52.655 222.77 52.0296 223.2C51.4043 223.62 50.6576 223.83 49.7896 223.83ZM49.7896 222.794C50.359 222.794 50.8676 222.635 51.3156 222.318C51.773 221.991 52.1276 221.529 52.3796 220.932C52.641 220.325 52.7716 219.602 52.7716 218.762C52.7716 217.922 52.641 217.203 52.3796 216.606C52.1276 216.008 51.773 215.551 51.3156 215.234C50.8676 214.907 50.359 214.744 49.7896 214.744C49.211 214.744 48.6976 214.907 48.2496 215.234C47.8016 215.551 47.447 216.008 47.1856 216.606C46.9243 217.203 46.7936 217.922 46.7936 218.762C46.7936 219.602 46.9243 220.325 47.1856 220.932C47.447 221.529 47.8016 221.991 48.2496 222.318C48.6976 222.635 49.211 222.794 49.7896 222.794Z" fill="#98A4B5"/>
<path d="M34.002 173.739V165.255L32.42 165.605V164.793L34.394 163.939H35.192V173.739H34.002ZM40.5926 173.907C39.9206 173.907 39.3373 173.785 38.8426 173.543C38.3479 173.3 37.9513 172.969 37.6526 172.549C37.3633 172.119 37.1859 171.634 37.1206 171.093H38.2686C38.3806 171.634 38.6419 172.073 39.0526 172.409C39.4633 172.735 39.9813 172.899 40.6066 172.899C41.0733 172.899 41.4746 172.791 41.8106 172.577C42.1466 172.353 42.4033 172.054 42.5806 171.681C42.7673 171.307 42.8606 170.892 42.8606 170.435C42.8606 169.707 42.6553 169.119 42.2446 168.671C41.8339 168.223 41.3019 167.999 40.6486 167.999C40.1073 167.999 39.6453 168.12 39.2626 168.363C38.8799 168.605 38.5999 168.923 38.4226 169.315H37.3026L38.1426 163.939H43.2806V164.961H39.0526L38.4786 167.943C38.7026 167.672 39.0106 167.448 39.4026 167.271C39.8039 167.093 40.2613 167.005 40.7746 167.005C41.4186 167.005 41.9786 167.154 42.4546 167.453C42.9399 167.751 43.3179 168.157 43.5886 168.671C43.8593 169.184 43.9946 169.767 43.9946 170.421C43.9946 171.046 43.8593 171.625 43.5886 172.157C43.3273 172.689 42.9399 173.113 42.4266 173.431C41.9226 173.748 41.3113 173.907 40.5926 173.907ZM49.6549 173.907C48.7869 173.907 48.0355 173.697 47.4009 173.277C46.7755 172.847 46.2949 172.255 45.9589 171.499C45.6229 170.733 45.4549 169.847 45.4549 168.839C45.4549 167.831 45.6229 166.949 45.9589 166.193C46.2949 165.427 46.7755 164.835 47.4009 164.415C48.0355 163.985 48.7869 163.771 49.6549 163.771C50.5229 163.771 51.2695 163.985 51.8949 164.415C52.5202 164.835 53.0009 165.427 53.3369 166.193C53.6729 166.949 53.8409 167.831 53.8409 168.839C53.8409 169.847 53.6729 170.733 53.3369 171.499C53.0009 172.255 52.5202 172.847 51.8949 173.277C51.2695 173.697 50.5229 173.907 49.6549 173.907ZM49.6549 172.871C50.2242 172.871 50.7329 172.712 51.1809 172.395C51.6382 172.068 51.9929 171.606 52.2449 171.009C52.5062 170.402 52.6369 169.679 52.6369 168.839C52.6369 167.999 52.5062 167.28 52.2449 166.683C51.9929 166.085 51.6382 165.628 51.1809 165.311C50.7329 164.984 50.2242 164.821 49.6549 164.821C49.0762 164.821 48.5629 164.984 48.1149 165.311C47.6669 165.628 47.3122 166.085 47.0509 166.683C46.7895 167.28 46.6589 167.999 46.6589 168.839C46.6589 169.679 46.7895 170.402 47.0509 171.009C47.3122 171.606 47.6669 172.068 48.1149 172.395C48.5629 172.712 49.0762 172.871 49.6549 172.871Z" fill="#98A4B5"/>
<path d="M27.882 122V121.174C28.5447 120.651 29.17 120.124 29.758 119.592C30.3553 119.051 30.8827 118.519 31.34 117.996C31.8067 117.473 32.1707 116.96 32.432 116.456C32.7027 115.952 32.838 115.467 32.838 115C32.838 114.655 32.7773 114.333 32.656 114.034C32.544 113.735 32.3573 113.497 32.096 113.32C31.8347 113.133 31.48 113.04 31.032 113.04C30.6027 113.04 30.2433 113.138 29.954 113.334C29.6647 113.521 29.4453 113.773 29.296 114.09C29.156 114.407 29.086 114.748 29.086 115.112H27.952C27.952 114.468 28.0873 113.917 28.358 113.46C28.6287 112.993 28.9973 112.639 29.464 112.396C29.9307 112.153 30.458 112.032 31.046 112.032C31.914 112.032 32.6233 112.279 33.174 112.774C33.734 113.259 34.014 113.987 34.014 114.958C34.014 115.537 33.8693 116.111 33.58 116.68C33.2907 117.24 32.922 117.786 32.474 118.318C32.026 118.841 31.5453 119.331 31.032 119.788C30.528 120.245 30.0567 120.656 29.618 121.02H34.35V122H27.882ZM39.733 122.168C38.865 122.168 38.1137 121.958 37.479 121.538C36.8537 121.109 36.373 120.516 36.037 119.76C35.701 118.995 35.533 118.108 35.533 117.1C35.533 116.092 35.701 115.21 36.037 114.454C36.373 113.689 36.8537 113.096 37.479 112.676C38.1137 112.247 38.865 112.032 39.733 112.032C40.601 112.032 41.3477 112.247 41.973 112.676C42.5983 113.096 43.079 113.689 43.415 114.454C43.751 115.21 43.919 116.092 43.919 117.1C43.919 118.108 43.751 118.995 43.415 119.76C43.079 120.516 42.5983 121.109 41.973 121.538C41.3477 121.958 40.601 122.168 39.733 122.168ZM39.733 121.132C40.3023 121.132 40.811 120.973 41.259 120.656C41.7163 120.329 42.071 119.867 42.323 119.27C42.5843 118.663 42.715 117.94 42.715 117.1C42.715 116.26 42.5843 115.541 42.323 114.944C42.071 114.347 41.7163 113.889 41.259 113.572C40.811 113.245 40.3023 113.082 39.733 113.082C39.1543 113.082 38.641 113.245 38.193 113.572C37.745 113.889 37.3903 114.347 37.129 114.944C36.8677 115.541 36.737 116.26 36.737 117.1C36.737 117.94 36.8677 118.663 37.129 119.27C37.3903 119.867 37.745 120.329 38.193 120.656C38.641 120.973 39.1543 121.132 39.733 121.132ZM49.44 122.168C48.572 122.168 47.8207 121.958 47.186 121.538C46.5607 121.109 46.08 120.516 45.744 119.76C45.408 118.995 45.24 118.108 45.24 117.1C45.24 116.092 45.408 115.21 45.744 114.454C46.08 113.689 46.5607 113.096 47.186 112.676C47.8207 112.247 48.572 112.032 49.44 112.032C50.308 112.032 51.0547 112.247 51.68 112.676C52.3054 113.096 52.786 113.689 53.122 114.454C53.458 115.21 53.626 116.092 53.626 117.1C53.626 118.108 53.458 118.995 53.122 119.76C52.786 120.516 52.3054 121.109 51.68 121.538C51.0547 121.958 50.308 122.168 49.44 122.168ZM49.44 121.132C50.0094 121.132 50.518 120.973 50.966 120.656C51.4234 120.329 51.778 119.867 52.03 119.27C52.2914 118.663 52.422 117.94 52.422 117.1C52.422 116.26 52.2914 115.541 52.03 114.944C51.778 114.347 51.4234 113.889 50.966 113.572C50.518 113.245 50.0094 113.082 49.44 113.082C48.8614 113.082 48.348 113.245 47.9 113.572C47.452 113.889 47.0974 114.347 46.836 114.944C46.5747 115.541 46.444 116.26 46.444 117.1C46.444 117.94 46.5747 118.663 46.836 119.27C47.0974 119.867 47.452 120.329 47.9 120.656C48.348 120.973 48.8614 121.132 49.44 121.132Z" fill="#98A4B5"/>
<path d="M36.978 30.364L32.496 43H28.644L24.162 30.364H27.438L30.57 39.904L33.72 30.364H36.978ZM39.8124 31.912C39.2724 31.912 38.8284 31.756 38.4804 31.444C38.1444 31.12 37.9764 30.724 37.9764 30.256C37.9764 29.776 38.1444 29.38 38.4804 29.068C38.8284 28.744 39.2724 28.582 39.8124 28.582C40.3404 28.582 40.7724 28.744 41.1084 29.068C41.4564 29.38 41.6304 29.776 41.6304 30.256C41.6304 30.724 41.4564 31.12 41.1084 31.444C40.7724 31.756 40.3404 31.912 39.8124 31.912ZM41.3424 32.956V43H38.2644V32.956H41.3424ZM47.659 43.144C46.783 43.144 46.003 42.994 45.319 42.694C44.635 42.394 44.095 41.986 43.699 41.47C43.303 40.942 43.081 40.354 43.033 39.706H46.075C46.111 40.054 46.273 40.336 46.561 40.552C46.849 40.768 47.203 40.876 47.623 40.876C48.007 40.876 48.301 40.804 48.505 40.66C48.721 40.504 48.829 40.306 48.829 40.066C48.829 39.778 48.679 39.568 48.379 39.436C48.079 39.292 47.593 39.136 46.921 38.968C46.201 38.8 45.601 38.626 45.121 38.446C44.641 38.254 44.227 37.96 43.879 37.564C43.531 37.156 43.357 36.61 43.357 35.926C43.357 35.35 43.513 34.828 43.825 34.36C44.149 33.88 44.617 33.502 45.229 33.226C45.853 32.95 46.591 32.812 47.443 32.812C48.703 32.812 49.693 33.124 50.413 33.748C51.145 34.372 51.565 35.2 51.673 36.232H48.829C48.781 35.884 48.625 35.608 48.361 35.404C48.109 35.2 47.773 35.098 47.353 35.098C46.993 35.098 46.717 35.17 46.525 35.314C46.333 35.446 46.237 35.632 46.237 35.872C46.237 36.16 46.387 36.376 46.687 36.52C46.999 36.664 47.479 36.808 48.127 36.952C48.871 37.144 49.477 37.336 49.945 37.528C50.413 37.708 50.821 38.008 51.169 38.428C51.529 38.836 51.715 39.388 51.727 40.084C51.727 40.672 51.559 41.2 51.223 41.668C50.899 42.124 50.425 42.484 49.801 42.748C49.189 43.012 48.475 43.144 47.659 43.144ZM55.1581 31.912C54.6181 31.912 54.1741 31.756 53.8261 31.444C53.4901 31.12 53.3221 30.724 53.3221 30.256C53.3221 29.776 53.4901 29.38 53.8261 29.068C54.1741 28.744 54.6181 28.582 55.1581 28.582C55.6861 28.582 56.1181 28.744 56.4541 29.068C56.8021 29.38 56.9761 29.776 56.9761 30.256C56.9761 30.724 56.8021 31.12 56.4541 31.444C56.1181 31.756 55.6861 31.912 55.1581 31.912ZM56.6881 32.956V43H53.6101V32.956H56.6881ZM64.5167 40.39V43H62.9507C61.8347 43 60.9647 42.73 60.3407 42.19C59.7167 41.638 59.4047 40.744 59.4047 39.508V35.512H58.1807V32.956H59.4047V30.508H62.4827V32.956H64.4987V35.512H62.4827V39.544C62.4827 39.844 62.5547 40.06 62.6987 40.192C62.8427 40.324 63.0827 40.39 63.4187 40.39H64.5167ZM70.8032 43.144C69.8192 43.144 68.9312 42.934 68.1392 42.514C67.3592 42.094 66.7412 41.494 66.2852 40.714C65.8412 39.934 65.6192 39.022 65.6192 37.978C65.6192 36.946 65.8472 36.04 66.3032 35.26C66.7592 34.468 67.3832 33.862 68.1752 33.442C68.9672 33.022 69.8552 32.812 70.8392 32.812C71.8232 32.812 72.7112 33.022 73.5032 33.442C74.2952 33.862 74.9192 34.468 75.3752 35.26C75.8312 36.04 76.0592 36.946 76.0592 37.978C76.0592 39.01 75.8252 39.922 75.3572 40.714C74.9012 41.494 74.2712 42.094 73.4672 42.514C72.6752 42.934 71.7872 43.144 70.8032 43.144ZM70.8032 40.48C71.3912 40.48 71.8892 40.264 72.2972 39.832C72.7172 39.4 72.9272 38.782 72.9272 37.978C72.9272 37.174 72.7232 36.556 72.3152 36.124C71.9192 35.692 71.4272 35.476 70.8392 35.476C70.2392 35.476 69.7412 35.692 69.3452 36.124C68.9492 36.544 68.7512 37.162 68.7512 37.978C68.7512 38.782 68.9432 39.4 69.3272 39.832C69.7232 40.264 70.2152 40.48 70.8032 40.48ZM80.7702 34.63C81.1302 34.078 81.5802 33.646 82.1202 33.334C82.6602 33.01 83.2602 32.848 83.9202 32.848V36.106H83.0742C82.3062 36.106 81.7302 36.274 81.3462 36.61C80.9622 36.934 80.7702 37.51 80.7702 38.338V43H77.6922V32.956H80.7702V34.63Z" fill="#333333"/>
<rect x="155" y="189" width="12" height="130" fill="#56B5D2"/>
<rect x="207" y="204" width="12" height="115" fill="#56B5D2"/>
<rect x="259" y="189" width="12" height="130" fill="#56B5D2"/>
<rect x="311" y="239" width="12" height="80" fill="#56B5D2"/>
<rect x="103" y="194" width="12" height="125" fill="#56B5D2"/>
<rect x="363" y="167" width="12" height="152" fill="#56B5D2"/>
<rect x="415" y="197" width="12" height="122" fill="#56B5D2"/>
<rect x="467" y="180" width="12" height="139" fill="#56B5D2"/>
<rect x="519" y="204" width="12" height="115" fill="#56B5D2"/>
<rect x="571" y="132" width="12" height="187" fill="#56B5D2"/>
<rect x="683" y="217" width="12" height="102" fill="#56B5D2"/>
<rect x="631" y="217" width="12" height="102" fill="#56B5D2"/>
<rect x="87" y="217" width="12" height="102" fill="#8365D7"/>
<rect x="139" y="239" width="12" height="80" fill="#8365D7"/>
<rect x="191" y="167" width="12" height="152" fill="#8365D7"/>
<rect x="243" y="217" width="12" height="102" fill="#8365D7"/>
<rect x="295" y="268" width="12" height="51" fill="#8365D7"/>
<rect x="347" y="139" width="12" height="180" fill="#8365D7"/>
<rect x="399" y="197" width="12" height="122" fill="#8365D7"/>
<rect x="451" y="217" width="12" height="102" fill="#8365D7"/>
<rect x="503" y="180" width="12" height="139" fill="#8365D7"/>
<rect x="555" y="174" width="12" height="145" fill="#8365D7"/>
<rect x="667" y="217" width="12" height="102" fill="#8365D7"/>
<rect x="615" y="167" width="12" height="152" fill="#8365D7"/>
<path d="M569.994 41V31.2H571.744L575.062 37.724L578.366 31.2H580.116V41H578.632V33.762L575.636 39.6H574.488L571.478 33.776V41H569.994ZM585.299 41.168C584.637 41.168 584.039 41.0187 583.507 40.72C582.985 40.412 582.569 39.9873 582.261 39.446C581.953 38.8953 581.799 38.256 581.799 37.528C581.799 36.8 581.953 36.1653 582.261 35.624C582.579 35.0733 583.003 34.6487 583.535 34.35C584.067 34.042 584.66 33.888 585.313 33.888C585.976 33.888 586.569 34.042 587.091 34.35C587.623 34.6487 588.043 35.0733 588.351 35.624C588.669 36.1653 588.827 36.8 588.827 37.528C588.827 38.256 588.669 38.8953 588.351 39.446C588.043 39.9873 587.623 40.412 587.091 40.72C586.559 41.0187 585.962 41.168 585.299 41.168ZM585.299 39.894C585.654 39.894 585.981 39.8053 586.279 39.628C586.587 39.4507 586.835 39.1893 587.021 38.844C587.208 38.4893 587.301 38.0507 587.301 37.528C587.301 37.0053 587.208 36.5713 587.021 36.226C586.844 35.8713 586.601 35.6053 586.293 35.428C585.995 35.2507 585.668 35.162 585.313 35.162C584.959 35.162 584.627 35.2507 584.319 35.428C584.021 35.6053 583.778 35.8713 583.591 36.226C583.405 36.5713 583.311 37.0053 583.311 37.528C583.311 38.0507 583.405 38.4893 583.591 38.844C583.778 39.1893 584.021 39.4507 584.319 39.628C584.618 39.8053 584.945 39.894 585.299 39.894ZM590.432 41V34.056H591.748L591.86 35.274C592.075 34.8447 592.387 34.5087 592.798 34.266C593.218 34.014 593.699 33.888 594.24 33.888C595.08 33.888 595.738 34.1493 596.214 34.672C596.699 35.1947 596.942 35.974 596.942 37.01V41H595.472V37.164C595.472 35.82 594.921 35.148 593.82 35.148C593.269 35.148 592.812 35.344 592.448 35.736C592.093 36.128 591.916 36.688 591.916 37.416V41H590.432ZM601.602 41C600.921 41 600.379 40.8367 599.978 40.51C599.577 40.174 599.376 39.5813 599.376 38.732V35.302H598.186V34.056H599.376L599.558 32.292H600.86V34.056H602.82V35.302H600.86V38.732C600.86 39.1147 600.939 39.3807 601.098 39.53C601.266 39.67 601.551 39.74 601.952 39.74H602.75V41H601.602ZM604.35 41V30.92H605.834V35.176C606.067 34.7747 606.389 34.462 606.8 34.238C607.22 34.0047 607.682 33.888 608.186 33.888C609.017 33.888 609.67 34.1493 610.146 34.672C610.622 35.1947 610.86 35.974 610.86 37.01V41H609.39V37.164C609.39 35.82 608.853 35.148 607.78 35.148C607.22 35.148 606.753 35.344 606.38 35.736C606.016 36.128 605.834 36.688 605.834 37.416V41H604.35Z" fill="#333333"/>
<path d="M632.293 33.293L628 37.586L623.707 33.293L622.293 34.707L628 40.414L633.707 34.707L632.293 33.293Z" fill="#98A4B5"/>
<rect x="552.5" y="22.5" width="95" height="27" rx="13.5" stroke="#DDDDDD"/>
<path d="M690 35C689.448 35 689 35.4477 689 36C689 36.5523 689.448 37 690 37C690.552 37 691 36.5523 691 36C691 35.4477 690.552 35 690 35Z" stroke="#98A4B5" stroke-width="2" stroke-linecap="round" stroke-linejoin="round"/>
<path d="M683 35C682.448 35 682 35.4477 682 36C682 36.5523 682.448 37 683 37C683.552 37 684 36.5523 684 36C684 35.4477 683.552 35 683 35Z" stroke="#98A4B5" stroke-width="2" stroke-linecap="round" stroke-linejoin="round"/>
<path d="M676 35C675.448 35 675 35.4477 675 36C675 36.5523 675.448 37 676 37C676.552 37 677 36.5523 677 36C677 35.4477 676.552 35 676 35Z" stroke="#98A4B5" stroke-width="2" stroke-linecap="round" stroke-linejoin="round"/>
<circle cx="602" cy="79" r="3" fill="#FF9E9E"/>
<path d="M615.036 84V74.2H616.212V83.062H620.776V84H615.036ZM624.631 84.168C624.053 84.168 623.572 84.07 623.189 83.874C622.807 83.678 622.522 83.4167 622.335 83.09C622.149 82.7633 622.055 82.4087 622.055 82.026C622.055 81.3167 622.326 80.7707 622.867 80.388C623.409 80.0053 624.146 79.814 625.079 79.814H626.955V79.73C626.955 79.1233 626.797 78.666 626.479 78.358C626.162 78.0407 625.737 77.882 625.205 77.882C624.748 77.882 624.351 77.9987 624.015 78.232C623.689 78.456 623.483 78.7873 623.399 79.226H622.195C622.242 78.722 622.41 78.2973 622.699 77.952C622.998 77.6067 623.367 77.3453 623.805 77.168C624.244 76.9813 624.711 76.888 625.205 76.888C626.176 76.888 626.904 77.1493 627.389 77.672C627.884 78.1853 628.131 78.8713 628.131 79.73V84H627.081L627.011 82.754C626.815 83.146 626.526 83.482 626.143 83.762C625.77 84.0327 625.266 84.168 624.631 84.168ZM624.813 83.174C625.261 83.174 625.644 83.0573 625.961 82.824C626.288 82.5907 626.535 82.2873 626.703 81.914C626.871 81.5407 626.955 81.1487 626.955 80.738V80.724H625.177C624.487 80.724 623.997 80.8453 623.707 81.088C623.427 81.3213 623.287 81.6153 623.287 81.97C623.287 82.334 623.418 82.628 623.679 82.852C623.95 83.0667 624.328 83.174 624.813 83.174ZM632.556 84.168C631.725 84.168 631.034 83.958 630.484 83.538C629.933 83.118 629.611 82.5487 629.518 81.83H630.722C630.796 82.194 630.988 82.5113 631.296 82.782C631.613 83.0433 632.038 83.174 632.57 83.174C633.064 83.174 633.428 83.0713 633.662 82.866C633.895 82.6513 634.012 82.3993 634.012 82.11C634.012 81.69 633.858 81.41 633.55 81.27C633.251 81.13 632.826 81.004 632.276 80.892C631.902 80.8173 631.529 80.71 631.156 80.57C630.782 80.43 630.47 80.234 630.218 79.982C629.966 79.7207 629.84 79.38 629.84 78.96C629.84 78.3533 630.064 77.8587 630.512 77.476C630.969 77.084 631.585 76.888 632.36 76.888C633.097 76.888 633.699 77.0747 634.166 77.448C634.642 77.812 634.917 78.3347 634.992 79.016H633.83C633.783 78.6613 633.629 78.386 633.368 78.19C633.116 77.9847 632.775 77.882 632.346 77.882C631.926 77.882 631.599 77.9707 631.366 78.148C631.142 78.3253 631.03 78.5587 631.03 78.848C631.03 79.128 631.174 79.3473 631.464 79.506C631.762 79.6647 632.164 79.8 632.668 79.912C633.097 80.0053 633.503 80.122 633.886 80.262C634.278 80.3927 634.595 80.5933 634.838 80.864C635.09 81.1253 635.216 81.508 635.216 82.012C635.225 82.6373 634.987 83.1553 634.502 83.566C634.026 83.9673 633.377 84.168 632.556 84.168ZM639.325 84C638.691 84 638.191 83.846 637.827 83.538C637.463 83.23 637.281 82.6747 637.281 81.872V78.05H636.077V77.056H637.281L637.435 75.39H638.457V77.056H640.501V78.05H638.457V81.872C638.457 82.3107 638.546 82.6093 638.723 82.768C638.901 82.9173 639.213 82.992 639.661 82.992H640.389V84H639.325ZM645.77 84V74.2H647.142L650.67 81.032L654.17 74.2H655.556V84H654.38V76.3L651.104 82.6H650.222L646.946 76.314V84H645.77ZM660.718 84.168C660.065 84.168 659.477 84.0187 658.954 83.72C658.431 83.4213 658.016 83.0013 657.708 82.46C657.409 81.9093 657.26 81.2653 657.26 80.528C657.26 79.7907 657.414 79.1513 657.722 78.61C658.03 78.0593 658.445 77.6347 658.968 77.336C659.5 77.0373 660.093 76.888 660.746 76.888C661.399 76.888 661.987 77.0373 662.51 77.336C663.033 77.6347 663.443 78.0593 663.742 78.61C664.05 79.1513 664.204 79.7907 664.204 80.528C664.204 81.2653 664.05 81.9093 663.742 82.46C663.434 83.0013 663.014 83.4213 662.482 83.72C661.959 84.0187 661.371 84.168 660.718 84.168ZM660.718 83.16C661.119 83.16 661.493 83.062 661.838 82.866C662.183 82.67 662.463 82.376 662.678 81.984C662.893 81.592 663 81.1067 663 80.528C663 79.9493 662.893 79.464 662.678 79.072C662.473 78.68 662.197 78.386 661.852 78.19C661.507 77.994 661.138 77.896 660.746 77.896C660.345 77.896 659.971 77.994 659.626 78.19C659.281 78.386 659.001 78.68 658.786 79.072C658.571 79.464 658.464 79.9493 658.464 80.528C658.464 81.1067 658.571 81.592 658.786 81.984C659.001 82.376 659.276 82.67 659.612 82.866C659.957 83.062 660.326 83.16 660.718 83.16ZM665.839 84V77.056H666.903L666.973 78.302C667.197 77.8633 667.519 77.518 667.939 77.266C668.359 77.014 668.835 76.888 669.367 76.888C670.188 76.888 670.842 77.14 671.327 77.644C671.822 78.1387 672.069 78.904 672.069 79.94V84H670.893V80.066C670.893 78.6193 670.296 77.896 669.101 77.896C668.504 77.896 668.004 78.1153 667.603 78.554C667.211 78.9833 667.015 79.5993 667.015 80.402V84H665.839ZM676.595 84C675.96 84 675.461 83.846 675.097 83.538C674.733 83.23 674.551 82.6747 674.551 81.872V78.05H673.347V77.056H674.551L674.705 75.39H675.727V77.056H677.771V78.05H675.727V81.872C675.727 82.3107 675.815 82.6093 675.993 82.768C676.17 82.9173 676.483 82.992 676.931 82.992H677.659V84H676.595ZM679.265 84V73.92H680.441V78.246C680.674 77.8167 681.005 77.4853 681.435 77.252C681.864 77.0093 682.331 76.888 682.835 76.888C683.637 76.888 684.281 77.14 684.767 77.644C685.252 78.1387 685.495 78.904 685.495 79.94V84H684.333V80.066C684.333 78.6193 683.749 77.896 682.583 77.896C681.976 77.896 681.467 78.1153 681.057 78.554C680.646 78.9833 680.441 79.5993 680.441 80.402V84H679.265Z" fill="#98A4B5"/>
<circle cx="493" cy="79" r="3" fill="#4BB4EF"/>
<path d="M508.332 84V75.166H505.406V74.2H512.434V75.166H509.508V84H508.332ZM513.8 84V73.92H514.976V78.246C515.209 77.8167 515.541 77.4853 515.97 77.252C516.399 77.0093 516.866 76.888 517.37 76.888C518.173 76.888 518.817 77.14 519.302 77.644C519.787 78.1387 520.03 78.904 520.03 79.94V84H518.868V80.066C518.868 78.6193 518.285 77.896 517.118 77.896C516.511 77.896 516.003 78.1153 515.592 78.554C515.181 78.9833 514.976 79.5993 514.976 80.402V84H513.8ZM522.526 75.516C522.292 75.516 522.096 75.4413 521.938 75.292C521.788 75.1333 521.714 74.9373 521.714 74.704C521.714 74.48 521.788 74.2933 521.938 74.144C522.096 73.9947 522.292 73.92 522.526 73.92C522.75 73.92 522.941 73.9947 523.1 74.144C523.258 74.2933 523.338 74.48 523.338 74.704C523.338 74.9373 523.258 75.1333 523.1 75.292C522.941 75.4413 522.75 75.516 522.526 75.516ZM521.938 84V77.056H523.114V84H521.938ZM527.821 84.168C526.991 84.168 526.3 83.958 525.749 83.538C525.199 83.118 524.877 82.5487 524.783 81.83H525.987C526.062 82.194 526.253 82.5113 526.561 82.782C526.879 83.0433 527.303 83.174 527.835 83.174C528.33 83.174 528.694 83.0713 528.927 82.866C529.161 82.6513 529.277 82.3993 529.277 82.11C529.277 81.69 529.123 81.41 528.815 81.27C528.517 81.13 528.092 81.004 527.541 80.892C527.168 80.8173 526.795 80.71 526.421 80.57C526.048 80.43 525.735 80.234 525.483 79.982C525.231 79.7207 525.105 79.38 525.105 78.96C525.105 78.3533 525.329 77.8587 525.777 77.476C526.235 77.084 526.851 76.888 527.625 76.888C528.363 76.888 528.965 77.0747 529.431 77.448C529.907 77.812 530.183 78.3347 530.257 79.016H529.095C529.049 78.6613 528.895 78.386 528.633 78.19C528.381 77.9847 528.041 77.882 527.611 77.882C527.191 77.882 526.865 77.9707 526.631 78.148C526.407 78.3253 526.295 78.5587 526.295 78.848C526.295 79.128 526.44 79.3473 526.729 79.506C527.028 79.6647 527.429 79.8 527.933 79.912C528.363 80.0053 528.769 80.122 529.151 80.262C529.543 80.3927 529.861 80.5933 530.103 80.864C530.355 81.1253 530.481 81.508 530.481 82.012C530.491 82.6373 530.253 83.1553 529.767 83.566C529.291 83.9673 528.643 84.168 527.821 84.168ZM535.936 84V74.2H537.308L540.836 81.032L544.336 74.2H545.722V84H544.546V76.3L541.27 82.6H540.388L537.112 76.314V84H535.936ZM550.884 84.168C550.231 84.168 549.643 84.0187 549.12 83.72C548.597 83.4213 548.182 83.0013 547.874 82.46C547.575 81.9093 547.426 81.2653 547.426 80.528C547.426 79.7907 547.58 79.1513 547.888 78.61C548.196 78.0593 548.611 77.6347 549.134 77.336C549.666 77.0373 550.259 76.888 550.912 76.888C551.565 76.888 552.153 77.0373 552.676 77.336C553.199 77.6347 553.609 78.0593 553.908 78.61C554.216 79.1513 554.37 79.7907 554.37 80.528C554.37 81.2653 554.216 81.9093 553.908 82.46C553.6 83.0013 553.18 83.4213 552.648 83.72C552.125 84.0187 551.537 84.168 550.884 84.168ZM550.884 83.16C551.285 83.16 551.659 83.062 552.004 82.866C552.349 82.67 552.629 82.376 552.844 81.984C553.059 81.592 553.166 81.1067 553.166 80.528C553.166 79.9493 553.059 79.464 552.844 79.072C552.639 78.68 552.363 78.386 552.018 78.19C551.673 77.994 551.304 77.896 550.912 77.896C550.511 77.896 550.137 77.994 549.792 78.19C549.447 78.386 549.167 78.68 548.952 79.072C548.737 79.464 548.63 79.9493 548.63 80.528C548.63 81.1067 548.737 81.592 548.952 81.984C549.167 82.376 549.442 82.67 549.778 82.866C550.123 83.062 550.492 83.16 550.884 83.16ZM556.005 84V77.056H557.069L557.139 78.302C557.363 77.8633 557.685 77.518 558.105 77.266C558.525 77.014 559.001 76.888 559.533 76.888C560.354 76.888 561.008 77.14 561.493 77.644C561.988 78.1387 562.235 78.904 562.235 79.94V84H561.059V80.066C561.059 78.6193 560.462 77.896 559.267 77.896C558.67 77.896 558.17 78.1153 557.769 78.554C557.377 78.9833 557.181 79.5993 557.181 80.402V84H556.005ZM566.761 84C566.126 84 565.627 83.846 565.263 83.538C564.899 83.23 564.717 82.6747 564.717 81.872V78.05H563.513V77.056H564.717L564.871 75.39H565.893V77.056H567.937V78.05H565.893V81.872C565.893 82.3107 565.981 82.6093 566.159 82.768C566.336 82.9173 566.649 82.992 567.097 82.992H567.825V84H566.761ZM569.431 84V73.92H570.607V78.246C570.84 77.8167 571.172 77.4853 571.601 77.252C572.03 77.0093 572.497 76.888 573.001 76.888C573.804 76.888 574.448 77.14 574.933 77.644C575.418 78.1387 575.661 78.904 575.661 79.94V84H574.499V80.066C574.499 78.6193 573.916 77.896 572.749 77.896C572.142 77.896 571.634 78.1153 571.223 78.554C570.812 78.9833 570.607 79.5993 570.607 80.402V84H569.431Z" fill="#98A4B5"/>
</svg>
